G04 (created by PCBNEW-RS274X (2011-07-20 BZR 3052)-testing) date 2011-07-21 16:28:03*
G01*
G70*
G90*
%MOIN*%
G04 Gerber Fmt 3.4, Leading zero omitted, Abs format*
%FSLAX34Y34*%
G04 APERTURE LIST*
%ADD10C,0.006000*%
%ADD11C,0.012000*%
%ADD12C,0.008700*%
%ADD13C,0.005000*%
%ADD14C,0.008000*%
%ADD15C,0.002600*%
%ADD16C,0.007900*%
%ADD17C,0.007000*%
%ADD18C,0.004000*%
%ADD19C,0.004500*%
%ADD20C,0.003500*%
%ADD21C,0.180000*%
%ADD22R,0.070000X0.040000*%
%ADD23R,0.180000X0.100000*%
%ADD24R,0.075000X0.055000*%
%ADD25R,0.055000X0.075000*%
%ADD26R,0.065000X0.045000*%
%ADD27R,0.045000X0.065000*%
%ADD28R,0.072000X0.072000*%
%ADD29C,0.072000*%
%ADD30C,0.080000*%
%ADD31R,0.080000X0.080000*%
%ADD32R,0.086900X0.090800*%
%ADD33R,0.090800X0.086900*%
%ADD34R,0.145000X0.170000*%
%ADD35R,0.080000X0.070000*%
%ADD36R,0.120000X0.120000*%
%ADD37C,0.120000*%
G04 APERTURE END LIST*
G54D10*
G54D11*
X48298Y-42622D02*
X48498Y-42622D01*
X48584Y-43041D02*
X48298Y-43041D01*
X48298Y-42241D01*
X48584Y-42241D01*
G54D12*
X52363Y-26772D02*
X48819Y-37008D01*
X52756Y-41536D02*
X52744Y-41650D01*
X52711Y-41760D01*
X52657Y-41862D01*
X52584Y-41951D01*
X52495Y-42025D01*
X52394Y-42079D01*
X52284Y-42113D01*
X52170Y-42125D01*
X52056Y-42115D01*
X51945Y-42083D01*
X51843Y-42029D01*
X51754Y-41957D01*
X51680Y-41869D01*
X51624Y-41768D01*
X51589Y-41658D01*
X51577Y-41544D01*
X51586Y-41430D01*
X51618Y-41319D01*
X51671Y-41217D01*
X51742Y-41127D01*
X51830Y-41052D01*
X51930Y-40996D01*
X52040Y-40960D01*
X52154Y-40947D01*
X52268Y-40955D01*
X52379Y-40986D01*
X52482Y-41038D01*
X52572Y-41109D01*
X52648Y-41196D01*
X52704Y-41297D01*
X52741Y-41406D01*
X52755Y-41520D01*
X52756Y-41536D01*
X50513Y-39883D02*
X53819Y-43189D01*
X50513Y-43189D02*
X53819Y-39883D01*
X15551Y-42126D02*
X15539Y-42240D01*
X15506Y-42350D01*
X15452Y-42452D01*
X15379Y-42541D01*
X15290Y-42615D01*
X15189Y-42669D01*
X15079Y-42703D01*
X14965Y-42715D01*
X14851Y-42705D01*
X14740Y-42673D01*
X14638Y-42619D01*
X14549Y-42547D01*
X14475Y-42459D01*
X14419Y-42358D01*
X14384Y-42248D01*
X14372Y-42134D01*
X14381Y-42020D01*
X14413Y-41909D01*
X14466Y-41807D01*
X14537Y-41717D01*
X14625Y-41642D01*
X14725Y-41586D01*
X14835Y-41550D01*
X14949Y-41537D01*
X15063Y-41545D01*
X15174Y-41576D01*
X15277Y-41628D01*
X15367Y-41699D01*
X15443Y-41786D01*
X15499Y-41887D01*
X15536Y-41996D01*
X15550Y-42110D01*
X15551Y-42126D01*
X13780Y-42126D02*
X16142Y-42126D01*
X14961Y-40945D02*
X14961Y-43307D01*
X15551Y-14961D02*
X15539Y-15075D01*
X15506Y-15185D01*
X15452Y-15287D01*
X15379Y-15376D01*
X15290Y-15450D01*
X15189Y-15504D01*
X15079Y-15538D01*
X14965Y-15550D01*
X14851Y-15540D01*
X14740Y-15508D01*
X14638Y-15454D01*
X14549Y-15382D01*
X14475Y-15294D01*
X14419Y-15193D01*
X14384Y-15083D01*
X14372Y-14969D01*
X14381Y-14855D01*
X14413Y-14744D01*
X14466Y-14642D01*
X14537Y-14552D01*
X14625Y-14477D01*
X14725Y-14421D01*
X14835Y-14385D01*
X14949Y-14372D01*
X15063Y-14380D01*
X15174Y-14411D01*
X15277Y-14463D01*
X15367Y-14534D01*
X15443Y-14621D01*
X15499Y-14722D01*
X15536Y-14831D01*
X15550Y-14945D01*
X15551Y-14961D01*
X13780Y-14961D02*
X16142Y-14961D01*
X14961Y-13780D02*
X14961Y-16142D01*
G54D11*
X09677Y-27030D02*
X09678Y-27430D01*
X08878Y-27175D01*
X09679Y-27944D02*
X09678Y-27658D01*
X09297Y-27630D01*
X09335Y-27659D01*
X09374Y-27716D01*
X09374Y-27859D01*
X09336Y-27916D01*
X09298Y-27945D01*
X09222Y-27973D01*
X09032Y-27973D01*
X08955Y-27945D01*
X08917Y-27917D01*
X08879Y-27860D01*
X08879Y-27717D01*
X08916Y-27660D01*
X08954Y-27630D01*
X08880Y-28688D02*
X09414Y-28687D01*
X09337Y-28687D02*
X09375Y-28715D01*
X09414Y-28773D01*
X09415Y-28858D01*
X09376Y-28915D01*
X09300Y-28944D01*
X08881Y-28945D01*
X09300Y-28944D02*
X09376Y-28973D01*
X09415Y-29030D01*
X09415Y-29115D01*
X09376Y-29173D01*
X09300Y-29201D01*
X08881Y-29202D01*
X08882Y-29488D02*
X09416Y-29487D01*
X09339Y-29487D02*
X09377Y-29515D01*
X09416Y-29573D01*
X09416Y-29658D01*
X09377Y-29715D01*
X09301Y-29744D01*
X08882Y-29745D01*
X09301Y-29744D02*
X09377Y-29773D01*
X09416Y-29830D01*
X09416Y-29915D01*
X09377Y-29973D01*
X09302Y-30001D01*
X08883Y-30002D01*
X09844Y-13780D02*
X09844Y-43308D01*
X10827Y-13780D02*
X08564Y-13780D01*
X10827Y-43308D02*
X08564Y-43308D01*
X09844Y-43308D02*
X09614Y-42865D01*
X09844Y-43308D02*
X10074Y-42865D01*
X09844Y-13780D02*
X09614Y-14223D01*
X09844Y-13780D02*
X10074Y-14223D01*
X56627Y-14907D02*
X56627Y-14621D01*
X56246Y-14593D01*
X56284Y-14622D01*
X56322Y-14679D01*
X56322Y-14822D01*
X56284Y-14879D01*
X56246Y-14908D01*
X56170Y-14936D01*
X55980Y-14936D01*
X55903Y-14908D01*
X55865Y-14879D01*
X55827Y-14823D01*
X55827Y-14680D01*
X55865Y-14622D01*
X55903Y-14593D01*
X55511Y-13780D02*
X55511Y-15749D01*
X54725Y-13780D02*
X56791Y-13780D01*
X54725Y-15749D02*
X56791Y-15749D01*
X55511Y-15749D02*
X55281Y-15306D01*
X55511Y-15749D02*
X55741Y-15306D01*
X55511Y-13780D02*
X55281Y-14223D01*
X55511Y-13780D02*
X55741Y-14223D01*
X11240Y-26025D02*
X11239Y-25682D01*
X11240Y-25854D02*
X12040Y-25852D01*
X11926Y-25795D01*
X11850Y-25738D01*
X11811Y-25681D01*
X11698Y-26367D02*
X11736Y-26309D01*
X11774Y-26281D01*
X11850Y-26252D01*
X11888Y-26251D01*
X11964Y-26280D01*
X12003Y-26308D01*
X12041Y-26366D01*
X12041Y-26480D01*
X12003Y-26537D01*
X11965Y-26566D01*
X11889Y-26594D01*
X11851Y-26595D01*
X11775Y-26567D01*
X11736Y-26538D01*
X11698Y-26481D01*
X11698Y-26367D01*
X11660Y-26309D01*
X11621Y-26281D01*
X11545Y-26252D01*
X11393Y-26252D01*
X11316Y-26281D01*
X11279Y-26310D01*
X11241Y-26368D01*
X11241Y-26482D01*
X11279Y-26539D01*
X11317Y-26567D01*
X11394Y-26595D01*
X11546Y-26595D01*
X11622Y-26567D01*
X11660Y-26538D01*
X11698Y-26481D01*
X11242Y-27310D02*
X11776Y-27309D01*
X11699Y-27309D02*
X11737Y-27337D01*
X11776Y-27395D01*
X11777Y-27480D01*
X11738Y-27537D01*
X11662Y-27566D01*
X11243Y-27567D01*
X11662Y-27566D02*
X11738Y-27595D01*
X11777Y-27652D01*
X11777Y-27737D01*
X11738Y-27795D01*
X11662Y-27823D01*
X11243Y-27824D01*
X11244Y-28110D02*
X11778Y-28109D01*
X11701Y-28109D02*
X11739Y-28137D01*
X11778Y-28195D01*
X11778Y-28280D01*
X11739Y-28337D01*
X11663Y-28366D01*
X11244Y-28367D01*
X11663Y-28366D02*
X11739Y-28395D01*
X11778Y-28452D01*
X11778Y-28537D01*
X11739Y-28595D01*
X11664Y-28623D01*
X11245Y-28624D01*
X12206Y-23623D02*
X12206Y-30709D01*
X12993Y-23623D02*
X10926Y-23623D01*
X12993Y-30709D02*
X10926Y-30709D01*
X12206Y-30709D02*
X11976Y-30266D01*
X12206Y-30709D02*
X12436Y-30266D01*
X12206Y-23623D02*
X11976Y-24066D01*
X12206Y-23623D02*
X12436Y-24066D01*
X11963Y-17215D02*
X12001Y-17244D01*
X12040Y-17301D01*
X12040Y-17444D01*
X12002Y-17501D01*
X11964Y-17530D01*
X11888Y-17558D01*
X11812Y-17559D01*
X11697Y-17531D01*
X11239Y-17189D01*
X11240Y-17560D01*
X12041Y-18101D02*
X12040Y-17815D01*
X11659Y-17787D01*
X11697Y-17816D01*
X11736Y-17873D01*
X11736Y-18016D01*
X11698Y-18073D01*
X11660Y-18102D01*
X11584Y-18130D01*
X11394Y-18130D01*
X11317Y-18102D01*
X11279Y-18074D01*
X11241Y-18017D01*
X11241Y-17874D01*
X11278Y-17817D01*
X11316Y-17787D01*
X11242Y-18845D02*
X11776Y-18844D01*
X11699Y-18844D02*
X11737Y-18872D01*
X11776Y-18930D01*
X11777Y-19015D01*
X11738Y-19072D01*
X11662Y-19101D01*
X11243Y-19102D01*
X11662Y-19101D02*
X11738Y-19130D01*
X11777Y-19187D01*
X11777Y-19272D01*
X11738Y-19330D01*
X11662Y-19358D01*
X11243Y-19359D01*
X11244Y-19645D02*
X11778Y-19644D01*
X11701Y-19644D02*
X11739Y-19672D01*
X11778Y-19730D01*
X11778Y-19815D01*
X11739Y-19872D01*
X11663Y-19901D01*
X11244Y-19902D01*
X11663Y-19901D02*
X11739Y-19930D01*
X11778Y-19987D01*
X11778Y-20072D01*
X11739Y-20130D01*
X11664Y-20158D01*
X11245Y-20159D01*
X12206Y-13780D02*
X12206Y-23623D01*
X12993Y-13780D02*
X10926Y-13780D01*
X12993Y-23623D02*
X10926Y-23623D01*
X12206Y-23623D02*
X11976Y-23180D01*
X12206Y-23623D02*
X12436Y-23180D01*
X12206Y-13780D02*
X11976Y-14223D01*
X12206Y-13780D02*
X12436Y-14223D01*
X32430Y-09528D02*
X32087Y-09528D01*
X32259Y-09528D02*
X32259Y-08728D01*
X32202Y-08842D01*
X32144Y-08918D01*
X32087Y-08956D01*
X32801Y-08728D02*
X32858Y-08728D01*
X32915Y-08766D01*
X32944Y-08804D01*
X32973Y-08880D01*
X33001Y-09033D01*
X33001Y-09223D01*
X32973Y-09375D01*
X32944Y-09452D01*
X32915Y-09490D01*
X32858Y-09528D01*
X32801Y-09528D01*
X32744Y-09490D01*
X32715Y-09452D01*
X32687Y-09375D01*
X32658Y-09223D01*
X32658Y-09033D01*
X32687Y-08880D01*
X32715Y-08804D01*
X32744Y-08766D01*
X32801Y-08728D01*
X33229Y-08804D02*
X33258Y-08766D01*
X33315Y-08728D01*
X33458Y-08728D01*
X33515Y-08766D01*
X33544Y-08804D01*
X33572Y-08880D01*
X33572Y-08956D01*
X33544Y-09071D01*
X33201Y-09528D01*
X33572Y-09528D01*
X34286Y-09528D02*
X34286Y-08994D01*
X34286Y-09071D02*
X34314Y-09033D01*
X34372Y-08994D01*
X34457Y-08994D01*
X34514Y-09033D01*
X34543Y-09109D01*
X34543Y-09528D01*
X34543Y-09109D02*
X34572Y-09033D01*
X34629Y-08994D01*
X34714Y-08994D01*
X34772Y-09033D01*
X34800Y-09109D01*
X34800Y-09528D01*
X35086Y-09528D02*
X35086Y-08994D01*
X35086Y-09071D02*
X35114Y-09033D01*
X35172Y-08994D01*
X35257Y-08994D01*
X35314Y-09033D01*
X35343Y-09109D01*
X35343Y-09528D01*
X35343Y-09109D02*
X35372Y-09033D01*
X35429Y-08994D01*
X35514Y-08994D01*
X35572Y-09033D01*
X35600Y-09109D01*
X35600Y-09528D01*
X13780Y-09844D02*
X53937Y-09844D01*
X13780Y-10827D02*
X13780Y-08564D01*
X53937Y-10827D02*
X53937Y-08564D01*
X53937Y-09844D02*
X53494Y-10074D01*
X53937Y-09844D02*
X53494Y-09614D01*
X13780Y-09844D02*
X14223Y-10074D01*
X13780Y-09844D02*
X14223Y-09614D01*
X34511Y-11090D02*
X34882Y-11090D01*
X34682Y-11395D01*
X34768Y-11395D01*
X34825Y-11433D01*
X34854Y-11471D01*
X34882Y-11547D01*
X34882Y-11737D01*
X34854Y-11814D01*
X34825Y-11852D01*
X34768Y-11890D01*
X34596Y-11890D01*
X34539Y-11852D01*
X34511Y-11814D01*
X35453Y-11890D02*
X35110Y-11890D01*
X35282Y-11890D02*
X35282Y-11090D01*
X35225Y-11204D01*
X35167Y-11280D01*
X35110Y-11318D01*
X36167Y-11890D02*
X36167Y-11356D01*
X36167Y-11433D02*
X36195Y-11395D01*
X36253Y-11356D01*
X36338Y-11356D01*
X36395Y-11395D01*
X36424Y-11471D01*
X36424Y-11890D01*
X36424Y-11471D02*
X36453Y-11395D01*
X36510Y-11356D01*
X36595Y-11356D01*
X36653Y-11395D01*
X36681Y-11471D01*
X36681Y-11890D01*
X36967Y-11890D02*
X36967Y-11356D01*
X36967Y-11433D02*
X36995Y-11395D01*
X37053Y-11356D01*
X37138Y-11356D01*
X37195Y-11395D01*
X37224Y-11471D01*
X37224Y-11890D01*
X37224Y-11471D02*
X37253Y-11395D01*
X37310Y-11356D01*
X37395Y-11356D01*
X37453Y-11395D01*
X37481Y-11471D01*
X37481Y-11890D01*
X29922Y-12206D02*
X42126Y-12206D01*
X29922Y-12993D02*
X29922Y-10926D01*
X42126Y-12993D02*
X42126Y-10926D01*
X42126Y-12206D02*
X41683Y-12436D01*
X42126Y-12206D02*
X41683Y-11976D01*
X29922Y-12206D02*
X30365Y-12436D01*
X29922Y-12206D02*
X30365Y-11976D01*
X22503Y-11090D02*
X22874Y-11090D01*
X22674Y-11395D01*
X22760Y-11395D01*
X22817Y-11433D01*
X22846Y-11471D01*
X22874Y-11547D01*
X22874Y-11737D01*
X22846Y-11814D01*
X22817Y-11852D01*
X22760Y-11890D01*
X22588Y-11890D01*
X22531Y-11852D01*
X22503Y-11814D01*
X23245Y-11090D02*
X23302Y-11090D01*
X23359Y-11128D01*
X23388Y-11166D01*
X23417Y-11242D01*
X23445Y-11395D01*
X23445Y-11585D01*
X23417Y-11737D01*
X23388Y-11814D01*
X23359Y-11852D01*
X23302Y-11890D01*
X23245Y-11890D01*
X23188Y-11852D01*
X23159Y-11814D01*
X23131Y-11737D01*
X23102Y-11585D01*
X23102Y-11395D01*
X23131Y-11242D01*
X23159Y-11166D01*
X23188Y-11128D01*
X23245Y-11090D01*
X24159Y-11890D02*
X24159Y-11356D01*
X24159Y-11433D02*
X24187Y-11395D01*
X24245Y-11356D01*
X24330Y-11356D01*
X24387Y-11395D01*
X24416Y-11471D01*
X24416Y-11890D01*
X24416Y-11471D02*
X24445Y-11395D01*
X24502Y-11356D01*
X24587Y-11356D01*
X24645Y-11395D01*
X24673Y-11471D01*
X24673Y-11890D01*
X24959Y-11890D02*
X24959Y-11356D01*
X24959Y-11433D02*
X24987Y-11395D01*
X25045Y-11356D01*
X25130Y-11356D01*
X25187Y-11395D01*
X25216Y-11471D01*
X25216Y-11890D01*
X25216Y-11471D02*
X25245Y-11395D01*
X25302Y-11356D01*
X25387Y-11356D01*
X25445Y-11395D01*
X25473Y-11471D01*
X25473Y-11890D01*
X18111Y-12206D02*
X29922Y-12206D01*
X18111Y-12993D02*
X18111Y-10926D01*
X29922Y-12993D02*
X29922Y-10926D01*
X29922Y-12206D02*
X29479Y-12436D01*
X29922Y-12206D02*
X29479Y-11976D01*
X18111Y-12206D02*
X18554Y-12436D01*
X18111Y-12206D02*
X18554Y-11976D01*
G54D12*
X42126Y-15749D02*
X29922Y-15749D01*
X42126Y-13780D02*
X42126Y-15749D01*
X53937Y-13780D02*
X42126Y-13780D01*
X29922Y-13780D02*
X29922Y-15749D01*
X18111Y-13780D02*
X29922Y-13780D01*
X18111Y-21654D02*
X18111Y-13780D01*
X53937Y-26772D02*
X53937Y-13780D01*
X52363Y-26772D02*
X53937Y-26772D01*
X48819Y-37008D02*
X48819Y-43308D01*
X37796Y-43308D02*
X48819Y-43308D01*
X23623Y-43308D02*
X33859Y-43308D01*
G54D11*
X14803Y-11890D02*
X14460Y-11890D01*
X14632Y-11890D02*
X14632Y-11090D01*
X14575Y-11204D01*
X14517Y-11280D01*
X14460Y-11318D01*
X15374Y-11890D02*
X15031Y-11890D01*
X15203Y-11890D02*
X15203Y-11090D01*
X15146Y-11204D01*
X15088Y-11280D01*
X15031Y-11318D01*
X16088Y-11890D02*
X16088Y-11356D01*
X16088Y-11433D02*
X16116Y-11395D01*
X16174Y-11356D01*
X16259Y-11356D01*
X16316Y-11395D01*
X16345Y-11471D01*
X16345Y-11890D01*
X16345Y-11471D02*
X16374Y-11395D01*
X16431Y-11356D01*
X16516Y-11356D01*
X16574Y-11395D01*
X16602Y-11471D01*
X16602Y-11890D01*
X16888Y-11890D02*
X16888Y-11356D01*
X16888Y-11433D02*
X16916Y-11395D01*
X16974Y-11356D01*
X17059Y-11356D01*
X17116Y-11395D01*
X17145Y-11471D01*
X17145Y-11890D01*
X17145Y-11471D02*
X17174Y-11395D01*
X17231Y-11356D01*
X17316Y-11356D01*
X17374Y-11395D01*
X17402Y-11471D01*
X17402Y-11890D01*
X13780Y-12206D02*
X18111Y-12206D01*
X13780Y-12993D02*
X13780Y-10926D01*
X18111Y-12993D02*
X18111Y-10926D01*
X18111Y-12206D02*
X17668Y-12436D01*
X18111Y-12206D02*
X17668Y-11976D01*
X13780Y-12206D02*
X14223Y-12436D01*
X13780Y-12206D02*
X14223Y-11976D01*
G54D12*
X33859Y-43308D02*
X37796Y-43308D01*
X23623Y-43308D02*
X13780Y-30709D01*
X13780Y-23623D02*
X13780Y-30709D01*
X18111Y-23623D02*
X13780Y-23623D01*
X18111Y-21654D02*
X18111Y-23623D01*
G54D13*
X49088Y-19823D02*
X46188Y-19823D01*
X46188Y-14823D02*
X49088Y-14823D01*
X49088Y-19823D02*
X49088Y-14823D01*
X46188Y-14823D02*
X46188Y-19823D01*
X47388Y-14823D02*
X47388Y-15323D01*
X47388Y-15323D02*
X47888Y-15323D01*
X47888Y-15323D02*
X47888Y-14823D01*
G54D14*
X34977Y-34671D02*
X34977Y-35571D01*
X36677Y-35571D02*
X36677Y-34671D01*
X34977Y-36871D02*
X34977Y-37771D01*
X36677Y-37771D02*
X36677Y-36871D01*
X34977Y-37771D02*
X36677Y-37771D01*
X36677Y-34671D02*
X34977Y-34671D01*
G54D13*
X46601Y-33918D02*
X46600Y-33927D01*
X46597Y-33937D01*
X46592Y-33945D01*
X46586Y-33953D01*
X46578Y-33959D01*
X46570Y-33964D01*
X46561Y-33966D01*
X46551Y-33967D01*
X46542Y-33967D01*
X46533Y-33964D01*
X46524Y-33959D01*
X46517Y-33953D01*
X46510Y-33946D01*
X46506Y-33937D01*
X46503Y-33928D01*
X46502Y-33918D01*
X46502Y-33909D01*
X46505Y-33900D01*
X46509Y-33891D01*
X46516Y-33884D01*
X46523Y-33877D01*
X46531Y-33873D01*
X46541Y-33870D01*
X46550Y-33869D01*
X46559Y-33869D01*
X46569Y-33872D01*
X46577Y-33876D01*
X46585Y-33882D01*
X46591Y-33890D01*
X46596Y-33898D01*
X46599Y-33907D01*
X46600Y-33917D01*
X46601Y-33918D01*
X46551Y-33468D02*
X46551Y-33868D01*
X46551Y-33868D02*
X47151Y-33868D01*
X47151Y-33868D02*
X47151Y-33468D01*
X47151Y-33068D02*
X47151Y-32668D01*
X47151Y-32668D02*
X46551Y-32668D01*
X46551Y-32668D02*
X46551Y-33068D01*
X18298Y-31590D02*
X18297Y-31599D01*
X18294Y-31609D01*
X18289Y-31617D01*
X18283Y-31625D01*
X18275Y-31631D01*
X18267Y-31636D01*
X18258Y-31638D01*
X18248Y-31639D01*
X18239Y-31639D01*
X18230Y-31636D01*
X18221Y-31631D01*
X18214Y-31625D01*
X18207Y-31618D01*
X18203Y-31609D01*
X18200Y-31600D01*
X18199Y-31590D01*
X18199Y-31581D01*
X18202Y-31572D01*
X18206Y-31563D01*
X18213Y-31556D01*
X18220Y-31549D01*
X18228Y-31545D01*
X18238Y-31542D01*
X18247Y-31541D01*
X18256Y-31541D01*
X18266Y-31544D01*
X18274Y-31548D01*
X18282Y-31554D01*
X18288Y-31562D01*
X18293Y-31570D01*
X18296Y-31579D01*
X18297Y-31589D01*
X18298Y-31590D01*
X18698Y-31590D02*
X18298Y-31590D01*
X18298Y-31590D02*
X18298Y-32190D01*
X18298Y-32190D02*
X18698Y-32190D01*
X19098Y-32190D02*
X19498Y-32190D01*
X19498Y-32190D02*
X19498Y-31590D01*
X19498Y-31590D02*
X19098Y-31590D01*
X40499Y-36084D02*
X40498Y-36093D01*
X40495Y-36103D01*
X40490Y-36111D01*
X40484Y-36119D01*
X40476Y-36125D01*
X40468Y-36130D01*
X40459Y-36132D01*
X40449Y-36133D01*
X40440Y-36133D01*
X40431Y-36130D01*
X40422Y-36125D01*
X40415Y-36119D01*
X40408Y-36112D01*
X40404Y-36103D01*
X40401Y-36094D01*
X40400Y-36084D01*
X40400Y-36075D01*
X40403Y-36066D01*
X40407Y-36057D01*
X40414Y-36050D01*
X40421Y-36043D01*
X40429Y-36039D01*
X40439Y-36036D01*
X40448Y-36035D01*
X40457Y-36035D01*
X40467Y-36038D01*
X40475Y-36042D01*
X40483Y-36048D01*
X40489Y-36056D01*
X40494Y-36064D01*
X40497Y-36073D01*
X40498Y-36083D01*
X40499Y-36084D01*
X40449Y-35634D02*
X40449Y-36034D01*
X40449Y-36034D02*
X41049Y-36034D01*
X41049Y-36034D02*
X41049Y-35634D01*
X41049Y-35234D02*
X41049Y-34834D01*
X41049Y-34834D02*
X40449Y-34834D01*
X40449Y-34834D02*
X40449Y-35234D01*
X39424Y-36474D02*
X39424Y-35574D01*
X39424Y-35574D02*
X38924Y-35574D01*
X38924Y-35574D02*
X38924Y-36474D01*
X38924Y-36474D02*
X39424Y-36474D01*
X44739Y-15805D02*
X44739Y-14905D01*
X44739Y-14905D02*
X44239Y-14905D01*
X44239Y-14905D02*
X44239Y-15805D01*
X44239Y-15805D02*
X44739Y-15805D01*
X44936Y-30175D02*
X44936Y-29275D01*
X44936Y-29275D02*
X44436Y-29275D01*
X44436Y-29275D02*
X44436Y-30175D01*
X44436Y-30175D02*
X44936Y-30175D01*
X30850Y-28991D02*
X31750Y-28991D01*
X31750Y-28991D02*
X31750Y-28491D01*
X31750Y-28491D02*
X30850Y-28491D01*
X30850Y-28491D02*
X30850Y-28991D01*
X19632Y-18842D02*
X19632Y-19742D01*
X19632Y-19742D02*
X20132Y-19742D01*
X20132Y-19742D02*
X20132Y-18842D01*
X20132Y-18842D02*
X19632Y-18842D01*
X21207Y-29865D02*
X21207Y-30765D01*
X21207Y-30765D02*
X21707Y-30765D01*
X21707Y-30765D02*
X21707Y-29865D01*
X21707Y-29865D02*
X21207Y-29865D01*
X31637Y-23676D02*
X32537Y-23676D01*
X32537Y-23676D02*
X32537Y-23176D01*
X32537Y-23176D02*
X31637Y-23176D01*
X31637Y-23176D02*
X31637Y-23676D01*
X39621Y-29387D02*
X39621Y-28487D01*
X39621Y-28487D02*
X39121Y-28487D01*
X39121Y-28487D02*
X39121Y-29387D01*
X39121Y-29387D02*
X39621Y-29387D01*
X25644Y-22498D02*
X25644Y-21598D01*
X25644Y-21598D02*
X25144Y-21598D01*
X25144Y-21598D02*
X25144Y-22498D01*
X25144Y-22498D02*
X25644Y-22498D01*
X27219Y-33521D02*
X27219Y-32621D01*
X27219Y-32621D02*
X26719Y-32621D01*
X26719Y-32621D02*
X26719Y-33521D01*
X26719Y-33521D02*
X27219Y-33521D01*
G54D15*
X48810Y-25669D02*
X49636Y-25669D01*
X48810Y-25787D02*
X49636Y-25787D01*
G54D16*
X49606Y-26299D02*
X49606Y-24489D01*
G54D14*
X48839Y-24489D02*
X48839Y-26299D01*
G54D15*
X49213Y-25668D02*
X49508Y-25256D01*
X49508Y-25256D02*
X48938Y-25256D01*
X48938Y-25256D02*
X49213Y-25668D01*
X17245Y-27353D02*
X17245Y-28179D01*
X17127Y-27353D02*
X17127Y-28179D01*
G54D16*
X16615Y-28149D02*
X18425Y-28149D01*
G54D14*
X18425Y-27382D02*
X16615Y-27382D01*
G54D15*
X17246Y-27756D02*
X17658Y-28051D01*
X17658Y-28051D02*
X17658Y-27481D01*
X17658Y-27481D02*
X17246Y-27756D01*
X16330Y-25669D02*
X17156Y-25669D01*
X16330Y-25787D02*
X17156Y-25787D01*
G54D16*
X17126Y-26299D02*
X17126Y-24489D01*
G54D14*
X16359Y-24489D02*
X16359Y-26299D01*
G54D15*
X16733Y-25668D02*
X17028Y-25256D01*
X17028Y-25256D02*
X16458Y-25256D01*
X16458Y-25256D02*
X16733Y-25668D01*
X23898Y-38986D02*
X23898Y-38160D01*
X24016Y-38986D02*
X24016Y-38160D01*
G54D16*
X24528Y-38190D02*
X22718Y-38190D01*
G54D14*
X22718Y-38957D02*
X24528Y-38957D01*
G54D15*
X23897Y-38583D02*
X23485Y-38288D01*
X23485Y-38288D02*
X23485Y-38858D01*
X23485Y-38858D02*
X23897Y-38583D01*
X46448Y-41024D02*
X47274Y-41024D01*
X46448Y-41142D02*
X47274Y-41142D01*
G54D16*
X47244Y-41654D02*
X47244Y-39844D01*
G54D14*
X46477Y-39844D02*
X46477Y-41654D01*
G54D15*
X46851Y-41023D02*
X47146Y-40611D01*
X47146Y-40611D02*
X46576Y-40611D01*
X46576Y-40611D02*
X46851Y-41023D01*
X42795Y-40364D02*
X42795Y-39538D01*
X42913Y-40364D02*
X42913Y-39538D01*
G54D16*
X43425Y-39568D02*
X41615Y-39568D01*
G54D14*
X41615Y-40335D02*
X43425Y-40335D01*
G54D15*
X42794Y-39961D02*
X42382Y-39666D01*
X42382Y-39666D02*
X42382Y-40236D01*
X42382Y-40236D02*
X42794Y-39961D01*
X29322Y-32362D02*
X30148Y-32362D01*
X29322Y-32480D02*
X30148Y-32480D01*
G54D16*
X30118Y-32992D02*
X30118Y-31182D01*
G54D14*
X29351Y-31182D02*
X29351Y-32992D01*
G54D15*
X29725Y-32361D02*
X30020Y-31949D01*
X30020Y-31949D02*
X29450Y-31949D01*
X29450Y-31949D02*
X29725Y-32361D01*
X31094Y-32362D02*
X31920Y-32362D01*
X31094Y-32480D02*
X31920Y-32480D01*
G54D16*
X31890Y-32992D02*
X31890Y-31182D01*
G54D14*
X31123Y-31182D02*
X31123Y-32992D01*
G54D15*
X31497Y-32361D02*
X31792Y-31949D01*
X31792Y-31949D02*
X31222Y-31949D01*
X31222Y-31949D02*
X31497Y-32361D01*
X23898Y-40758D02*
X23898Y-39932D01*
X24016Y-40758D02*
X24016Y-39932D01*
G54D16*
X24528Y-39962D02*
X22718Y-39962D01*
G54D14*
X22718Y-40729D02*
X24528Y-40729D01*
G54D15*
X23897Y-40355D02*
X23485Y-40060D01*
X23485Y-40060D02*
X23485Y-40630D01*
X23485Y-40630D02*
X23897Y-40355D01*
X28928Y-39449D02*
X29754Y-39449D01*
X28928Y-39567D02*
X29754Y-39567D01*
G54D16*
X29724Y-40079D02*
X29724Y-38269D01*
G54D14*
X28957Y-38269D02*
X28957Y-40079D01*
G54D15*
X29331Y-39448D02*
X29626Y-39036D01*
X29626Y-39036D02*
X29056Y-39036D01*
X29056Y-39036D02*
X29331Y-39448D01*
X38199Y-35749D02*
X37373Y-35749D01*
X38199Y-35631D02*
X37373Y-35631D01*
G54D16*
X37403Y-35119D02*
X37403Y-36929D01*
G54D14*
X38170Y-36929D02*
X38170Y-35119D01*
G54D15*
X37796Y-35750D02*
X37501Y-36162D01*
X37501Y-36162D02*
X38071Y-36162D01*
X38071Y-36162D02*
X37796Y-35750D01*
X48041Y-27678D02*
X47215Y-27678D01*
X48041Y-27560D02*
X47215Y-27560D01*
G54D16*
X47245Y-27048D02*
X47245Y-28858D01*
G54D14*
X48012Y-28858D02*
X48012Y-27048D01*
G54D15*
X47638Y-27679D02*
X47343Y-28091D01*
X47343Y-28091D02*
X47913Y-28091D01*
X47913Y-28091D02*
X47638Y-27679D01*
X17245Y-29125D02*
X17245Y-29951D01*
X17127Y-29125D02*
X17127Y-29951D01*
G54D16*
X16615Y-29921D02*
X18425Y-29921D01*
G54D14*
X18425Y-29154D02*
X16615Y-29154D01*
G54D15*
X17246Y-29528D02*
X17658Y-29823D01*
X17658Y-29823D02*
X17658Y-29253D01*
X17658Y-29253D02*
X17246Y-29528D01*
X18229Y-30503D02*
X18229Y-31329D01*
X18111Y-30503D02*
X18111Y-31329D01*
G54D16*
X17599Y-31299D02*
X19409Y-31299D01*
G54D14*
X19409Y-30532D02*
X17599Y-30532D01*
G54D15*
X18230Y-30906D02*
X18642Y-31201D01*
X18642Y-31201D02*
X18642Y-30631D01*
X18642Y-30631D02*
X18230Y-30906D01*
X47235Y-30984D02*
X48061Y-30984D01*
X47235Y-31102D02*
X48061Y-31102D01*
G54D16*
X48031Y-31614D02*
X48031Y-29804D01*
G54D14*
X47264Y-29804D02*
X47264Y-31614D01*
G54D15*
X47638Y-30983D02*
X47933Y-30571D01*
X47933Y-30571D02*
X47363Y-30571D01*
X47363Y-30571D02*
X47638Y-30983D01*
X45679Y-32206D02*
X44853Y-32206D01*
X45679Y-32088D02*
X44853Y-32088D01*
G54D16*
X44883Y-31576D02*
X44883Y-33386D01*
G54D14*
X45650Y-33386D02*
X45650Y-31576D01*
G54D15*
X45276Y-32207D02*
X44981Y-32619D01*
X44981Y-32619D02*
X45551Y-32619D01*
X45551Y-32619D02*
X45276Y-32207D01*
X30700Y-39449D02*
X31526Y-39449D01*
X30700Y-39567D02*
X31526Y-39567D01*
G54D16*
X31496Y-40079D02*
X31496Y-38269D01*
G54D14*
X30729Y-38269D02*
X30729Y-40079D01*
G54D15*
X31103Y-39448D02*
X31398Y-39036D01*
X31398Y-39036D02*
X30828Y-39036D01*
X30828Y-39036D02*
X31103Y-39448D01*
X34234Y-35136D02*
X34234Y-34511D01*
X34234Y-34511D02*
X34359Y-34511D01*
X34359Y-35136D02*
X34359Y-34511D01*
X34234Y-35136D02*
X34359Y-35136D01*
X33797Y-38369D02*
X33797Y-36869D01*
X33797Y-36869D02*
X33921Y-36869D01*
X33921Y-38369D02*
X33921Y-36869D01*
X33797Y-38369D02*
X33921Y-38369D01*
X32985Y-35710D02*
X32985Y-34886D01*
X32985Y-34886D02*
X34725Y-34886D01*
X34725Y-35710D02*
X34725Y-34886D01*
X32985Y-35710D02*
X34725Y-35710D01*
X33360Y-35136D02*
X33360Y-34511D01*
X33360Y-34511D02*
X33485Y-34511D01*
X33485Y-35136D02*
X33485Y-34511D01*
X33360Y-35136D02*
X33485Y-35136D01*
X33584Y-36496D02*
X33584Y-35946D01*
X33584Y-35946D02*
X34134Y-35946D01*
X34134Y-36496D02*
X34134Y-35946D01*
X33584Y-36496D02*
X34134Y-36496D01*
X32984Y-35846D02*
X32984Y-35659D01*
X32984Y-35659D02*
X34734Y-35659D01*
X34734Y-35846D02*
X34734Y-35659D01*
X32984Y-35846D02*
X34734Y-35846D01*
G54D14*
X34734Y-37556D02*
X34734Y-34886D01*
X32984Y-37556D02*
X32984Y-34886D01*
G54D17*
X34421Y-36215D02*
X34421Y-35965D01*
G54D14*
X34546Y-36090D02*
X34296Y-36090D01*
X34734Y-37556D02*
X32984Y-37556D01*
X34734Y-34886D02*
X32984Y-34886D01*
G54D15*
X41034Y-36776D02*
X41034Y-37071D01*
X41034Y-37071D02*
X40464Y-37071D01*
X40464Y-36776D02*
X40464Y-37071D01*
X41034Y-36776D02*
X40464Y-36776D01*
X41034Y-37345D02*
X41034Y-37640D01*
X41034Y-37640D02*
X40464Y-37640D01*
X40464Y-37345D02*
X40464Y-37640D01*
X41034Y-37345D02*
X40464Y-37345D01*
X40936Y-37143D02*
X40936Y-37267D01*
X40936Y-37267D02*
X40562Y-37267D01*
X40562Y-37143D02*
X40562Y-37267D01*
X40936Y-37143D02*
X40562Y-37143D01*
G54D18*
X40490Y-37055D02*
X40490Y-37355D01*
X41008Y-37065D02*
X41008Y-37355D01*
G54D13*
X46781Y-16866D02*
X47267Y-16866D01*
X47324Y-16894D01*
X47352Y-16923D01*
X47381Y-16980D01*
X47381Y-17094D01*
X47352Y-17152D01*
X47324Y-17180D01*
X47267Y-17209D01*
X46781Y-17209D01*
X46781Y-17781D02*
X46781Y-17495D01*
X47067Y-17466D01*
X47038Y-17495D01*
X47009Y-17552D01*
X47009Y-17695D01*
X47038Y-17752D01*
X47067Y-17781D01*
X47124Y-17809D01*
X47267Y-17809D01*
X47324Y-17781D01*
X47352Y-17752D01*
X47381Y-17695D01*
X47381Y-17552D01*
X47352Y-17495D01*
X47324Y-17466D01*
X47781Y-15442D02*
X47781Y-15776D01*
X48381Y-15561D01*
X47981Y-16180D02*
X48381Y-16180D01*
X47752Y-16061D02*
X48181Y-15942D01*
X48181Y-16252D01*
X48381Y-16442D02*
X47781Y-16442D01*
X48067Y-16442D02*
X48067Y-16728D01*
X48381Y-16728D02*
X47781Y-16728D01*
X48324Y-17252D02*
X48352Y-17228D01*
X48381Y-17157D01*
X48381Y-17109D01*
X48352Y-17037D01*
X48295Y-16990D01*
X48238Y-16966D01*
X48124Y-16942D01*
X48038Y-16942D01*
X47924Y-16966D01*
X47867Y-16990D01*
X47809Y-17037D01*
X47781Y-17109D01*
X47781Y-17157D01*
X47809Y-17228D01*
X47838Y-17252D01*
X47838Y-17442D02*
X47809Y-17466D01*
X47781Y-17514D01*
X47781Y-17633D01*
X47809Y-17680D01*
X47838Y-17704D01*
X47895Y-17728D01*
X47952Y-17728D01*
X48038Y-17704D01*
X48381Y-17418D01*
X48381Y-17728D01*
X47981Y-18156D02*
X48381Y-18156D01*
X47752Y-18037D02*
X48181Y-17918D01*
X48181Y-18228D01*
X47781Y-18513D02*
X47781Y-18561D01*
X47809Y-18609D01*
X47838Y-18632D01*
X47895Y-18656D01*
X48009Y-18680D01*
X48152Y-18680D01*
X48267Y-18656D01*
X48324Y-18632D01*
X48352Y-18609D01*
X48381Y-18561D01*
X48381Y-18513D01*
X48352Y-18466D01*
X48324Y-18442D01*
X48267Y-18418D01*
X48152Y-18394D01*
X48009Y-18394D01*
X47895Y-18418D01*
X47838Y-18442D01*
X47809Y-18466D01*
X47781Y-18513D01*
X48381Y-18894D02*
X47781Y-18894D01*
X47781Y-19013D01*
X47809Y-19085D01*
X47867Y-19132D01*
X47924Y-19156D01*
X48038Y-19180D01*
X48124Y-19180D01*
X48238Y-19156D01*
X48295Y-19132D01*
X48352Y-19085D01*
X48381Y-19013D01*
X48381Y-18894D01*
G54D10*
X35885Y-36663D02*
X36001Y-36496D01*
X36085Y-36663D02*
X36085Y-36313D01*
X35951Y-36313D01*
X35918Y-36329D01*
X35901Y-36346D01*
X35885Y-36379D01*
X35885Y-36429D01*
X35901Y-36463D01*
X35918Y-36479D01*
X35951Y-36496D01*
X36085Y-36496D01*
X35751Y-36346D02*
X35735Y-36329D01*
X35701Y-36313D01*
X35618Y-36313D01*
X35585Y-36329D01*
X35568Y-36346D01*
X35551Y-36379D01*
X35551Y-36413D01*
X35568Y-36463D01*
X35768Y-36663D01*
X35551Y-36663D01*
X36809Y-36013D02*
X37009Y-36013D01*
X36909Y-36013D02*
X36909Y-35663D01*
X36943Y-35713D01*
X36976Y-35746D01*
X37009Y-35763D01*
X36593Y-35663D02*
X36560Y-35663D01*
X36526Y-35679D01*
X36510Y-35696D01*
X36493Y-35729D01*
X36476Y-35796D01*
X36476Y-35879D01*
X36493Y-35946D01*
X36510Y-35979D01*
X36526Y-35996D01*
X36560Y-36013D01*
X36593Y-36013D01*
X36626Y-35996D01*
X36643Y-35979D01*
X36660Y-35946D01*
X36676Y-35879D01*
X36676Y-35796D01*
X36660Y-35729D01*
X36643Y-35696D01*
X36626Y-35679D01*
X36593Y-35663D01*
X36260Y-35663D02*
X36227Y-35663D01*
X36193Y-35679D01*
X36177Y-35696D01*
X36160Y-35729D01*
X36143Y-35796D01*
X36143Y-35879D01*
X36160Y-35946D01*
X36177Y-35979D01*
X36193Y-35996D01*
X36227Y-36013D01*
X36260Y-36013D01*
X36293Y-35996D01*
X36310Y-35979D01*
X36327Y-35946D01*
X36343Y-35879D01*
X36343Y-35796D01*
X36327Y-35729D01*
X36310Y-35696D01*
X36293Y-35679D01*
X36260Y-35663D01*
X36010Y-36013D02*
X35927Y-36013D01*
X35927Y-35946D01*
X35960Y-35929D01*
X35994Y-35896D01*
X36010Y-35846D01*
X36010Y-35763D01*
X35994Y-35713D01*
X35960Y-35679D01*
X35910Y-35663D01*
X35844Y-35663D01*
X35794Y-35679D01*
X35760Y-35713D01*
X35744Y-35763D01*
X35744Y-35846D01*
X35760Y-35896D01*
X35794Y-35929D01*
X35827Y-35946D01*
X35827Y-36013D01*
X35744Y-36013D01*
X35344Y-35646D02*
X35644Y-36096D01*
X35043Y-36013D02*
X35243Y-36013D01*
X35143Y-36013D02*
X35143Y-35663D01*
X35177Y-35713D01*
X35210Y-35746D01*
X35243Y-35763D01*
X34927Y-35663D02*
X34844Y-36013D01*
X34777Y-35763D01*
X34710Y-36013D01*
X34627Y-35663D01*
G54D13*
X46952Y-33226D02*
X46833Y-33143D01*
X46952Y-33084D02*
X46702Y-33084D01*
X46702Y-33179D01*
X46714Y-33203D01*
X46726Y-33214D01*
X46750Y-33226D01*
X46786Y-33226D01*
X46809Y-33214D01*
X46821Y-33203D01*
X46833Y-33179D01*
X46833Y-33084D01*
X46702Y-33441D02*
X46702Y-33393D01*
X46714Y-33369D01*
X46726Y-33357D01*
X46762Y-33334D01*
X46809Y-33322D01*
X46905Y-33322D01*
X46928Y-33334D01*
X46940Y-33345D01*
X46952Y-33369D01*
X46952Y-33417D01*
X46940Y-33441D01*
X46928Y-33453D01*
X46905Y-33464D01*
X46845Y-33464D01*
X46821Y-33453D01*
X46809Y-33441D01*
X46797Y-33417D01*
X46797Y-33369D01*
X46809Y-33345D01*
X46821Y-33334D01*
X46845Y-33322D01*
X18940Y-31991D02*
X19023Y-31872D01*
X19082Y-31991D02*
X19082Y-31741D01*
X18987Y-31741D01*
X18963Y-31753D01*
X18952Y-31765D01*
X18940Y-31789D01*
X18940Y-31825D01*
X18952Y-31848D01*
X18963Y-31860D01*
X18987Y-31872D01*
X19082Y-31872D01*
X18713Y-31741D02*
X18832Y-31741D01*
X18844Y-31860D01*
X18832Y-31848D01*
X18809Y-31836D01*
X18749Y-31836D01*
X18725Y-31848D01*
X18713Y-31860D01*
X18702Y-31884D01*
X18702Y-31944D01*
X18713Y-31967D01*
X18725Y-31979D01*
X18749Y-31991D01*
X18809Y-31991D01*
X18832Y-31979D01*
X18844Y-31967D01*
X40850Y-35392D02*
X40731Y-35309D01*
X40850Y-35250D02*
X40600Y-35250D01*
X40600Y-35345D01*
X40612Y-35369D01*
X40624Y-35380D01*
X40648Y-35392D01*
X40684Y-35392D01*
X40707Y-35380D01*
X40719Y-35369D01*
X40731Y-35345D01*
X40731Y-35250D01*
X40684Y-35607D02*
X40850Y-35607D01*
X40588Y-35547D02*
X40767Y-35488D01*
X40767Y-35642D01*
G54D19*
X39261Y-35909D02*
X39274Y-35900D01*
X39287Y-35874D01*
X39287Y-35857D01*
X39274Y-35832D01*
X39247Y-35814D01*
X39221Y-35806D01*
X39167Y-35797D01*
X39127Y-35797D01*
X39074Y-35806D01*
X39047Y-35814D01*
X39021Y-35832D01*
X39007Y-35857D01*
X39007Y-35874D01*
X39021Y-35900D01*
X39034Y-35909D01*
X39287Y-36080D02*
X39287Y-35977D01*
X39287Y-36029D02*
X39007Y-36029D01*
X39047Y-36012D01*
X39074Y-35994D01*
X39087Y-35977D01*
X39101Y-36234D02*
X39287Y-36234D01*
X38994Y-36191D02*
X39194Y-36148D01*
X39194Y-36260D01*
X44576Y-15240D02*
X44589Y-15231D01*
X44602Y-15205D01*
X44602Y-15188D01*
X44589Y-15163D01*
X44562Y-15145D01*
X44536Y-15137D01*
X44482Y-15128D01*
X44442Y-15128D01*
X44389Y-15137D01*
X44362Y-15145D01*
X44336Y-15163D01*
X44322Y-15188D01*
X44322Y-15205D01*
X44336Y-15231D01*
X44349Y-15240D01*
X44602Y-15411D02*
X44602Y-15308D01*
X44602Y-15360D02*
X44322Y-15360D01*
X44362Y-15343D01*
X44389Y-15325D01*
X44402Y-15308D01*
X44322Y-15471D02*
X44322Y-15582D01*
X44429Y-15522D01*
X44429Y-15548D01*
X44442Y-15565D01*
X44456Y-15574D01*
X44482Y-15582D01*
X44549Y-15582D01*
X44576Y-15574D01*
X44589Y-15565D01*
X44602Y-15548D01*
X44602Y-15496D01*
X44589Y-15479D01*
X44576Y-15471D01*
X44773Y-29610D02*
X44786Y-29601D01*
X44799Y-29575D01*
X44799Y-29558D01*
X44786Y-29533D01*
X44759Y-29515D01*
X44733Y-29507D01*
X44679Y-29498D01*
X44639Y-29498D01*
X44586Y-29507D01*
X44559Y-29515D01*
X44533Y-29533D01*
X44519Y-29558D01*
X44519Y-29575D01*
X44533Y-29601D01*
X44546Y-29610D01*
X44799Y-29781D02*
X44799Y-29678D01*
X44799Y-29730D02*
X44519Y-29730D01*
X44559Y-29713D01*
X44586Y-29695D01*
X44599Y-29678D01*
X44546Y-29849D02*
X44533Y-29858D01*
X44519Y-29875D01*
X44519Y-29918D01*
X44533Y-29935D01*
X44546Y-29944D01*
X44573Y-29952D01*
X44599Y-29952D01*
X44639Y-29944D01*
X44799Y-29841D01*
X44799Y-29952D01*
X31415Y-28828D02*
X31424Y-28841D01*
X31450Y-28854D01*
X31467Y-28854D01*
X31492Y-28841D01*
X31510Y-28814D01*
X31518Y-28788D01*
X31527Y-28734D01*
X31527Y-28694D01*
X31518Y-28641D01*
X31510Y-28614D01*
X31492Y-28588D01*
X31467Y-28574D01*
X31450Y-28574D01*
X31424Y-28588D01*
X31415Y-28601D01*
X31244Y-28854D02*
X31347Y-28854D01*
X31295Y-28854D02*
X31295Y-28574D01*
X31312Y-28614D01*
X31330Y-28641D01*
X31347Y-28654D01*
X31073Y-28854D02*
X31176Y-28854D01*
X31124Y-28854D02*
X31124Y-28574D01*
X31141Y-28614D01*
X31159Y-28641D01*
X31176Y-28654D01*
X19969Y-19263D02*
X19982Y-19254D01*
X19995Y-19228D01*
X19995Y-19211D01*
X19982Y-19186D01*
X19955Y-19168D01*
X19929Y-19160D01*
X19875Y-19151D01*
X19835Y-19151D01*
X19782Y-19160D01*
X19755Y-19168D01*
X19729Y-19186D01*
X19715Y-19211D01*
X19715Y-19228D01*
X19729Y-19254D01*
X19742Y-19263D01*
X19715Y-19426D02*
X19715Y-19340D01*
X19849Y-19331D01*
X19835Y-19340D01*
X19822Y-19357D01*
X19822Y-19400D01*
X19835Y-19417D01*
X19849Y-19426D01*
X19875Y-19434D01*
X19942Y-19434D01*
X19969Y-19426D01*
X19982Y-19417D01*
X19995Y-19400D01*
X19995Y-19357D01*
X19982Y-19340D01*
X19969Y-19331D01*
X21544Y-30286D02*
X21557Y-30277D01*
X21570Y-30251D01*
X21570Y-30234D01*
X21557Y-30209D01*
X21530Y-30191D01*
X21504Y-30183D01*
X21450Y-30174D01*
X21410Y-30174D01*
X21357Y-30183D01*
X21330Y-30191D01*
X21304Y-30209D01*
X21290Y-30234D01*
X21290Y-30251D01*
X21304Y-30277D01*
X21317Y-30286D01*
X21290Y-30440D02*
X21290Y-30406D01*
X21304Y-30389D01*
X21317Y-30380D01*
X21357Y-30363D01*
X21410Y-30354D01*
X21517Y-30354D01*
X21544Y-30363D01*
X21557Y-30371D01*
X21570Y-30389D01*
X21570Y-30423D01*
X21557Y-30440D01*
X21544Y-30449D01*
X21517Y-30457D01*
X21450Y-30457D01*
X21424Y-30449D01*
X21410Y-30440D01*
X21397Y-30423D01*
X21397Y-30389D01*
X21410Y-30371D01*
X21424Y-30363D01*
X21450Y-30354D01*
X32116Y-23513D02*
X32125Y-23526D01*
X32151Y-23539D01*
X32168Y-23539D01*
X32193Y-23526D01*
X32211Y-23499D01*
X32219Y-23473D01*
X32228Y-23419D01*
X32228Y-23379D01*
X32219Y-23326D01*
X32211Y-23299D01*
X32193Y-23273D01*
X32168Y-23259D01*
X32151Y-23259D01*
X32125Y-23273D01*
X32116Y-23286D01*
X32056Y-23259D02*
X31936Y-23259D01*
X32013Y-23539D01*
X39458Y-28908D02*
X39471Y-28899D01*
X39484Y-28873D01*
X39484Y-28856D01*
X39471Y-28831D01*
X39444Y-28813D01*
X39418Y-28805D01*
X39364Y-28796D01*
X39324Y-28796D01*
X39271Y-28805D01*
X39244Y-28813D01*
X39218Y-28831D01*
X39204Y-28856D01*
X39204Y-28873D01*
X39218Y-28899D01*
X39231Y-28908D01*
X39324Y-29011D02*
X39311Y-28993D01*
X39298Y-28985D01*
X39271Y-28976D01*
X39258Y-28976D01*
X39231Y-28985D01*
X39218Y-28993D01*
X39204Y-29011D01*
X39204Y-29045D01*
X39218Y-29062D01*
X39231Y-29071D01*
X39258Y-29079D01*
X39271Y-29079D01*
X39298Y-29071D01*
X39311Y-29062D01*
X39324Y-29045D01*
X39324Y-29011D01*
X39338Y-28993D01*
X39351Y-28985D01*
X39378Y-28976D01*
X39431Y-28976D01*
X39458Y-28985D01*
X39471Y-28993D01*
X39484Y-29011D01*
X39484Y-29045D01*
X39471Y-29062D01*
X39458Y-29071D01*
X39431Y-29079D01*
X39378Y-29079D01*
X39351Y-29071D01*
X39338Y-29062D01*
X39324Y-29045D01*
X25481Y-22019D02*
X25494Y-22010D01*
X25507Y-21984D01*
X25507Y-21967D01*
X25494Y-21942D01*
X25467Y-21924D01*
X25441Y-21916D01*
X25387Y-21907D01*
X25347Y-21907D01*
X25294Y-21916D01*
X25267Y-21924D01*
X25241Y-21942D01*
X25227Y-21967D01*
X25227Y-21984D01*
X25241Y-22010D01*
X25254Y-22019D01*
X25507Y-22104D02*
X25507Y-22139D01*
X25494Y-22156D01*
X25481Y-22164D01*
X25441Y-22182D01*
X25387Y-22190D01*
X25281Y-22190D01*
X25254Y-22182D01*
X25241Y-22173D01*
X25227Y-22156D01*
X25227Y-22122D01*
X25241Y-22104D01*
X25254Y-22096D01*
X25281Y-22087D01*
X25347Y-22087D01*
X25374Y-22096D01*
X25387Y-22104D01*
X25401Y-22122D01*
X25401Y-22156D01*
X25387Y-22173D01*
X25374Y-22182D01*
X25347Y-22190D01*
X27056Y-32956D02*
X27069Y-32947D01*
X27082Y-32921D01*
X27082Y-32904D01*
X27069Y-32879D01*
X27042Y-32861D01*
X27016Y-32853D01*
X26962Y-32844D01*
X26922Y-32844D01*
X26869Y-32853D01*
X26842Y-32861D01*
X26816Y-32879D01*
X26802Y-32904D01*
X26802Y-32921D01*
X26816Y-32947D01*
X26829Y-32956D01*
X27082Y-33127D02*
X27082Y-33024D01*
X27082Y-33076D02*
X26802Y-33076D01*
X26842Y-33059D01*
X26869Y-33041D01*
X26882Y-33024D01*
X26802Y-33238D02*
X26802Y-33255D01*
X26816Y-33272D01*
X26829Y-33281D01*
X26856Y-33290D01*
X26909Y-33298D01*
X26976Y-33298D01*
X27029Y-33290D01*
X27056Y-33281D01*
X27069Y-33272D01*
X27082Y-33255D01*
X27082Y-33238D01*
X27069Y-33221D01*
X27056Y-33212D01*
X27029Y-33204D01*
X26976Y-33195D01*
X26909Y-33195D01*
X26856Y-33204D01*
X26829Y-33212D01*
X26816Y-33221D01*
X26802Y-33238D01*
G54D20*
X50171Y-24815D02*
X49671Y-24815D01*
X49671Y-24934D01*
X49695Y-25006D01*
X49743Y-25053D01*
X49790Y-25077D01*
X49886Y-25101D01*
X49957Y-25101D01*
X50052Y-25077D01*
X50100Y-25053D01*
X50148Y-25006D01*
X50171Y-24934D01*
X50171Y-24815D01*
X49671Y-25529D02*
X49671Y-25434D01*
X49695Y-25386D01*
X49719Y-25363D01*
X49790Y-25315D01*
X49886Y-25291D01*
X50076Y-25291D01*
X50124Y-25315D01*
X50148Y-25339D01*
X50171Y-25386D01*
X50171Y-25482D01*
X50148Y-25529D01*
X50124Y-25553D01*
X50076Y-25577D01*
X49957Y-25577D01*
X49909Y-25553D01*
X49886Y-25529D01*
X49862Y-25482D01*
X49862Y-25386D01*
X49886Y-25339D01*
X49909Y-25315D01*
X49957Y-25291D01*
X48636Y-23851D02*
X48659Y-23923D01*
X48659Y-24042D01*
X48636Y-24089D01*
X48612Y-24113D01*
X48564Y-24137D01*
X48517Y-24137D01*
X48469Y-24113D01*
X48445Y-24089D01*
X48421Y-24042D01*
X48397Y-23946D01*
X48374Y-23899D01*
X48350Y-23875D01*
X48302Y-23851D01*
X48255Y-23851D01*
X48207Y-23875D01*
X48183Y-23899D01*
X48159Y-23946D01*
X48159Y-24066D01*
X48183Y-24137D01*
X48659Y-24351D02*
X48159Y-24351D01*
X48659Y-24637D02*
X48374Y-24422D01*
X48159Y-24637D02*
X48445Y-24351D01*
X48159Y-24803D02*
X48159Y-25113D01*
X48350Y-24946D01*
X48350Y-25018D01*
X48374Y-25065D01*
X48397Y-25089D01*
X48445Y-25113D01*
X48564Y-25113D01*
X48612Y-25089D01*
X48636Y-25065D01*
X48659Y-25018D01*
X48659Y-24875D01*
X48636Y-24827D01*
X48612Y-24803D01*
X48326Y-25541D02*
X48659Y-25541D01*
X48136Y-25422D02*
X48493Y-25303D01*
X48493Y-25613D01*
X48517Y-25779D02*
X48517Y-26017D01*
X48659Y-25732D02*
X48159Y-25898D01*
X48659Y-26065D01*
X18099Y-28714D02*
X18099Y-28214D01*
X17980Y-28214D01*
X17908Y-28238D01*
X17861Y-28286D01*
X17837Y-28333D01*
X17813Y-28429D01*
X17813Y-28500D01*
X17837Y-28595D01*
X17861Y-28643D01*
X17908Y-28691D01*
X17980Y-28714D01*
X18099Y-28714D01*
X17385Y-28381D02*
X17385Y-28714D01*
X17504Y-28191D02*
X17623Y-28548D01*
X17313Y-28548D01*
X17691Y-24815D02*
X17191Y-24815D01*
X17191Y-24934D01*
X17215Y-25006D01*
X17263Y-25053D01*
X17310Y-25077D01*
X17406Y-25101D01*
X17477Y-25101D01*
X17572Y-25077D01*
X17620Y-25053D01*
X17668Y-25006D01*
X17691Y-24934D01*
X17691Y-24815D01*
X17239Y-25291D02*
X17215Y-25315D01*
X17191Y-25363D01*
X17191Y-25482D01*
X17215Y-25529D01*
X17239Y-25553D01*
X17287Y-25577D01*
X17334Y-25577D01*
X17406Y-25553D01*
X17691Y-25267D01*
X17691Y-25577D01*
X24020Y-38029D02*
X24020Y-37529D01*
X23901Y-37529D01*
X23829Y-37553D01*
X23782Y-37601D01*
X23758Y-37648D01*
X23734Y-37744D01*
X23734Y-37815D01*
X23758Y-37910D01*
X23782Y-37958D01*
X23829Y-38006D01*
X23901Y-38029D01*
X24020Y-38029D01*
X23544Y-37577D02*
X23520Y-37553D01*
X23472Y-37529D01*
X23353Y-37529D01*
X23306Y-37553D01*
X23282Y-37577D01*
X23258Y-37625D01*
X23258Y-37672D01*
X23282Y-37744D01*
X23568Y-38029D01*
X23258Y-38029D01*
X22830Y-37696D02*
X22830Y-38029D01*
X22949Y-37506D02*
X23068Y-37863D01*
X22758Y-37863D01*
X47809Y-39932D02*
X47309Y-39932D01*
X47309Y-40051D01*
X47333Y-40123D01*
X47381Y-40170D01*
X47428Y-40194D01*
X47524Y-40218D01*
X47595Y-40218D01*
X47690Y-40194D01*
X47738Y-40170D01*
X47786Y-40123D01*
X47809Y-40051D01*
X47809Y-39932D01*
X47357Y-40408D02*
X47333Y-40432D01*
X47309Y-40480D01*
X47309Y-40599D01*
X47333Y-40646D01*
X47357Y-40670D01*
X47405Y-40694D01*
X47452Y-40694D01*
X47524Y-40670D01*
X47809Y-40384D01*
X47809Y-40694D01*
X47309Y-41122D02*
X47309Y-41027D01*
X47333Y-40979D01*
X47357Y-40956D01*
X47428Y-40908D01*
X47524Y-40884D01*
X47714Y-40884D01*
X47762Y-40908D01*
X47786Y-40932D01*
X47809Y-40979D01*
X47809Y-41075D01*
X47786Y-41122D01*
X47762Y-41146D01*
X47714Y-41170D01*
X47595Y-41170D01*
X47547Y-41146D01*
X47524Y-41122D01*
X47500Y-41075D01*
X47500Y-40979D01*
X47524Y-40932D01*
X47547Y-40908D01*
X47595Y-40884D01*
X42917Y-39407D02*
X42917Y-38907D01*
X42798Y-38907D01*
X42726Y-38931D01*
X42679Y-38979D01*
X42655Y-39026D01*
X42631Y-39122D01*
X42631Y-39193D01*
X42655Y-39288D01*
X42679Y-39336D01*
X42726Y-39384D01*
X42798Y-39407D01*
X42917Y-39407D01*
X42441Y-38955D02*
X42417Y-38931D01*
X42369Y-38907D01*
X42250Y-38907D01*
X42203Y-38931D01*
X42179Y-38955D01*
X42155Y-39003D01*
X42155Y-39050D01*
X42179Y-39122D01*
X42465Y-39407D01*
X42155Y-39407D01*
X41870Y-39122D02*
X41917Y-39098D01*
X41941Y-39074D01*
X41965Y-39026D01*
X41965Y-39003D01*
X41941Y-38955D01*
X41917Y-38931D01*
X41870Y-38907D01*
X41774Y-38907D01*
X41727Y-38931D01*
X41703Y-38955D01*
X41679Y-39003D01*
X41679Y-39026D01*
X41703Y-39074D01*
X41727Y-39098D01*
X41774Y-39122D01*
X41870Y-39122D01*
X41917Y-39145D01*
X41941Y-39169D01*
X41965Y-39217D01*
X41965Y-39312D01*
X41941Y-39360D01*
X41917Y-39384D01*
X41870Y-39407D01*
X41774Y-39407D01*
X41727Y-39384D01*
X41703Y-39360D01*
X41679Y-39312D01*
X41679Y-39217D01*
X41703Y-39169D01*
X41727Y-39145D01*
X41774Y-39122D01*
X43143Y-40896D02*
X43071Y-40919D01*
X42952Y-40919D01*
X42905Y-40896D01*
X42881Y-40872D01*
X42857Y-40824D01*
X42857Y-40777D01*
X42881Y-40729D01*
X42905Y-40705D01*
X42952Y-40681D01*
X43048Y-40657D01*
X43095Y-40634D01*
X43119Y-40610D01*
X43143Y-40562D01*
X43143Y-40515D01*
X43119Y-40467D01*
X43095Y-40443D01*
X43048Y-40419D01*
X42928Y-40419D01*
X42857Y-40443D01*
X42643Y-40919D02*
X42643Y-40419D01*
X42357Y-40919D02*
X42572Y-40634D01*
X42357Y-40419D02*
X42643Y-40705D01*
X42191Y-40419D02*
X41881Y-40419D01*
X42048Y-40610D01*
X41976Y-40610D01*
X41929Y-40634D01*
X41905Y-40657D01*
X41881Y-40705D01*
X41881Y-40824D01*
X41905Y-40872D01*
X41929Y-40896D01*
X41976Y-40919D01*
X42119Y-40919D01*
X42167Y-40896D01*
X42191Y-40872D01*
X41453Y-40586D02*
X41453Y-40919D01*
X41572Y-40396D02*
X41691Y-40753D01*
X41381Y-40753D01*
X41215Y-40777D02*
X40977Y-40777D01*
X41262Y-40919D02*
X41096Y-40419D01*
X40929Y-40919D01*
X30683Y-31270D02*
X30183Y-31270D01*
X30183Y-31389D01*
X30207Y-31461D01*
X30255Y-31508D01*
X30302Y-31532D01*
X30398Y-31556D01*
X30469Y-31556D01*
X30564Y-31532D01*
X30612Y-31508D01*
X30660Y-31461D01*
X30683Y-31389D01*
X30683Y-31270D01*
X30183Y-31722D02*
X30183Y-32032D01*
X30374Y-31865D01*
X30374Y-31937D01*
X30398Y-31984D01*
X30421Y-32008D01*
X30469Y-32032D01*
X30588Y-32032D01*
X30636Y-32008D01*
X30660Y-31984D01*
X30683Y-31937D01*
X30683Y-31794D01*
X30660Y-31746D01*
X30636Y-31722D01*
X30183Y-32341D02*
X30183Y-32389D01*
X30207Y-32437D01*
X30231Y-32460D01*
X30279Y-32484D01*
X30374Y-32508D01*
X30493Y-32508D01*
X30588Y-32484D01*
X30636Y-32460D01*
X30660Y-32437D01*
X30683Y-32389D01*
X30683Y-32341D01*
X30660Y-32294D01*
X30636Y-32270D01*
X30588Y-32246D01*
X30493Y-32222D01*
X30374Y-32222D01*
X30279Y-32246D01*
X30231Y-32270D01*
X30207Y-32294D01*
X30183Y-32341D01*
X32455Y-31270D02*
X31955Y-31270D01*
X31955Y-31389D01*
X31979Y-31461D01*
X32027Y-31508D01*
X32074Y-31532D01*
X32170Y-31556D01*
X32241Y-31556D01*
X32336Y-31532D01*
X32384Y-31508D01*
X32432Y-31461D01*
X32455Y-31389D01*
X32455Y-31270D01*
X31955Y-31722D02*
X31955Y-32032D01*
X32146Y-31865D01*
X32146Y-31937D01*
X32170Y-31984D01*
X32193Y-32008D01*
X32241Y-32032D01*
X32360Y-32032D01*
X32408Y-32008D01*
X32432Y-31984D01*
X32455Y-31937D01*
X32455Y-31794D01*
X32432Y-31746D01*
X32408Y-31722D01*
X32003Y-32222D02*
X31979Y-32246D01*
X31955Y-32294D01*
X31955Y-32413D01*
X31979Y-32460D01*
X32003Y-32484D01*
X32051Y-32508D01*
X32098Y-32508D01*
X32170Y-32484D01*
X32455Y-32198D01*
X32455Y-32508D01*
X30920Y-30544D02*
X30943Y-30616D01*
X30943Y-30735D01*
X30920Y-30782D01*
X30896Y-30806D01*
X30848Y-30830D01*
X30801Y-30830D01*
X30753Y-30806D01*
X30729Y-30782D01*
X30705Y-30735D01*
X30681Y-30639D01*
X30658Y-30592D01*
X30634Y-30568D01*
X30586Y-30544D01*
X30539Y-30544D01*
X30491Y-30568D01*
X30467Y-30592D01*
X30443Y-30639D01*
X30443Y-30759D01*
X30467Y-30830D01*
X30943Y-31044D02*
X30443Y-31044D01*
X30943Y-31330D02*
X30658Y-31115D01*
X30443Y-31330D02*
X30729Y-31044D01*
X30443Y-31496D02*
X30443Y-31806D01*
X30634Y-31639D01*
X30634Y-31711D01*
X30658Y-31758D01*
X30681Y-31782D01*
X30729Y-31806D01*
X30848Y-31806D01*
X30896Y-31782D01*
X30920Y-31758D01*
X30943Y-31711D01*
X30943Y-31568D01*
X30920Y-31520D01*
X30896Y-31496D01*
X30610Y-32234D02*
X30943Y-32234D01*
X30420Y-32115D02*
X30777Y-31996D01*
X30777Y-32306D01*
X30801Y-32472D02*
X30801Y-32710D01*
X30943Y-32425D02*
X30443Y-32591D01*
X30943Y-32758D01*
X24020Y-39801D02*
X24020Y-39301D01*
X23901Y-39301D01*
X23829Y-39325D01*
X23782Y-39373D01*
X23758Y-39420D01*
X23734Y-39516D01*
X23734Y-39587D01*
X23758Y-39682D01*
X23782Y-39730D01*
X23829Y-39778D01*
X23901Y-39801D01*
X24020Y-39801D01*
X23544Y-39349D02*
X23520Y-39325D01*
X23472Y-39301D01*
X23353Y-39301D01*
X23306Y-39325D01*
X23282Y-39349D01*
X23258Y-39397D01*
X23258Y-39444D01*
X23282Y-39516D01*
X23568Y-39801D01*
X23258Y-39801D01*
X23068Y-39349D02*
X23044Y-39325D01*
X22996Y-39301D01*
X22877Y-39301D01*
X22830Y-39325D01*
X22806Y-39349D01*
X22782Y-39397D01*
X22782Y-39444D01*
X22806Y-39516D01*
X23092Y-39801D01*
X22782Y-39801D01*
X30289Y-38357D02*
X29789Y-38357D01*
X29789Y-38476D01*
X29813Y-38548D01*
X29861Y-38595D01*
X29908Y-38619D01*
X30004Y-38643D01*
X30075Y-38643D01*
X30170Y-38619D01*
X30218Y-38595D01*
X30266Y-38548D01*
X30289Y-38476D01*
X30289Y-38357D01*
X29837Y-38833D02*
X29813Y-38857D01*
X29789Y-38905D01*
X29789Y-39024D01*
X29813Y-39071D01*
X29837Y-39095D01*
X29885Y-39119D01*
X29932Y-39119D01*
X30004Y-39095D01*
X30289Y-38809D01*
X30289Y-39119D01*
X29789Y-39428D02*
X29789Y-39476D01*
X29813Y-39524D01*
X29837Y-39547D01*
X29885Y-39571D01*
X29980Y-39595D01*
X30099Y-39595D01*
X30194Y-39571D01*
X30242Y-39547D01*
X30266Y-39524D01*
X30289Y-39476D01*
X30289Y-39428D01*
X30266Y-39381D01*
X30242Y-39357D01*
X30194Y-39333D01*
X30099Y-39309D01*
X29980Y-39309D01*
X29885Y-39333D01*
X29837Y-39357D01*
X29813Y-39381D01*
X29789Y-39428D01*
X37242Y-35627D02*
X36742Y-35627D01*
X36742Y-35746D01*
X36766Y-35818D01*
X36814Y-35865D01*
X36861Y-35889D01*
X36957Y-35913D01*
X37028Y-35913D01*
X37123Y-35889D01*
X37171Y-35865D01*
X37219Y-35818D01*
X37242Y-35746D01*
X37242Y-35627D01*
X36909Y-36341D02*
X37242Y-36341D01*
X36719Y-36222D02*
X37076Y-36103D01*
X37076Y-36413D01*
X37242Y-36627D02*
X37242Y-36722D01*
X37219Y-36770D01*
X37195Y-36794D01*
X37123Y-36841D01*
X37028Y-36865D01*
X36838Y-36865D01*
X36790Y-36841D01*
X36766Y-36817D01*
X36742Y-36770D01*
X36742Y-36674D01*
X36766Y-36627D01*
X36790Y-36603D01*
X36838Y-36579D01*
X36957Y-36579D01*
X37004Y-36603D01*
X37028Y-36627D01*
X37052Y-36674D01*
X37052Y-36770D01*
X37028Y-36817D01*
X37004Y-36841D01*
X36957Y-36865D01*
X38754Y-35389D02*
X38754Y-35103D01*
X38754Y-35246D02*
X38254Y-35246D01*
X38326Y-35198D01*
X38373Y-35151D01*
X38397Y-35103D01*
X38302Y-35579D02*
X38278Y-35603D01*
X38254Y-35651D01*
X38254Y-35770D01*
X38278Y-35817D01*
X38302Y-35841D01*
X38350Y-35865D01*
X38397Y-35865D01*
X38469Y-35841D01*
X38754Y-35555D01*
X38754Y-35865D01*
X38254Y-36008D02*
X38754Y-36174D01*
X38254Y-36341D01*
X38231Y-36865D02*
X38873Y-36437D01*
X38754Y-37294D02*
X38754Y-37008D01*
X38754Y-37151D02*
X38254Y-37151D01*
X38326Y-37103D01*
X38373Y-37056D01*
X38397Y-37008D01*
X38254Y-37460D02*
X38754Y-37579D01*
X38397Y-37675D01*
X38754Y-37770D01*
X38254Y-37889D01*
X47084Y-27794D02*
X46584Y-27794D01*
X46584Y-27913D01*
X46608Y-27985D01*
X46656Y-28032D01*
X46703Y-28056D01*
X46799Y-28080D01*
X46870Y-28080D01*
X46965Y-28056D01*
X47013Y-28032D01*
X47061Y-27985D01*
X47084Y-27913D01*
X47084Y-27794D01*
X46799Y-28365D02*
X46775Y-28318D01*
X46751Y-28294D01*
X46703Y-28270D01*
X46680Y-28270D01*
X46632Y-28294D01*
X46608Y-28318D01*
X46584Y-28365D01*
X46584Y-28461D01*
X46608Y-28508D01*
X46632Y-28532D01*
X46680Y-28556D01*
X46703Y-28556D01*
X46751Y-28532D01*
X46775Y-28508D01*
X46799Y-28461D01*
X46799Y-28365D01*
X46822Y-28318D01*
X46846Y-28294D01*
X46894Y-28270D01*
X46989Y-28270D01*
X47037Y-28294D01*
X47061Y-28318D01*
X47084Y-28365D01*
X47084Y-28461D01*
X47061Y-28508D01*
X47037Y-28532D01*
X46989Y-28556D01*
X46894Y-28556D01*
X46846Y-28532D01*
X46822Y-28508D01*
X46799Y-28461D01*
X18337Y-30486D02*
X18337Y-29986D01*
X18218Y-29986D01*
X18146Y-30010D01*
X18099Y-30058D01*
X18075Y-30105D01*
X18051Y-30201D01*
X18051Y-30272D01*
X18075Y-30367D01*
X18099Y-30415D01*
X18146Y-30463D01*
X18218Y-30486D01*
X18337Y-30486D01*
X17575Y-30486D02*
X17861Y-30486D01*
X17718Y-30486D02*
X17718Y-29986D01*
X17766Y-30058D01*
X17813Y-30105D01*
X17861Y-30129D01*
X17266Y-29986D02*
X17218Y-29986D01*
X17170Y-30010D01*
X17147Y-30034D01*
X17123Y-30082D01*
X17099Y-30177D01*
X17099Y-30296D01*
X17123Y-30391D01*
X17147Y-30439D01*
X17170Y-30463D01*
X17218Y-30486D01*
X17266Y-30486D01*
X17313Y-30463D01*
X17337Y-30439D01*
X17361Y-30391D01*
X17385Y-30296D01*
X17385Y-30177D01*
X17361Y-30082D01*
X17337Y-30034D01*
X17313Y-30010D01*
X17266Y-29986D01*
X19321Y-31864D02*
X19321Y-31364D01*
X19202Y-31364D01*
X19130Y-31388D01*
X19083Y-31436D01*
X19059Y-31483D01*
X19035Y-31579D01*
X19035Y-31650D01*
X19059Y-31745D01*
X19083Y-31793D01*
X19130Y-31841D01*
X19202Y-31864D01*
X19321Y-31864D01*
X18559Y-31864D02*
X18845Y-31864D01*
X18702Y-31864D02*
X18702Y-31364D01*
X18750Y-31436D01*
X18797Y-31483D01*
X18845Y-31507D01*
X18369Y-31412D02*
X18345Y-31388D01*
X18297Y-31364D01*
X18178Y-31364D01*
X18131Y-31388D01*
X18107Y-31412D01*
X18083Y-31460D01*
X18083Y-31507D01*
X18107Y-31579D01*
X18393Y-31864D01*
X18083Y-31864D01*
X48596Y-29892D02*
X48096Y-29892D01*
X48096Y-30011D01*
X48120Y-30083D01*
X48168Y-30130D01*
X48215Y-30154D01*
X48311Y-30178D01*
X48382Y-30178D01*
X48477Y-30154D01*
X48525Y-30130D01*
X48573Y-30083D01*
X48596Y-30011D01*
X48596Y-29892D01*
X48596Y-30654D02*
X48596Y-30368D01*
X48596Y-30511D02*
X48096Y-30511D01*
X48168Y-30463D01*
X48215Y-30416D01*
X48239Y-30368D01*
X48263Y-31082D02*
X48596Y-31082D01*
X48073Y-30963D02*
X48430Y-30844D01*
X48430Y-31154D01*
X47061Y-29166D02*
X47084Y-29238D01*
X47084Y-29357D01*
X47061Y-29404D01*
X47037Y-29428D01*
X46989Y-29452D01*
X46942Y-29452D01*
X46894Y-29428D01*
X46870Y-29404D01*
X46846Y-29357D01*
X46822Y-29261D01*
X46799Y-29214D01*
X46775Y-29190D01*
X46727Y-29166D01*
X46680Y-29166D01*
X46632Y-29190D01*
X46608Y-29214D01*
X46584Y-29261D01*
X46584Y-29381D01*
X46608Y-29452D01*
X47084Y-29666D02*
X46584Y-29666D01*
X47084Y-29952D02*
X46799Y-29737D01*
X46584Y-29952D02*
X46870Y-29666D01*
X46584Y-30118D02*
X46584Y-30428D01*
X46775Y-30261D01*
X46775Y-30333D01*
X46799Y-30380D01*
X46822Y-30404D01*
X46870Y-30428D01*
X46989Y-30428D01*
X47037Y-30404D01*
X47061Y-30380D01*
X47084Y-30333D01*
X47084Y-30190D01*
X47061Y-30142D01*
X47037Y-30118D01*
X46751Y-30856D02*
X47084Y-30856D01*
X46561Y-30737D02*
X46918Y-30618D01*
X46918Y-30928D01*
X46942Y-31094D02*
X46942Y-31332D01*
X47084Y-31047D02*
X46584Y-31213D01*
X47084Y-31380D01*
X44722Y-32084D02*
X44222Y-32084D01*
X44222Y-32203D01*
X44246Y-32275D01*
X44294Y-32322D01*
X44341Y-32346D01*
X44437Y-32370D01*
X44508Y-32370D01*
X44603Y-32346D01*
X44651Y-32322D01*
X44699Y-32275D01*
X44722Y-32203D01*
X44722Y-32084D01*
X44722Y-32846D02*
X44722Y-32560D01*
X44722Y-32703D02*
X44222Y-32703D01*
X44294Y-32655D01*
X44341Y-32608D01*
X44365Y-32560D01*
X44222Y-33274D02*
X44222Y-33179D01*
X44246Y-33131D01*
X44270Y-33108D01*
X44341Y-33060D01*
X44437Y-33036D01*
X44627Y-33036D01*
X44675Y-33060D01*
X44699Y-33084D01*
X44722Y-33131D01*
X44722Y-33227D01*
X44699Y-33274D01*
X44675Y-33298D01*
X44627Y-33322D01*
X44508Y-33322D01*
X44460Y-33298D01*
X44437Y-33274D01*
X44413Y-33227D01*
X44413Y-33131D01*
X44437Y-33084D01*
X44460Y-33060D01*
X44508Y-33036D01*
X46211Y-31858D02*
X46234Y-31930D01*
X46234Y-32049D01*
X46211Y-32096D01*
X46187Y-32120D01*
X46139Y-32144D01*
X46092Y-32144D01*
X46044Y-32120D01*
X46020Y-32096D01*
X45996Y-32049D01*
X45972Y-31953D01*
X45949Y-31906D01*
X45925Y-31882D01*
X45877Y-31858D01*
X45830Y-31858D01*
X45782Y-31882D01*
X45758Y-31906D01*
X45734Y-31953D01*
X45734Y-32073D01*
X45758Y-32144D01*
X46234Y-32358D02*
X45734Y-32358D01*
X46234Y-32644D02*
X45949Y-32429D01*
X45734Y-32644D02*
X46020Y-32358D01*
X45734Y-32810D02*
X45734Y-33120D01*
X45925Y-32953D01*
X45925Y-33025D01*
X45949Y-33072D01*
X45972Y-33096D01*
X46020Y-33120D01*
X46139Y-33120D01*
X46187Y-33096D01*
X46211Y-33072D01*
X46234Y-33025D01*
X46234Y-32882D01*
X46211Y-32834D01*
X46187Y-32810D01*
X45901Y-33548D02*
X46234Y-33548D01*
X45711Y-33429D02*
X46068Y-33310D01*
X46068Y-33620D01*
X46092Y-33786D02*
X46092Y-34024D01*
X46234Y-33739D02*
X45734Y-33905D01*
X46234Y-34072D01*
X32061Y-38357D02*
X31561Y-38357D01*
X31561Y-38476D01*
X31585Y-38548D01*
X31633Y-38595D01*
X31680Y-38619D01*
X31776Y-38643D01*
X31847Y-38643D01*
X31942Y-38619D01*
X31990Y-38595D01*
X32038Y-38548D01*
X32061Y-38476D01*
X32061Y-38357D01*
X32061Y-39119D02*
X32061Y-38833D01*
X32061Y-38976D02*
X31561Y-38976D01*
X31633Y-38928D01*
X31680Y-38881D01*
X31704Y-38833D01*
X31776Y-39404D02*
X31752Y-39357D01*
X31728Y-39333D01*
X31680Y-39309D01*
X31657Y-39309D01*
X31609Y-39333D01*
X31585Y-39357D01*
X31561Y-39404D01*
X31561Y-39500D01*
X31585Y-39547D01*
X31609Y-39571D01*
X31657Y-39595D01*
X31680Y-39595D01*
X31728Y-39571D01*
X31752Y-39547D01*
X31776Y-39500D01*
X31776Y-39404D01*
X31799Y-39357D01*
X31823Y-39333D01*
X31871Y-39309D01*
X31966Y-39309D01*
X32014Y-39333D01*
X32038Y-39357D01*
X32061Y-39404D01*
X32061Y-39500D01*
X32038Y-39547D01*
X32014Y-39571D01*
X31966Y-39595D01*
X31871Y-39595D01*
X31823Y-39571D01*
X31799Y-39547D01*
X31776Y-39500D01*
X32743Y-36430D02*
X32758Y-36415D01*
X32774Y-36369D01*
X32774Y-36339D01*
X32758Y-36293D01*
X32728Y-36262D01*
X32697Y-36247D01*
X32636Y-36232D01*
X32591Y-36232D01*
X32530Y-36247D01*
X32499Y-36262D01*
X32469Y-36293D01*
X32454Y-36339D01*
X32454Y-36369D01*
X32469Y-36415D01*
X32484Y-36430D01*
X32774Y-36735D02*
X32774Y-36552D01*
X32774Y-36643D02*
X32454Y-36643D01*
X32499Y-36613D01*
X32530Y-36582D01*
X32545Y-36552D01*
X32454Y-36842D02*
X32454Y-37055D01*
X32774Y-36918D01*
X34859Y-35720D02*
X34840Y-35739D01*
X34821Y-35777D01*
X34821Y-35873D01*
X34840Y-35911D01*
X34859Y-35930D01*
X34897Y-35949D01*
X34935Y-35949D01*
X34992Y-35930D01*
X35221Y-35701D01*
X35221Y-35949D01*
X34859Y-36101D02*
X34840Y-36120D01*
X34821Y-36158D01*
X34821Y-36254D01*
X34840Y-36292D01*
X34859Y-36311D01*
X34897Y-36330D01*
X34935Y-36330D01*
X34992Y-36311D01*
X35221Y-36082D01*
X35221Y-36330D01*
X34821Y-36577D02*
X34821Y-36616D01*
X34840Y-36654D01*
X34859Y-36673D01*
X34897Y-36692D01*
X34973Y-36711D01*
X35069Y-36711D01*
X35145Y-36692D01*
X35183Y-36673D01*
X35202Y-36654D01*
X35221Y-36616D01*
X35221Y-36577D01*
X35202Y-36539D01*
X35183Y-36520D01*
X35145Y-36501D01*
X35069Y-36482D01*
X34973Y-36482D01*
X34897Y-36501D01*
X34859Y-36520D01*
X34840Y-36539D01*
X34821Y-36577D01*
X34954Y-36882D02*
X35354Y-36882D01*
X35164Y-37073D02*
X35202Y-37092D01*
X35221Y-37130D01*
X35164Y-36882D02*
X35202Y-36901D01*
X35221Y-36939D01*
X35221Y-37016D01*
X35202Y-37054D01*
X35164Y-37073D01*
X34954Y-37073D01*
X35011Y-37435D02*
X35011Y-37301D01*
X35221Y-37301D02*
X34821Y-37301D01*
X34821Y-37492D01*
X40298Y-37573D02*
X40317Y-37554D01*
X40336Y-37497D01*
X40336Y-37459D01*
X40317Y-37401D01*
X40279Y-37363D01*
X40241Y-37344D01*
X40164Y-37325D01*
X40107Y-37325D01*
X40031Y-37344D01*
X39993Y-37363D01*
X39955Y-37401D01*
X39936Y-37459D01*
X39936Y-37497D01*
X39955Y-37554D01*
X39974Y-37573D01*
X40336Y-37954D02*
X40336Y-37725D01*
X40336Y-37839D02*
X39936Y-37839D01*
X39993Y-37801D01*
X40031Y-37763D01*
X40050Y-37725D01*
X39936Y-38297D02*
X39936Y-38220D01*
X39955Y-38182D01*
X39974Y-38163D01*
X40031Y-38125D01*
X40107Y-38106D01*
X40260Y-38106D01*
X40298Y-38125D01*
X40317Y-38144D01*
X40336Y-38182D01*
X40336Y-38259D01*
X40317Y-38297D01*
X40298Y-38316D01*
X40260Y-38335D01*
X40164Y-38335D01*
X40126Y-38316D01*
X40107Y-38297D01*
X40088Y-38259D01*
X40088Y-38182D01*
X40107Y-38144D01*
X40126Y-38125D01*
X40164Y-38106D01*
X41255Y-37416D02*
X41469Y-37416D01*
X41133Y-37340D02*
X41362Y-37264D01*
X41362Y-37462D01*
X41149Y-37554D02*
X41149Y-37767D01*
X41469Y-37630D01*
X41255Y-37889D02*
X41469Y-37889D01*
X41286Y-37889D02*
X41270Y-37904D01*
X41255Y-37935D01*
X41255Y-37981D01*
X41270Y-38011D01*
X41301Y-38026D01*
X41469Y-38026D01*
X41301Y-38286D02*
X41301Y-38179D01*
X41469Y-38179D02*
X41149Y-38179D01*
X41149Y-38332D01*
%LPC*%
G54D21*
X51378Y-25000D03*
X19489Y-25000D03*
X35237Y-42126D03*
G54D22*
X45738Y-19573D03*
X45738Y-19073D03*
X45738Y-18573D03*
X45738Y-18073D03*
X45738Y-17573D03*
X45738Y-17073D03*
X45738Y-16573D03*
X45738Y-16073D03*
X45738Y-15573D03*
X45738Y-15073D03*
X49538Y-15073D03*
X49538Y-15573D03*
X49538Y-16073D03*
X49538Y-16573D03*
X49538Y-17073D03*
X49538Y-17573D03*
X49538Y-18073D03*
X49538Y-18573D03*
X49538Y-19073D03*
X49538Y-19573D03*
G54D23*
X35827Y-37321D03*
X35827Y-35121D03*
G54D24*
X46851Y-33643D03*
X46851Y-32893D03*
G54D25*
X18523Y-31890D03*
X19273Y-31890D03*
G54D24*
X40749Y-35809D03*
X40749Y-35059D03*
G54D26*
X39174Y-36324D03*
X39174Y-35724D03*
X44489Y-15655D03*
X44489Y-15055D03*
X44686Y-30025D03*
X44686Y-29425D03*
G54D27*
X31000Y-28741D03*
X31600Y-28741D03*
G54D26*
X19882Y-18992D03*
X19882Y-19592D03*
X21457Y-30015D03*
X21457Y-30615D03*
G54D27*
X31787Y-23426D03*
X32387Y-23426D03*
G54D26*
X39371Y-29237D03*
X39371Y-28637D03*
X25394Y-22348D03*
X25394Y-21748D03*
X26969Y-33371D03*
X26969Y-32771D03*
G54D28*
X36614Y-39567D03*
G54D29*
X35827Y-39567D03*
X35039Y-39567D03*
X34253Y-39567D03*
X33465Y-39567D03*
X32678Y-39567D03*
G54D28*
X30118Y-42323D03*
G54D29*
X29330Y-42323D03*
X28544Y-42323D03*
X27756Y-42323D03*
G54D10*
G36*
X51001Y-27885D02*
X50320Y-27650D01*
X50555Y-26969D01*
X51236Y-27204D01*
X51001Y-27885D01*
X51001Y-27885D01*
G37*
G54D29*
X50522Y-28172D03*
X50266Y-28916D03*
X50010Y-29661D03*
G54D28*
X14961Y-25984D03*
G54D29*
X14961Y-26772D03*
X14961Y-27558D03*
X14961Y-28346D03*
G54D28*
X41142Y-42323D03*
G54D29*
X40354Y-42323D03*
X39568Y-42323D03*
X38780Y-42323D03*
G54D28*
X33071Y-42323D03*
G54D29*
X32284Y-42323D03*
G54D28*
X24804Y-42126D03*
G54D29*
X25591Y-42126D03*
G54D28*
X44095Y-42323D03*
G54D29*
X43308Y-42323D03*
G54D30*
X42237Y-20973D03*
X42237Y-19973D03*
X41237Y-19973D03*
X41237Y-20973D03*
G54D31*
X28237Y-20973D03*
G54D30*
X28237Y-19973D03*
X29237Y-20973D03*
X29237Y-19973D03*
X30237Y-20973D03*
X30237Y-19973D03*
X31237Y-20973D03*
X31237Y-19973D03*
X32237Y-20973D03*
X32237Y-19973D03*
X33237Y-20973D03*
X33237Y-19973D03*
X34237Y-20973D03*
X34237Y-19973D03*
X35237Y-20973D03*
X35237Y-19973D03*
X36237Y-20973D03*
X36237Y-19973D03*
X37237Y-20973D03*
X37237Y-19973D03*
X38237Y-20973D03*
X38237Y-19973D03*
X39237Y-20973D03*
X39237Y-19973D03*
X40237Y-20973D03*
X40237Y-19973D03*
G54D32*
X49213Y-24587D03*
X49213Y-26201D03*
G54D33*
X18327Y-27756D03*
X16713Y-27756D03*
G54D32*
X16733Y-24587D03*
X16733Y-26201D03*
G54D33*
X22816Y-38583D03*
X24430Y-38583D03*
G54D32*
X46851Y-39942D03*
X46851Y-41556D03*
G54D33*
X41713Y-39961D03*
X43327Y-39961D03*
G54D32*
X29725Y-31280D03*
X29725Y-32894D03*
X31497Y-31280D03*
X31497Y-32894D03*
G54D33*
X22816Y-40355D03*
X24430Y-40355D03*
G54D32*
X29331Y-38367D03*
X29331Y-39981D03*
X37796Y-36831D03*
X37796Y-35217D03*
X47638Y-28760D03*
X47638Y-27146D03*
G54D33*
X18327Y-29528D03*
X16713Y-29528D03*
X19311Y-30906D03*
X17697Y-30906D03*
G54D32*
X47638Y-29902D03*
X47638Y-31516D03*
X45276Y-33288D03*
X45276Y-31674D03*
X31103Y-38367D03*
X31103Y-39981D03*
G54D34*
X33859Y-34971D03*
X33859Y-37471D03*
G54D35*
X40749Y-36830D03*
X40749Y-37580D03*
G54D36*
X44489Y-37418D03*
G54D37*
X44489Y-35418D03*
G54D10*
G36*
X16329Y-31159D02*
X15762Y-31602D01*
X15319Y-31035D01*
X15886Y-30592D01*
X16329Y-31159D01*
X16329Y-31159D01*
G37*
G54D29*
X16308Y-31717D03*
X16793Y-32337D03*
X17278Y-32958D03*
X17762Y-33578D03*
X18247Y-34199D03*
X18732Y-34819D03*
X19216Y-35439D03*
G54D10*
G36*
X49546Y-32105D02*
X48865Y-31870D01*
X49100Y-31189D01*
X49781Y-31424D01*
X49546Y-32105D01*
X49546Y-32105D01*
G37*
G54D29*
X49067Y-32391D03*
X48810Y-33135D03*
X48554Y-33880D03*
X48298Y-34624D03*
X48042Y-35369D03*
X47785Y-36113D03*
X47529Y-36857D03*
M02*
