G04 (created by PCBNEW-RS274X (2011-07-20 BZR 3052)-testing) date 2011-07-21 16:28:03*
G01*
G70*
G90*
%MOIN*%
G04 Gerber Fmt 3.4, Leading zero omitted, Abs format*
%FSLAX34Y34*%
G04 APERTURE LIST*
%ADD10C,0.006000*%
%ADD11C,0.012000*%
%ADD12C,0.008700*%
%ADD13C,0.015000*%
%ADD14C,0.005000*%
%ADD15C,0.000800*%
%ADD16C,0.008000*%
%ADD17C,0.002600*%
%ADD18C,0.007900*%
%ADD19C,0.007000*%
%ADD20C,0.004000*%
%ADD21C,0.001200*%
%ADD22C,0.010000*%
%ADD23C,0.003500*%
%ADD24C,0.180000*%
%ADD25R,0.040000X0.065000*%
%ADD26R,0.055000X0.075000*%
%ADD27R,0.075000X0.055000*%
%ADD28R,0.216900X0.043400*%
%ADD29R,0.086900X0.047600*%
%ADD30R,0.390100X0.602700*%
%ADD31R,0.043400X0.216900*%
%ADD32R,0.047600X0.086900*%
%ADD33R,0.602700X0.390100*%
%ADD34R,0.072000X0.072000*%
%ADD35C,0.072000*%
%ADD36C,0.080000*%
%ADD37R,0.080000X0.080000*%
%ADD38R,0.086900X0.090800*%
%ADD39R,0.090800X0.086900*%
%ADD40R,0.120300X0.118400*%
%ADD41R,0.118400X0.120300*%
%ADD42R,0.096700X0.079000*%
%ADD43R,0.120000X0.120000*%
%ADD44C,0.120000*%
%ADD45R,0.067200X0.067200*%
%ADD46R,0.070000X0.080000*%
G04 APERTURE END LIST*
G54D10*
G54D11*
X48298Y-42622D02*
X48498Y-42622D01*
X48584Y-43041D02*
X48298Y-43041D01*
X48298Y-42241D01*
X48584Y-42241D01*
X45302Y-43003D02*
X45388Y-43041D01*
X45531Y-43041D01*
X45588Y-43003D01*
X45617Y-42965D01*
X45645Y-42888D01*
X45645Y-42812D01*
X45617Y-42736D01*
X45588Y-42698D01*
X45531Y-42660D01*
X45417Y-42622D01*
X45359Y-42584D01*
X45331Y-42546D01*
X45302Y-42469D01*
X45302Y-42393D01*
X45331Y-42317D01*
X45359Y-42279D01*
X45417Y-42241D01*
X45559Y-42241D01*
X45645Y-42279D01*
G54D12*
X52363Y-26772D02*
X48819Y-37008D01*
X52756Y-41536D02*
X52744Y-41650D01*
X52711Y-41760D01*
X52657Y-41862D01*
X52584Y-41951D01*
X52495Y-42025D01*
X52394Y-42079D01*
X52284Y-42113D01*
X52170Y-42125D01*
X52056Y-42115D01*
X51945Y-42083D01*
X51843Y-42029D01*
X51754Y-41957D01*
X51680Y-41869D01*
X51624Y-41768D01*
X51589Y-41658D01*
X51577Y-41544D01*
X51586Y-41430D01*
X51618Y-41319D01*
X51671Y-41217D01*
X51742Y-41127D01*
X51830Y-41052D01*
X51930Y-40996D01*
X52040Y-40960D01*
X52154Y-40947D01*
X52268Y-40955D01*
X52379Y-40986D01*
X52482Y-41038D01*
X52572Y-41109D01*
X52648Y-41196D01*
X52704Y-41297D01*
X52741Y-41406D01*
X52755Y-41520D01*
X52756Y-41536D01*
X50513Y-39883D02*
X53819Y-43189D01*
X50513Y-43189D02*
X53819Y-39883D01*
X15551Y-42126D02*
X15539Y-42240D01*
X15506Y-42350D01*
X15452Y-42452D01*
X15379Y-42541D01*
X15290Y-42615D01*
X15189Y-42669D01*
X15079Y-42703D01*
X14965Y-42715D01*
X14851Y-42705D01*
X14740Y-42673D01*
X14638Y-42619D01*
X14549Y-42547D01*
X14475Y-42459D01*
X14419Y-42358D01*
X14384Y-42248D01*
X14372Y-42134D01*
X14381Y-42020D01*
X14413Y-41909D01*
X14466Y-41807D01*
X14537Y-41717D01*
X14625Y-41642D01*
X14725Y-41586D01*
X14835Y-41550D01*
X14949Y-41537D01*
X15063Y-41545D01*
X15174Y-41576D01*
X15277Y-41628D01*
X15367Y-41699D01*
X15443Y-41786D01*
X15499Y-41887D01*
X15536Y-41996D01*
X15550Y-42110D01*
X15551Y-42126D01*
X13780Y-42126D02*
X16142Y-42126D01*
X14961Y-40945D02*
X14961Y-43307D01*
X15551Y-14961D02*
X15539Y-15075D01*
X15506Y-15185D01*
X15452Y-15287D01*
X15379Y-15376D01*
X15290Y-15450D01*
X15189Y-15504D01*
X15079Y-15538D01*
X14965Y-15550D01*
X14851Y-15540D01*
X14740Y-15508D01*
X14638Y-15454D01*
X14549Y-15382D01*
X14475Y-15294D01*
X14419Y-15193D01*
X14384Y-15083D01*
X14372Y-14969D01*
X14381Y-14855D01*
X14413Y-14744D01*
X14466Y-14642D01*
X14537Y-14552D01*
X14625Y-14477D01*
X14725Y-14421D01*
X14835Y-14385D01*
X14949Y-14372D01*
X15063Y-14380D01*
X15174Y-14411D01*
X15277Y-14463D01*
X15367Y-14534D01*
X15443Y-14621D01*
X15499Y-14722D01*
X15536Y-14831D01*
X15550Y-14945D01*
X15551Y-14961D01*
X13780Y-14961D02*
X16142Y-14961D01*
X14961Y-13780D02*
X14961Y-16142D01*
G54D11*
X09677Y-27030D02*
X09678Y-27430D01*
X08878Y-27175D01*
X09679Y-27944D02*
X09678Y-27658D01*
X09297Y-27630D01*
X09335Y-27659D01*
X09374Y-27716D01*
X09374Y-27859D01*
X09336Y-27916D01*
X09298Y-27945D01*
X09222Y-27973D01*
X09032Y-27973D01*
X08955Y-27945D01*
X08917Y-27917D01*
X08879Y-27860D01*
X08879Y-27717D01*
X08916Y-27660D01*
X08954Y-27630D01*
X08880Y-28688D02*
X09414Y-28687D01*
X09337Y-28687D02*
X09375Y-28715D01*
X09414Y-28773D01*
X09415Y-28858D01*
X09376Y-28915D01*
X09300Y-28944D01*
X08881Y-28945D01*
X09300Y-28944D02*
X09376Y-28973D01*
X09415Y-29030D01*
X09415Y-29115D01*
X09376Y-29173D01*
X09300Y-29201D01*
X08881Y-29202D01*
X08882Y-29488D02*
X09416Y-29487D01*
X09339Y-29487D02*
X09377Y-29515D01*
X09416Y-29573D01*
X09416Y-29658D01*
X09377Y-29715D01*
X09301Y-29744D01*
X08882Y-29745D01*
X09301Y-29744D02*
X09377Y-29773D01*
X09416Y-29830D01*
X09416Y-29915D01*
X09377Y-29973D01*
X09302Y-30001D01*
X08883Y-30002D01*
X09844Y-13780D02*
X09844Y-43308D01*
X10827Y-13780D02*
X08564Y-13780D01*
X10827Y-43308D02*
X08564Y-43308D01*
X09844Y-43308D02*
X09614Y-42865D01*
X09844Y-43308D02*
X10074Y-42865D01*
X09844Y-13780D02*
X09614Y-14223D01*
X09844Y-13780D02*
X10074Y-14223D01*
X56627Y-14907D02*
X56627Y-14621D01*
X56246Y-14593D01*
X56284Y-14622D01*
X56322Y-14679D01*
X56322Y-14822D01*
X56284Y-14879D01*
X56246Y-14908D01*
X56170Y-14936D01*
X55980Y-14936D01*
X55903Y-14908D01*
X55865Y-14879D01*
X55827Y-14823D01*
X55827Y-14680D01*
X55865Y-14622D01*
X55903Y-14593D01*
X55511Y-13780D02*
X55511Y-15749D01*
X54725Y-13780D02*
X56791Y-13780D01*
X54725Y-15749D02*
X56791Y-15749D01*
X55511Y-15749D02*
X55281Y-15306D01*
X55511Y-15749D02*
X55741Y-15306D01*
X55511Y-13780D02*
X55281Y-14223D01*
X55511Y-13780D02*
X55741Y-14223D01*
X11240Y-26025D02*
X11239Y-25682D01*
X11240Y-25854D02*
X12040Y-25852D01*
X11926Y-25795D01*
X11850Y-25738D01*
X11811Y-25681D01*
X11698Y-26367D02*
X11736Y-26309D01*
X11774Y-26281D01*
X11850Y-26252D01*
X11888Y-26251D01*
X11964Y-26280D01*
X12003Y-26308D01*
X12041Y-26366D01*
X12041Y-26480D01*
X12003Y-26537D01*
X11965Y-26566D01*
X11889Y-26594D01*
X11851Y-26595D01*
X11775Y-26567D01*
X11736Y-26538D01*
X11698Y-26481D01*
X11698Y-26367D01*
X11660Y-26309D01*
X11621Y-26281D01*
X11545Y-26252D01*
X11393Y-26252D01*
X11316Y-26281D01*
X11279Y-26310D01*
X11241Y-26368D01*
X11241Y-26482D01*
X11279Y-26539D01*
X11317Y-26567D01*
X11394Y-26595D01*
X11546Y-26595D01*
X11622Y-26567D01*
X11660Y-26538D01*
X11698Y-26481D01*
X11242Y-27310D02*
X11776Y-27309D01*
X11699Y-27309D02*
X11737Y-27337D01*
X11776Y-27395D01*
X11777Y-27480D01*
X11738Y-27537D01*
X11662Y-27566D01*
X11243Y-27567D01*
X11662Y-27566D02*
X11738Y-27595D01*
X11777Y-27652D01*
X11777Y-27737D01*
X11738Y-27795D01*
X11662Y-27823D01*
X11243Y-27824D01*
X11244Y-28110D02*
X11778Y-28109D01*
X11701Y-28109D02*
X11739Y-28137D01*
X11778Y-28195D01*
X11778Y-28280D01*
X11739Y-28337D01*
X11663Y-28366D01*
X11244Y-28367D01*
X11663Y-28366D02*
X11739Y-28395D01*
X11778Y-28452D01*
X11778Y-28537D01*
X11739Y-28595D01*
X11664Y-28623D01*
X11245Y-28624D01*
X12206Y-23623D02*
X12206Y-30709D01*
X12993Y-23623D02*
X10926Y-23623D01*
X12993Y-30709D02*
X10926Y-30709D01*
X12206Y-30709D02*
X11976Y-30266D01*
X12206Y-30709D02*
X12436Y-30266D01*
X12206Y-23623D02*
X11976Y-24066D01*
X12206Y-23623D02*
X12436Y-24066D01*
X11963Y-17215D02*
X12001Y-17244D01*
X12040Y-17301D01*
X12040Y-17444D01*
X12002Y-17501D01*
X11964Y-17530D01*
X11888Y-17558D01*
X11812Y-17559D01*
X11697Y-17531D01*
X11239Y-17189D01*
X11240Y-17560D01*
X12041Y-18101D02*
X12040Y-17815D01*
X11659Y-17787D01*
X11697Y-17816D01*
X11736Y-17873D01*
X11736Y-18016D01*
X11698Y-18073D01*
X11660Y-18102D01*
X11584Y-18130D01*
X11394Y-18130D01*
X11317Y-18102D01*
X11279Y-18074D01*
X11241Y-18017D01*
X11241Y-17874D01*
X11278Y-17817D01*
X11316Y-17787D01*
X11242Y-18845D02*
X11776Y-18844D01*
X11699Y-18844D02*
X11737Y-18872D01*
X11776Y-18930D01*
X11777Y-19015D01*
X11738Y-19072D01*
X11662Y-19101D01*
X11243Y-19102D01*
X11662Y-19101D02*
X11738Y-19130D01*
X11777Y-19187D01*
X11777Y-19272D01*
X11738Y-19330D01*
X11662Y-19358D01*
X11243Y-19359D01*
X11244Y-19645D02*
X11778Y-19644D01*
X11701Y-19644D02*
X11739Y-19672D01*
X11778Y-19730D01*
X11778Y-19815D01*
X11739Y-19872D01*
X11663Y-19901D01*
X11244Y-19902D01*
X11663Y-19901D02*
X11739Y-19930D01*
X11778Y-19987D01*
X11778Y-20072D01*
X11739Y-20130D01*
X11664Y-20158D01*
X11245Y-20159D01*
X12206Y-13780D02*
X12206Y-23623D01*
X12993Y-13780D02*
X10926Y-13780D01*
X12993Y-23623D02*
X10926Y-23623D01*
X12206Y-23623D02*
X11976Y-23180D01*
X12206Y-23623D02*
X12436Y-23180D01*
X12206Y-13780D02*
X11976Y-14223D01*
X12206Y-13780D02*
X12436Y-14223D01*
X32430Y-09528D02*
X32087Y-09528D01*
X32259Y-09528D02*
X32259Y-08728D01*
X32202Y-08842D01*
X32144Y-08918D01*
X32087Y-08956D01*
X32801Y-08728D02*
X32858Y-08728D01*
X32915Y-08766D01*
X32944Y-08804D01*
X32973Y-08880D01*
X33001Y-09033D01*
X33001Y-09223D01*
X32973Y-09375D01*
X32944Y-09452D01*
X32915Y-09490D01*
X32858Y-09528D01*
X32801Y-09528D01*
X32744Y-09490D01*
X32715Y-09452D01*
X32687Y-09375D01*
X32658Y-09223D01*
X32658Y-09033D01*
X32687Y-08880D01*
X32715Y-08804D01*
X32744Y-08766D01*
X32801Y-08728D01*
X33229Y-08804D02*
X33258Y-08766D01*
X33315Y-08728D01*
X33458Y-08728D01*
X33515Y-08766D01*
X33544Y-08804D01*
X33572Y-08880D01*
X33572Y-08956D01*
X33544Y-09071D01*
X33201Y-09528D01*
X33572Y-09528D01*
X34286Y-09528D02*
X34286Y-08994D01*
X34286Y-09071D02*
X34314Y-09033D01*
X34372Y-08994D01*
X34457Y-08994D01*
X34514Y-09033D01*
X34543Y-09109D01*
X34543Y-09528D01*
X34543Y-09109D02*
X34572Y-09033D01*
X34629Y-08994D01*
X34714Y-08994D01*
X34772Y-09033D01*
X34800Y-09109D01*
X34800Y-09528D01*
X35086Y-09528D02*
X35086Y-08994D01*
X35086Y-09071D02*
X35114Y-09033D01*
X35172Y-08994D01*
X35257Y-08994D01*
X35314Y-09033D01*
X35343Y-09109D01*
X35343Y-09528D01*
X35343Y-09109D02*
X35372Y-09033D01*
X35429Y-08994D01*
X35514Y-08994D01*
X35572Y-09033D01*
X35600Y-09109D01*
X35600Y-09528D01*
X13780Y-09844D02*
X53937Y-09844D01*
X13780Y-10827D02*
X13780Y-08564D01*
X53937Y-10827D02*
X53937Y-08564D01*
X53937Y-09844D02*
X53494Y-10074D01*
X53937Y-09844D02*
X53494Y-09614D01*
X13780Y-09844D02*
X14223Y-10074D01*
X13780Y-09844D02*
X14223Y-09614D01*
X34511Y-11090D02*
X34882Y-11090D01*
X34682Y-11395D01*
X34768Y-11395D01*
X34825Y-11433D01*
X34854Y-11471D01*
X34882Y-11547D01*
X34882Y-11737D01*
X34854Y-11814D01*
X34825Y-11852D01*
X34768Y-11890D01*
X34596Y-11890D01*
X34539Y-11852D01*
X34511Y-11814D01*
X35453Y-11890D02*
X35110Y-11890D01*
X35282Y-11890D02*
X35282Y-11090D01*
X35225Y-11204D01*
X35167Y-11280D01*
X35110Y-11318D01*
X36167Y-11890D02*
X36167Y-11356D01*
X36167Y-11433D02*
X36195Y-11395D01*
X36253Y-11356D01*
X36338Y-11356D01*
X36395Y-11395D01*
X36424Y-11471D01*
X36424Y-11890D01*
X36424Y-11471D02*
X36453Y-11395D01*
X36510Y-11356D01*
X36595Y-11356D01*
X36653Y-11395D01*
X36681Y-11471D01*
X36681Y-11890D01*
X36967Y-11890D02*
X36967Y-11356D01*
X36967Y-11433D02*
X36995Y-11395D01*
X37053Y-11356D01*
X37138Y-11356D01*
X37195Y-11395D01*
X37224Y-11471D01*
X37224Y-11890D01*
X37224Y-11471D02*
X37253Y-11395D01*
X37310Y-11356D01*
X37395Y-11356D01*
X37453Y-11395D01*
X37481Y-11471D01*
X37481Y-11890D01*
X29922Y-12206D02*
X42126Y-12206D01*
X29922Y-12993D02*
X29922Y-10926D01*
X42126Y-12993D02*
X42126Y-10926D01*
X42126Y-12206D02*
X41683Y-12436D01*
X42126Y-12206D02*
X41683Y-11976D01*
X29922Y-12206D02*
X30365Y-12436D01*
X29922Y-12206D02*
X30365Y-11976D01*
X22503Y-11090D02*
X22874Y-11090D01*
X22674Y-11395D01*
X22760Y-11395D01*
X22817Y-11433D01*
X22846Y-11471D01*
X22874Y-11547D01*
X22874Y-11737D01*
X22846Y-11814D01*
X22817Y-11852D01*
X22760Y-11890D01*
X22588Y-11890D01*
X22531Y-11852D01*
X22503Y-11814D01*
X23245Y-11090D02*
X23302Y-11090D01*
X23359Y-11128D01*
X23388Y-11166D01*
X23417Y-11242D01*
X23445Y-11395D01*
X23445Y-11585D01*
X23417Y-11737D01*
X23388Y-11814D01*
X23359Y-11852D01*
X23302Y-11890D01*
X23245Y-11890D01*
X23188Y-11852D01*
X23159Y-11814D01*
X23131Y-11737D01*
X23102Y-11585D01*
X23102Y-11395D01*
X23131Y-11242D01*
X23159Y-11166D01*
X23188Y-11128D01*
X23245Y-11090D01*
X24159Y-11890D02*
X24159Y-11356D01*
X24159Y-11433D02*
X24187Y-11395D01*
X24245Y-11356D01*
X24330Y-11356D01*
X24387Y-11395D01*
X24416Y-11471D01*
X24416Y-11890D01*
X24416Y-11471D02*
X24445Y-11395D01*
X24502Y-11356D01*
X24587Y-11356D01*
X24645Y-11395D01*
X24673Y-11471D01*
X24673Y-11890D01*
X24959Y-11890D02*
X24959Y-11356D01*
X24959Y-11433D02*
X24987Y-11395D01*
X25045Y-11356D01*
X25130Y-11356D01*
X25187Y-11395D01*
X25216Y-11471D01*
X25216Y-11890D01*
X25216Y-11471D02*
X25245Y-11395D01*
X25302Y-11356D01*
X25387Y-11356D01*
X25445Y-11395D01*
X25473Y-11471D01*
X25473Y-11890D01*
X18111Y-12206D02*
X29922Y-12206D01*
X18111Y-12993D02*
X18111Y-10926D01*
X29922Y-12993D02*
X29922Y-10926D01*
X29922Y-12206D02*
X29479Y-12436D01*
X29922Y-12206D02*
X29479Y-11976D01*
X18111Y-12206D02*
X18554Y-12436D01*
X18111Y-12206D02*
X18554Y-11976D01*
G54D12*
X42126Y-15749D02*
X29922Y-15749D01*
X42126Y-13780D02*
X42126Y-15749D01*
X53937Y-13780D02*
X42126Y-13780D01*
X29922Y-13780D02*
X29922Y-15749D01*
X18111Y-13780D02*
X29922Y-13780D01*
X18111Y-21654D02*
X18111Y-13780D01*
X53937Y-26772D02*
X53937Y-13780D01*
X52363Y-26772D02*
X53937Y-26772D01*
X48819Y-37008D02*
X48819Y-43308D01*
X37796Y-43308D02*
X48819Y-43308D01*
X23623Y-43308D02*
X33859Y-43308D01*
G54D11*
X14803Y-11890D02*
X14460Y-11890D01*
X14632Y-11890D02*
X14632Y-11090D01*
X14575Y-11204D01*
X14517Y-11280D01*
X14460Y-11318D01*
X15374Y-11890D02*
X15031Y-11890D01*
X15203Y-11890D02*
X15203Y-11090D01*
X15146Y-11204D01*
X15088Y-11280D01*
X15031Y-11318D01*
X16088Y-11890D02*
X16088Y-11356D01*
X16088Y-11433D02*
X16116Y-11395D01*
X16174Y-11356D01*
X16259Y-11356D01*
X16316Y-11395D01*
X16345Y-11471D01*
X16345Y-11890D01*
X16345Y-11471D02*
X16374Y-11395D01*
X16431Y-11356D01*
X16516Y-11356D01*
X16574Y-11395D01*
X16602Y-11471D01*
X16602Y-11890D01*
X16888Y-11890D02*
X16888Y-11356D01*
X16888Y-11433D02*
X16916Y-11395D01*
X16974Y-11356D01*
X17059Y-11356D01*
X17116Y-11395D01*
X17145Y-11471D01*
X17145Y-11890D01*
X17145Y-11471D02*
X17174Y-11395D01*
X17231Y-11356D01*
X17316Y-11356D01*
X17374Y-11395D01*
X17402Y-11471D01*
X17402Y-11890D01*
X13780Y-12206D02*
X18111Y-12206D01*
X13780Y-12993D02*
X13780Y-10926D01*
X18111Y-12993D02*
X18111Y-10926D01*
X18111Y-12206D02*
X17668Y-12436D01*
X18111Y-12206D02*
X17668Y-11976D01*
X13780Y-12206D02*
X14223Y-12436D01*
X13780Y-12206D02*
X14223Y-11976D01*
G54D12*
X33859Y-43308D02*
X37796Y-43308D01*
X23623Y-43308D02*
X13780Y-30709D01*
X13780Y-23623D02*
X13780Y-30709D01*
X18111Y-23623D02*
X13780Y-23623D01*
X18111Y-21654D02*
X18111Y-23623D01*
G54D13*
X52278Y-25000D02*
X52260Y-25174D01*
X52210Y-25342D01*
X52127Y-25498D01*
X52016Y-25634D01*
X51881Y-25746D01*
X51726Y-25829D01*
X51558Y-25881D01*
X51384Y-25899D01*
X51210Y-25884D01*
X51041Y-25834D01*
X50886Y-25753D01*
X50749Y-25643D01*
X50636Y-25508D01*
X50551Y-25354D01*
X50498Y-25187D01*
X50479Y-25012D01*
X50493Y-24838D01*
X50542Y-24669D01*
X50622Y-24513D01*
X50731Y-24375D01*
X50865Y-24261D01*
X51018Y-24176D01*
X51185Y-24121D01*
X51360Y-24101D01*
X51534Y-24114D01*
X51703Y-24161D01*
X51860Y-24241D01*
X51998Y-24349D01*
X52113Y-24482D01*
X52200Y-24634D01*
X52255Y-24801D01*
X52277Y-24975D01*
X52278Y-25000D01*
X20389Y-25000D02*
X20371Y-25174D01*
X20321Y-25342D01*
X20238Y-25498D01*
X20127Y-25634D01*
X19992Y-25746D01*
X19837Y-25829D01*
X19669Y-25881D01*
X19495Y-25899D01*
X19321Y-25884D01*
X19152Y-25834D01*
X18997Y-25753D01*
X18860Y-25643D01*
X18747Y-25508D01*
X18662Y-25354D01*
X18609Y-25187D01*
X18590Y-25012D01*
X18604Y-24838D01*
X18653Y-24669D01*
X18733Y-24513D01*
X18842Y-24375D01*
X18976Y-24261D01*
X19129Y-24176D01*
X19296Y-24121D01*
X19471Y-24101D01*
X19645Y-24114D01*
X19814Y-24161D01*
X19971Y-24241D01*
X20109Y-24349D01*
X20224Y-24482D01*
X20311Y-24634D01*
X20366Y-24801D01*
X20388Y-24975D01*
X20389Y-25000D01*
X36137Y-42126D02*
X36119Y-42300D01*
X36069Y-42468D01*
X35986Y-42624D01*
X35875Y-42760D01*
X35740Y-42872D01*
X35585Y-42955D01*
X35417Y-43007D01*
X35243Y-43025D01*
X35069Y-43010D01*
X34900Y-42960D01*
X34745Y-42879D01*
X34608Y-42769D01*
X34495Y-42634D01*
X34410Y-42480D01*
X34357Y-42313D01*
X34338Y-42138D01*
X34352Y-41964D01*
X34401Y-41795D01*
X34481Y-41639D01*
X34590Y-41501D01*
X34724Y-41387D01*
X34877Y-41302D01*
X35044Y-41247D01*
X35219Y-41227D01*
X35393Y-41240D01*
X35562Y-41287D01*
X35719Y-41367D01*
X35857Y-41475D01*
X35972Y-41608D01*
X36059Y-41760D01*
X36114Y-41927D01*
X36136Y-42101D01*
X36137Y-42126D01*
G54D14*
X37927Y-36921D02*
X37927Y-36971D01*
X37927Y-36971D02*
X40027Y-36971D01*
X40027Y-35471D02*
X37927Y-35471D01*
X37927Y-35471D02*
X37927Y-36921D01*
X37927Y-36021D02*
X38127Y-36021D01*
X38127Y-36021D02*
X38127Y-36421D01*
X38127Y-36421D02*
X37927Y-36421D01*
X40027Y-35471D02*
X40027Y-36971D01*
X37708Y-36905D02*
X37707Y-36914D01*
X37704Y-36924D01*
X37699Y-36932D01*
X37693Y-36940D01*
X37685Y-36946D01*
X37677Y-36951D01*
X37668Y-36953D01*
X37658Y-36954D01*
X37649Y-36954D01*
X37640Y-36951D01*
X37631Y-36946D01*
X37624Y-36940D01*
X37617Y-36933D01*
X37613Y-36924D01*
X37610Y-36915D01*
X37609Y-36905D01*
X37609Y-36896D01*
X37612Y-36887D01*
X37616Y-36878D01*
X37623Y-36871D01*
X37630Y-36864D01*
X37638Y-36860D01*
X37648Y-36857D01*
X37657Y-36856D01*
X37666Y-36856D01*
X37676Y-36859D01*
X37684Y-36863D01*
X37692Y-36869D01*
X37698Y-36877D01*
X37703Y-36885D01*
X37706Y-36894D01*
X37707Y-36904D01*
X37708Y-36905D01*
X37208Y-36905D02*
X37608Y-36905D01*
X37608Y-36905D02*
X37608Y-37505D01*
X37608Y-37505D02*
X37208Y-37505D01*
X36808Y-37505D02*
X36408Y-37505D01*
X36408Y-37505D02*
X36408Y-36905D01*
X36408Y-36905D02*
X36808Y-36905D01*
X53098Y-15099D02*
X53097Y-15108D01*
X53094Y-15118D01*
X53089Y-15126D01*
X53083Y-15134D01*
X53075Y-15140D01*
X53067Y-15145D01*
X53058Y-15147D01*
X53048Y-15148D01*
X53039Y-15148D01*
X53030Y-15145D01*
X53021Y-15140D01*
X53014Y-15134D01*
X53007Y-15127D01*
X53003Y-15118D01*
X53000Y-15109D01*
X52999Y-15099D01*
X52999Y-15090D01*
X53002Y-15081D01*
X53006Y-15072D01*
X53013Y-15065D01*
X53020Y-15058D01*
X53028Y-15054D01*
X53038Y-15051D01*
X53047Y-15050D01*
X53056Y-15050D01*
X53066Y-15053D01*
X53074Y-15057D01*
X53082Y-15063D01*
X53088Y-15071D01*
X53093Y-15079D01*
X53096Y-15088D01*
X53097Y-15098D01*
X53098Y-15099D01*
X53048Y-15549D02*
X53048Y-15149D01*
X53048Y-15149D02*
X53648Y-15149D01*
X53648Y-15149D02*
X53648Y-15549D01*
X53648Y-15949D02*
X53648Y-16349D01*
X53648Y-16349D02*
X53048Y-16349D01*
X53048Y-16349D02*
X53048Y-15949D01*
X53698Y-21910D02*
X53697Y-21919D01*
X53694Y-21929D01*
X53689Y-21937D01*
X53683Y-21945D01*
X53675Y-21951D01*
X53667Y-21956D01*
X53658Y-21958D01*
X53648Y-21959D01*
X53639Y-21959D01*
X53630Y-21956D01*
X53621Y-21951D01*
X53614Y-21945D01*
X53607Y-21938D01*
X53603Y-21929D01*
X53600Y-21920D01*
X53599Y-21910D01*
X53599Y-21901D01*
X53602Y-21892D01*
X53606Y-21883D01*
X53613Y-21876D01*
X53620Y-21869D01*
X53628Y-21865D01*
X53638Y-21862D01*
X53647Y-21861D01*
X53656Y-21861D01*
X53666Y-21864D01*
X53674Y-21868D01*
X53682Y-21874D01*
X53688Y-21882D01*
X53693Y-21890D01*
X53696Y-21899D01*
X53697Y-21909D01*
X53698Y-21910D01*
X53648Y-21460D02*
X53648Y-21860D01*
X53648Y-21860D02*
X53048Y-21860D01*
X53048Y-21860D02*
X53048Y-21460D01*
X53048Y-21060D02*
X53048Y-20660D01*
X53048Y-20660D02*
X53648Y-20660D01*
X53648Y-20660D02*
X53648Y-21060D01*
X51916Y-15099D02*
X51915Y-15108D01*
X51912Y-15118D01*
X51907Y-15126D01*
X51901Y-15134D01*
X51893Y-15140D01*
X51885Y-15145D01*
X51876Y-15147D01*
X51866Y-15148D01*
X51857Y-15148D01*
X51848Y-15145D01*
X51839Y-15140D01*
X51832Y-15134D01*
X51825Y-15127D01*
X51821Y-15118D01*
X51818Y-15109D01*
X51817Y-15099D01*
X51817Y-15090D01*
X51820Y-15081D01*
X51824Y-15072D01*
X51831Y-15065D01*
X51838Y-15058D01*
X51846Y-15054D01*
X51856Y-15051D01*
X51865Y-15050D01*
X51874Y-15050D01*
X51884Y-15053D01*
X51892Y-15057D01*
X51900Y-15063D01*
X51906Y-15071D01*
X51911Y-15079D01*
X51914Y-15088D01*
X51915Y-15098D01*
X51916Y-15099D01*
X51866Y-15549D02*
X51866Y-15149D01*
X51866Y-15149D02*
X52466Y-15149D01*
X52466Y-15149D02*
X52466Y-15549D01*
X52466Y-15949D02*
X52466Y-16349D01*
X52466Y-16349D02*
X51866Y-16349D01*
X51866Y-16349D02*
X51866Y-15949D01*
X52516Y-21910D02*
X52515Y-21919D01*
X52512Y-21929D01*
X52507Y-21937D01*
X52501Y-21945D01*
X52493Y-21951D01*
X52485Y-21956D01*
X52476Y-21958D01*
X52466Y-21959D01*
X52457Y-21959D01*
X52448Y-21956D01*
X52439Y-21951D01*
X52432Y-21945D01*
X52425Y-21938D01*
X52421Y-21929D01*
X52418Y-21920D01*
X52417Y-21910D01*
X52417Y-21901D01*
X52420Y-21892D01*
X52424Y-21883D01*
X52431Y-21876D01*
X52438Y-21869D01*
X52446Y-21865D01*
X52456Y-21862D01*
X52465Y-21861D01*
X52474Y-21861D01*
X52484Y-21864D01*
X52492Y-21868D01*
X52500Y-21874D01*
X52506Y-21882D01*
X52511Y-21890D01*
X52514Y-21899D01*
X52515Y-21909D01*
X52516Y-21910D01*
X52466Y-21460D02*
X52466Y-21860D01*
X52466Y-21860D02*
X51866Y-21860D01*
X51866Y-21860D02*
X51866Y-21460D01*
X51866Y-21060D02*
X51866Y-20660D01*
X51866Y-20660D02*
X52466Y-20660D01*
X52466Y-20660D02*
X52466Y-21060D01*
X50735Y-15099D02*
X50734Y-15108D01*
X50731Y-15118D01*
X50726Y-15126D01*
X50720Y-15134D01*
X50712Y-15140D01*
X50704Y-15145D01*
X50695Y-15147D01*
X50685Y-15148D01*
X50676Y-15148D01*
X50667Y-15145D01*
X50658Y-15140D01*
X50651Y-15134D01*
X50644Y-15127D01*
X50640Y-15118D01*
X50637Y-15109D01*
X50636Y-15099D01*
X50636Y-15090D01*
X50639Y-15081D01*
X50643Y-15072D01*
X50650Y-15065D01*
X50657Y-15058D01*
X50665Y-15054D01*
X50675Y-15051D01*
X50684Y-15050D01*
X50693Y-15050D01*
X50703Y-15053D01*
X50711Y-15057D01*
X50719Y-15063D01*
X50725Y-15071D01*
X50730Y-15079D01*
X50733Y-15088D01*
X50734Y-15098D01*
X50735Y-15099D01*
X50685Y-15549D02*
X50685Y-15149D01*
X50685Y-15149D02*
X51285Y-15149D01*
X51285Y-15149D02*
X51285Y-15549D01*
X51285Y-15949D02*
X51285Y-16349D01*
X51285Y-16349D02*
X50685Y-16349D01*
X50685Y-16349D02*
X50685Y-15949D01*
X51335Y-21910D02*
X51334Y-21919D01*
X51331Y-21929D01*
X51326Y-21937D01*
X51320Y-21945D01*
X51312Y-21951D01*
X51304Y-21956D01*
X51295Y-21958D01*
X51285Y-21959D01*
X51276Y-21959D01*
X51267Y-21956D01*
X51258Y-21951D01*
X51251Y-21945D01*
X51244Y-21938D01*
X51240Y-21929D01*
X51237Y-21920D01*
X51236Y-21910D01*
X51236Y-21901D01*
X51239Y-21892D01*
X51243Y-21883D01*
X51250Y-21876D01*
X51257Y-21869D01*
X51265Y-21865D01*
X51275Y-21862D01*
X51284Y-21861D01*
X51293Y-21861D01*
X51303Y-21864D01*
X51311Y-21868D01*
X51319Y-21874D01*
X51325Y-21882D01*
X51330Y-21890D01*
X51333Y-21899D01*
X51334Y-21909D01*
X51335Y-21910D01*
X51285Y-21460D02*
X51285Y-21860D01*
X51285Y-21860D02*
X50685Y-21860D01*
X50685Y-21860D02*
X50685Y-21460D01*
X50685Y-21060D02*
X50685Y-20660D01*
X50685Y-20660D02*
X51285Y-20660D01*
X51285Y-20660D02*
X51285Y-21060D01*
X49554Y-15099D02*
X49553Y-15108D01*
X49550Y-15118D01*
X49545Y-15126D01*
X49539Y-15134D01*
X49531Y-15140D01*
X49523Y-15145D01*
X49514Y-15147D01*
X49504Y-15148D01*
X49495Y-15148D01*
X49486Y-15145D01*
X49477Y-15140D01*
X49470Y-15134D01*
X49463Y-15127D01*
X49459Y-15118D01*
X49456Y-15109D01*
X49455Y-15099D01*
X49455Y-15090D01*
X49458Y-15081D01*
X49462Y-15072D01*
X49469Y-15065D01*
X49476Y-15058D01*
X49484Y-15054D01*
X49494Y-15051D01*
X49503Y-15050D01*
X49512Y-15050D01*
X49522Y-15053D01*
X49530Y-15057D01*
X49538Y-15063D01*
X49544Y-15071D01*
X49549Y-15079D01*
X49552Y-15088D01*
X49553Y-15098D01*
X49554Y-15099D01*
X49504Y-15549D02*
X49504Y-15149D01*
X49504Y-15149D02*
X50104Y-15149D01*
X50104Y-15149D02*
X50104Y-15549D01*
X50104Y-15949D02*
X50104Y-16349D01*
X50104Y-16349D02*
X49504Y-16349D01*
X49504Y-16349D02*
X49504Y-15949D01*
X50154Y-21910D02*
X50153Y-21919D01*
X50150Y-21929D01*
X50145Y-21937D01*
X50139Y-21945D01*
X50131Y-21951D01*
X50123Y-21956D01*
X50114Y-21958D01*
X50104Y-21959D01*
X50095Y-21959D01*
X50086Y-21956D01*
X50077Y-21951D01*
X50070Y-21945D01*
X50063Y-21938D01*
X50059Y-21929D01*
X50056Y-21920D01*
X50055Y-21910D01*
X50055Y-21901D01*
X50058Y-21892D01*
X50062Y-21883D01*
X50069Y-21876D01*
X50076Y-21869D01*
X50084Y-21865D01*
X50094Y-21862D01*
X50103Y-21861D01*
X50112Y-21861D01*
X50122Y-21864D01*
X50130Y-21868D01*
X50138Y-21874D01*
X50144Y-21882D01*
X50149Y-21890D01*
X50152Y-21899D01*
X50153Y-21909D01*
X50154Y-21910D01*
X50104Y-21460D02*
X50104Y-21860D01*
X50104Y-21860D02*
X49504Y-21860D01*
X49504Y-21860D02*
X49504Y-21460D01*
X49504Y-21060D02*
X49504Y-20660D01*
X49504Y-20660D02*
X50104Y-20660D01*
X50104Y-20660D02*
X50104Y-21060D01*
X48373Y-15099D02*
X48372Y-15108D01*
X48369Y-15118D01*
X48364Y-15126D01*
X48358Y-15134D01*
X48350Y-15140D01*
X48342Y-15145D01*
X48333Y-15147D01*
X48323Y-15148D01*
X48314Y-15148D01*
X48305Y-15145D01*
X48296Y-15140D01*
X48289Y-15134D01*
X48282Y-15127D01*
X48278Y-15118D01*
X48275Y-15109D01*
X48274Y-15099D01*
X48274Y-15090D01*
X48277Y-15081D01*
X48281Y-15072D01*
X48288Y-15065D01*
X48295Y-15058D01*
X48303Y-15054D01*
X48313Y-15051D01*
X48322Y-15050D01*
X48331Y-15050D01*
X48341Y-15053D01*
X48349Y-15057D01*
X48357Y-15063D01*
X48363Y-15071D01*
X48368Y-15079D01*
X48371Y-15088D01*
X48372Y-15098D01*
X48373Y-15099D01*
X48323Y-15549D02*
X48323Y-15149D01*
X48323Y-15149D02*
X48923Y-15149D01*
X48923Y-15149D02*
X48923Y-15549D01*
X48923Y-15949D02*
X48923Y-16349D01*
X48923Y-16349D02*
X48323Y-16349D01*
X48323Y-16349D02*
X48323Y-15949D01*
X48973Y-21910D02*
X48972Y-21919D01*
X48969Y-21929D01*
X48964Y-21937D01*
X48958Y-21945D01*
X48950Y-21951D01*
X48942Y-21956D01*
X48933Y-21958D01*
X48923Y-21959D01*
X48914Y-21959D01*
X48905Y-21956D01*
X48896Y-21951D01*
X48889Y-21945D01*
X48882Y-21938D01*
X48878Y-21929D01*
X48875Y-21920D01*
X48874Y-21910D01*
X48874Y-21901D01*
X48877Y-21892D01*
X48881Y-21883D01*
X48888Y-21876D01*
X48895Y-21869D01*
X48903Y-21865D01*
X48913Y-21862D01*
X48922Y-21861D01*
X48931Y-21861D01*
X48941Y-21864D01*
X48949Y-21868D01*
X48957Y-21874D01*
X48963Y-21882D01*
X48968Y-21890D01*
X48971Y-21899D01*
X48972Y-21909D01*
X48973Y-21910D01*
X48923Y-21460D02*
X48923Y-21860D01*
X48923Y-21860D02*
X48323Y-21860D01*
X48323Y-21860D02*
X48323Y-21460D01*
X48323Y-21060D02*
X48323Y-20660D01*
X48323Y-20660D02*
X48923Y-20660D01*
X48923Y-20660D02*
X48923Y-21060D01*
X47193Y-15099D02*
X47192Y-15108D01*
X47189Y-15118D01*
X47184Y-15126D01*
X47178Y-15134D01*
X47170Y-15140D01*
X47162Y-15145D01*
X47153Y-15147D01*
X47143Y-15148D01*
X47134Y-15148D01*
X47125Y-15145D01*
X47116Y-15140D01*
X47109Y-15134D01*
X47102Y-15127D01*
X47098Y-15118D01*
X47095Y-15109D01*
X47094Y-15099D01*
X47094Y-15090D01*
X47097Y-15081D01*
X47101Y-15072D01*
X47108Y-15065D01*
X47115Y-15058D01*
X47123Y-15054D01*
X47133Y-15051D01*
X47142Y-15050D01*
X47151Y-15050D01*
X47161Y-15053D01*
X47169Y-15057D01*
X47177Y-15063D01*
X47183Y-15071D01*
X47188Y-15079D01*
X47191Y-15088D01*
X47192Y-15098D01*
X47193Y-15099D01*
X47143Y-15549D02*
X47143Y-15149D01*
X47143Y-15149D02*
X47743Y-15149D01*
X47743Y-15149D02*
X47743Y-15549D01*
X47743Y-15949D02*
X47743Y-16349D01*
X47743Y-16349D02*
X47143Y-16349D01*
X47143Y-16349D02*
X47143Y-15949D01*
X47793Y-21910D02*
X47792Y-21919D01*
X47789Y-21929D01*
X47784Y-21937D01*
X47778Y-21945D01*
X47770Y-21951D01*
X47762Y-21956D01*
X47753Y-21958D01*
X47743Y-21959D01*
X47734Y-21959D01*
X47725Y-21956D01*
X47716Y-21951D01*
X47709Y-21945D01*
X47702Y-21938D01*
X47698Y-21929D01*
X47695Y-21920D01*
X47694Y-21910D01*
X47694Y-21901D01*
X47697Y-21892D01*
X47701Y-21883D01*
X47708Y-21876D01*
X47715Y-21869D01*
X47723Y-21865D01*
X47733Y-21862D01*
X47742Y-21861D01*
X47751Y-21861D01*
X47761Y-21864D01*
X47769Y-21868D01*
X47777Y-21874D01*
X47783Y-21882D01*
X47788Y-21890D01*
X47791Y-21899D01*
X47792Y-21909D01*
X47793Y-21910D01*
X47743Y-21460D02*
X47743Y-21860D01*
X47743Y-21860D02*
X47143Y-21860D01*
X47143Y-21860D02*
X47143Y-21460D01*
X47143Y-21060D02*
X47143Y-20660D01*
X47143Y-20660D02*
X47743Y-20660D01*
X47743Y-20660D02*
X47743Y-21060D01*
X46011Y-15099D02*
X46010Y-15108D01*
X46007Y-15118D01*
X46002Y-15126D01*
X45996Y-15134D01*
X45988Y-15140D01*
X45980Y-15145D01*
X45971Y-15147D01*
X45961Y-15148D01*
X45952Y-15148D01*
X45943Y-15145D01*
X45934Y-15140D01*
X45927Y-15134D01*
X45920Y-15127D01*
X45916Y-15118D01*
X45913Y-15109D01*
X45912Y-15099D01*
X45912Y-15090D01*
X45915Y-15081D01*
X45919Y-15072D01*
X45926Y-15065D01*
X45933Y-15058D01*
X45941Y-15054D01*
X45951Y-15051D01*
X45960Y-15050D01*
X45969Y-15050D01*
X45979Y-15053D01*
X45987Y-15057D01*
X45995Y-15063D01*
X46001Y-15071D01*
X46006Y-15079D01*
X46009Y-15088D01*
X46010Y-15098D01*
X46011Y-15099D01*
X45961Y-15549D02*
X45961Y-15149D01*
X45961Y-15149D02*
X46561Y-15149D01*
X46561Y-15149D02*
X46561Y-15549D01*
X46561Y-15949D02*
X46561Y-16349D01*
X46561Y-16349D02*
X45961Y-16349D01*
X45961Y-16349D02*
X45961Y-15949D01*
X46611Y-21910D02*
X46610Y-21919D01*
X46607Y-21929D01*
X46602Y-21937D01*
X46596Y-21945D01*
X46588Y-21951D01*
X46580Y-21956D01*
X46571Y-21958D01*
X46561Y-21959D01*
X46552Y-21959D01*
X46543Y-21956D01*
X46534Y-21951D01*
X46527Y-21945D01*
X46520Y-21938D01*
X46516Y-21929D01*
X46513Y-21920D01*
X46512Y-21910D01*
X46512Y-21901D01*
X46515Y-21892D01*
X46519Y-21883D01*
X46526Y-21876D01*
X46533Y-21869D01*
X46541Y-21865D01*
X46551Y-21862D01*
X46560Y-21861D01*
X46569Y-21861D01*
X46579Y-21864D01*
X46587Y-21868D01*
X46595Y-21874D01*
X46601Y-21882D01*
X46606Y-21890D01*
X46609Y-21899D01*
X46610Y-21909D01*
X46611Y-21910D01*
X46561Y-21460D02*
X46561Y-21860D01*
X46561Y-21860D02*
X45961Y-21860D01*
X45961Y-21860D02*
X45961Y-21460D01*
X45961Y-21060D02*
X45961Y-20660D01*
X45961Y-20660D02*
X46561Y-20660D01*
X46561Y-20660D02*
X46561Y-21060D01*
X44830Y-15099D02*
X44829Y-15108D01*
X44826Y-15118D01*
X44821Y-15126D01*
X44815Y-15134D01*
X44807Y-15140D01*
X44799Y-15145D01*
X44790Y-15147D01*
X44780Y-15148D01*
X44771Y-15148D01*
X44762Y-15145D01*
X44753Y-15140D01*
X44746Y-15134D01*
X44739Y-15127D01*
X44735Y-15118D01*
X44732Y-15109D01*
X44731Y-15099D01*
X44731Y-15090D01*
X44734Y-15081D01*
X44738Y-15072D01*
X44745Y-15065D01*
X44752Y-15058D01*
X44760Y-15054D01*
X44770Y-15051D01*
X44779Y-15050D01*
X44788Y-15050D01*
X44798Y-15053D01*
X44806Y-15057D01*
X44814Y-15063D01*
X44820Y-15071D01*
X44825Y-15079D01*
X44828Y-15088D01*
X44829Y-15098D01*
X44830Y-15099D01*
X44780Y-15549D02*
X44780Y-15149D01*
X44780Y-15149D02*
X45380Y-15149D01*
X45380Y-15149D02*
X45380Y-15549D01*
X45380Y-15949D02*
X45380Y-16349D01*
X45380Y-16349D02*
X44780Y-16349D01*
X44780Y-16349D02*
X44780Y-15949D01*
X45430Y-21910D02*
X45429Y-21919D01*
X45426Y-21929D01*
X45421Y-21937D01*
X45415Y-21945D01*
X45407Y-21951D01*
X45399Y-21956D01*
X45390Y-21958D01*
X45380Y-21959D01*
X45371Y-21959D01*
X45362Y-21956D01*
X45353Y-21951D01*
X45346Y-21945D01*
X45339Y-21938D01*
X45335Y-21929D01*
X45332Y-21920D01*
X45331Y-21910D01*
X45331Y-21901D01*
X45334Y-21892D01*
X45338Y-21883D01*
X45345Y-21876D01*
X45352Y-21869D01*
X45360Y-21865D01*
X45370Y-21862D01*
X45379Y-21861D01*
X45388Y-21861D01*
X45398Y-21864D01*
X45406Y-21868D01*
X45414Y-21874D01*
X45420Y-21882D01*
X45425Y-21890D01*
X45428Y-21899D01*
X45429Y-21909D01*
X45430Y-21910D01*
X45380Y-21460D02*
X45380Y-21860D01*
X45380Y-21860D02*
X44780Y-21860D01*
X44780Y-21860D02*
X44780Y-21460D01*
X44780Y-21060D02*
X44780Y-20660D01*
X44780Y-20660D02*
X45380Y-20660D01*
X45380Y-20660D02*
X45380Y-21060D01*
G54D15*
X25768Y-18079D02*
X25668Y-18079D01*
X25768Y-18579D02*
X25668Y-18579D01*
X25768Y-19079D02*
X25668Y-19079D01*
X25768Y-19579D02*
X25668Y-19579D01*
X25768Y-20079D02*
X25668Y-20079D01*
X25768Y-20579D02*
X25668Y-20579D01*
X25768Y-21079D02*
X25668Y-21079D01*
X25768Y-21579D02*
X25668Y-21579D01*
X25768Y-22079D02*
X25668Y-22079D01*
X25668Y-17579D02*
X25768Y-17579D01*
X25768Y-17579D02*
X25768Y-22579D01*
X25768Y-22579D02*
X25668Y-22579D01*
X19508Y-17579D02*
X19508Y-22579D01*
X19508Y-17579D02*
X19608Y-17579D01*
X19508Y-18079D02*
X19608Y-18079D01*
X19508Y-18579D02*
X19608Y-18579D01*
X19508Y-19079D02*
X19608Y-19079D01*
X19508Y-19579D02*
X19608Y-19579D01*
X19508Y-20079D02*
X19608Y-20079D01*
X19508Y-20579D02*
X19608Y-20579D01*
X19508Y-21079D02*
X19608Y-21079D01*
X19508Y-21579D02*
X19608Y-21579D01*
X19508Y-22079D02*
X19608Y-22079D01*
X19508Y-22579D02*
X19608Y-22579D01*
G54D16*
X20434Y-23173D02*
X20434Y-17497D01*
X20434Y-17497D02*
X20946Y-16985D01*
X20946Y-16985D02*
X22127Y-16985D01*
X22127Y-16985D02*
X22127Y-17245D01*
X22127Y-17245D02*
X23189Y-17245D01*
X23189Y-17245D02*
X23189Y-16985D01*
X23189Y-16985D02*
X24842Y-16985D01*
X24842Y-16985D02*
X24842Y-23173D01*
X24842Y-23173D02*
X23149Y-23173D01*
X22087Y-23173D02*
X20434Y-23173D01*
X23149Y-23173D02*
X23149Y-22913D01*
X23149Y-22913D02*
X22087Y-22913D01*
X22087Y-22913D02*
X22087Y-23173D01*
G54D15*
X27343Y-29103D02*
X27243Y-29103D01*
X27343Y-29603D02*
X27243Y-29603D01*
X27343Y-30103D02*
X27243Y-30103D01*
X27343Y-30603D02*
X27243Y-30603D01*
X27343Y-31103D02*
X27243Y-31103D01*
X27343Y-31603D02*
X27243Y-31603D01*
X27343Y-32103D02*
X27243Y-32103D01*
X27343Y-32603D02*
X27243Y-32603D01*
X27343Y-33103D02*
X27243Y-33103D01*
X27243Y-28603D02*
X27343Y-28603D01*
X27343Y-28603D02*
X27343Y-33603D01*
X27343Y-33603D02*
X27243Y-33603D01*
X21083Y-28603D02*
X21083Y-33603D01*
X21083Y-28603D02*
X21183Y-28603D01*
X21083Y-29103D02*
X21183Y-29103D01*
X21083Y-29603D02*
X21183Y-29603D01*
X21083Y-30103D02*
X21183Y-30103D01*
X21083Y-30603D02*
X21183Y-30603D01*
X21083Y-31103D02*
X21183Y-31103D01*
X21083Y-31603D02*
X21183Y-31603D01*
X21083Y-32103D02*
X21183Y-32103D01*
X21083Y-32603D02*
X21183Y-32603D01*
X21083Y-33103D02*
X21183Y-33103D01*
X21083Y-33603D02*
X21183Y-33603D01*
G54D16*
X22009Y-34197D02*
X22009Y-28521D01*
X22009Y-28521D02*
X22521Y-28009D01*
X22521Y-28009D02*
X23702Y-28009D01*
X23702Y-28009D02*
X23702Y-28269D01*
X23702Y-28269D02*
X24764Y-28269D01*
X24764Y-28269D02*
X24764Y-28009D01*
X24764Y-28009D02*
X26417Y-28009D01*
X26417Y-28009D02*
X26417Y-34197D01*
X26417Y-34197D02*
X24724Y-34197D01*
X23662Y-34197D02*
X22009Y-34197D01*
X24724Y-34197D02*
X24724Y-33937D01*
X24724Y-33937D02*
X23662Y-33937D01*
X23662Y-33937D02*
X23662Y-34197D01*
G54D15*
X35268Y-29312D02*
X35268Y-29212D01*
X34768Y-29312D02*
X34768Y-29212D01*
X34268Y-29312D02*
X34268Y-29212D01*
X33768Y-29312D02*
X33768Y-29212D01*
X33268Y-29312D02*
X33268Y-29212D01*
X32768Y-29312D02*
X32768Y-29212D01*
X32268Y-29312D02*
X32268Y-29212D01*
X31768Y-29312D02*
X31768Y-29212D01*
X31268Y-29312D02*
X31268Y-29212D01*
X35768Y-29212D02*
X35768Y-29312D01*
X35768Y-29312D02*
X30768Y-29312D01*
X30768Y-29312D02*
X30768Y-29212D01*
X35768Y-23052D02*
X30768Y-23052D01*
X35768Y-23052D02*
X35768Y-23152D01*
X35268Y-23052D02*
X35268Y-23152D01*
X34768Y-23052D02*
X34768Y-23152D01*
X34268Y-23052D02*
X34268Y-23152D01*
X33768Y-23052D02*
X33768Y-23152D01*
X33268Y-23052D02*
X33268Y-23152D01*
X32768Y-23052D02*
X32768Y-23152D01*
X32268Y-23052D02*
X32268Y-23152D01*
X31768Y-23052D02*
X31768Y-23152D01*
X31268Y-23052D02*
X31268Y-23152D01*
X30768Y-23052D02*
X30768Y-23152D01*
G54D16*
X30174Y-23978D02*
X35850Y-23978D01*
X35850Y-23978D02*
X36362Y-24490D01*
X36362Y-24490D02*
X36362Y-25671D01*
X36362Y-25671D02*
X36102Y-25671D01*
X36102Y-25671D02*
X36102Y-26733D01*
X36102Y-26733D02*
X36362Y-26733D01*
X36362Y-26733D02*
X36362Y-28386D01*
X36362Y-28386D02*
X30174Y-28386D01*
X30174Y-28386D02*
X30174Y-26693D01*
X30174Y-25631D02*
X30174Y-23978D01*
X30174Y-26693D02*
X30434Y-26693D01*
X30434Y-26693D02*
X30434Y-25631D01*
X30434Y-25631D02*
X30174Y-25631D01*
G54D15*
X45060Y-25756D02*
X44960Y-25756D01*
X45060Y-26256D02*
X44960Y-26256D01*
X45060Y-26756D02*
X44960Y-26756D01*
X45060Y-27256D02*
X44960Y-27256D01*
X45060Y-27756D02*
X44960Y-27756D01*
X45060Y-28256D02*
X44960Y-28256D01*
X45060Y-28756D02*
X44960Y-28756D01*
X45060Y-29256D02*
X44960Y-29256D01*
X45060Y-29756D02*
X44960Y-29756D01*
X44960Y-25256D02*
X45060Y-25256D01*
X45060Y-25256D02*
X45060Y-30256D01*
X45060Y-30256D02*
X44960Y-30256D01*
X38800Y-25256D02*
X38800Y-30256D01*
X38800Y-25256D02*
X38900Y-25256D01*
X38800Y-25756D02*
X38900Y-25756D01*
X38800Y-26256D02*
X38900Y-26256D01*
X38800Y-26756D02*
X38900Y-26756D01*
X38800Y-27256D02*
X38900Y-27256D01*
X38800Y-27756D02*
X38900Y-27756D01*
X38800Y-28256D02*
X38900Y-28256D01*
X38800Y-28756D02*
X38900Y-28756D01*
X38800Y-29256D02*
X38900Y-29256D01*
X38800Y-29756D02*
X38900Y-29756D01*
X38800Y-30256D02*
X38900Y-30256D01*
G54D16*
X39726Y-30850D02*
X39726Y-25174D01*
X39726Y-25174D02*
X40238Y-24662D01*
X40238Y-24662D02*
X41419Y-24662D01*
X41419Y-24662D02*
X41419Y-24922D01*
X41419Y-24922D02*
X42481Y-24922D01*
X42481Y-24922D02*
X42481Y-24662D01*
X42481Y-24662D02*
X44134Y-24662D01*
X44134Y-24662D02*
X44134Y-30850D01*
X44134Y-30850D02*
X42441Y-30850D01*
X41379Y-30850D02*
X39726Y-30850D01*
X42441Y-30850D02*
X42441Y-30590D01*
X42441Y-30590D02*
X41379Y-30590D01*
X41379Y-30590D02*
X41379Y-30850D01*
G54D17*
X34450Y-40354D02*
X34842Y-40354D01*
X34842Y-40354D02*
X34842Y-40157D01*
X34450Y-40157D02*
X34842Y-40157D01*
X34450Y-40354D02*
X34450Y-40157D01*
G54D14*
X31891Y-40354D02*
X37401Y-40354D01*
X37401Y-40354D02*
X37401Y-38583D01*
X31891Y-40354D02*
X31891Y-38583D01*
X31891Y-38583D02*
X37401Y-38583D01*
G54D17*
X28741Y-43110D02*
X29133Y-43110D01*
X29133Y-43110D02*
X29133Y-42913D01*
X28741Y-42913D02*
X29133Y-42913D01*
X28741Y-43110D02*
X28741Y-42913D01*
G54D14*
X26969Y-43110D02*
X30905Y-43110D01*
X30905Y-43110D02*
X30905Y-41339D01*
X26969Y-43110D02*
X26969Y-41339D01*
X26969Y-41339D02*
X30905Y-41339D01*
G54D17*
X51074Y-28986D02*
X51202Y-28615D01*
X51202Y-28615D02*
X51016Y-28551D01*
X50888Y-28921D02*
X51016Y-28551D01*
X51074Y-28986D02*
X50888Y-28921D01*
G54D14*
X50497Y-30661D02*
X51779Y-26939D01*
X51779Y-26939D02*
X50104Y-26363D01*
X50497Y-30661D02*
X48823Y-30084D01*
X48823Y-30084D02*
X50104Y-26363D01*
G54D17*
X15748Y-27361D02*
X15748Y-26969D01*
X15748Y-26969D02*
X15551Y-26969D01*
X15551Y-27361D02*
X15551Y-26969D01*
X15748Y-27361D02*
X15551Y-27361D01*
G54D14*
X15748Y-29133D02*
X15748Y-25197D01*
X15748Y-25197D02*
X13977Y-25197D01*
X15748Y-29133D02*
X13977Y-29133D01*
X13977Y-29133D02*
X13977Y-25197D01*
G54D17*
X39765Y-43110D02*
X40157Y-43110D01*
X40157Y-43110D02*
X40157Y-42913D01*
X39765Y-42913D02*
X40157Y-42913D01*
X39765Y-43110D02*
X39765Y-42913D01*
G54D14*
X37993Y-43110D02*
X41929Y-43110D01*
X41929Y-43110D02*
X41929Y-41339D01*
X37993Y-43110D02*
X37993Y-41339D01*
X37993Y-41339D02*
X41929Y-41339D01*
G54D17*
X32480Y-43110D02*
X32874Y-43110D01*
X32874Y-43110D02*
X32874Y-42913D01*
X32480Y-42913D02*
X32874Y-42913D01*
X32480Y-43110D02*
X32480Y-42913D01*
G54D14*
X31497Y-43110D02*
X33858Y-43110D01*
X33858Y-43110D02*
X33858Y-41339D01*
X31497Y-43110D02*
X31497Y-41339D01*
X31497Y-41339D02*
X33858Y-41339D01*
G54D17*
X25395Y-41339D02*
X25001Y-41339D01*
X25001Y-41339D02*
X25001Y-41536D01*
X25395Y-41536D02*
X25001Y-41536D01*
X25395Y-41339D02*
X25395Y-41536D01*
G54D14*
X26378Y-41339D02*
X24017Y-41339D01*
X24017Y-41339D02*
X24017Y-43110D01*
X26378Y-41339D02*
X26378Y-43110D01*
X26378Y-43110D02*
X24017Y-43110D01*
G54D17*
X43504Y-43110D02*
X43898Y-43110D01*
X43898Y-43110D02*
X43898Y-42913D01*
X43504Y-42913D02*
X43898Y-42913D01*
X43504Y-43110D02*
X43504Y-42913D01*
G54D14*
X42521Y-43110D02*
X44882Y-43110D01*
X44882Y-43110D02*
X44882Y-41339D01*
X42521Y-43110D02*
X42521Y-41339D01*
X42521Y-41339D02*
X44882Y-41339D01*
G54D16*
X36087Y-18023D02*
X36087Y-15623D01*
X34387Y-18023D02*
X34387Y-15623D01*
X44237Y-19173D02*
X26237Y-19173D01*
X26237Y-19173D02*
X26237Y-15623D01*
X26237Y-15623D02*
X44237Y-15623D01*
X44237Y-15623D02*
X44237Y-19173D01*
X28237Y-16248D02*
X28037Y-16548D01*
X28037Y-16548D02*
X28437Y-16548D01*
X28437Y-16548D02*
X28237Y-16248D01*
X34387Y-18023D02*
X36087Y-18023D01*
G54D17*
X48041Y-28228D02*
X47215Y-28228D01*
X48041Y-28346D02*
X47215Y-28346D01*
G54D18*
X47245Y-28858D02*
X47245Y-27048D01*
G54D16*
X48012Y-27048D02*
X48012Y-28858D01*
G54D17*
X47638Y-28227D02*
X47343Y-27815D01*
X47343Y-27815D02*
X47913Y-27815D01*
X47913Y-27815D02*
X47638Y-28227D01*
X48810Y-25119D02*
X49636Y-25119D01*
X48810Y-25001D02*
X49636Y-25001D01*
G54D18*
X49606Y-24489D02*
X49606Y-26299D01*
G54D16*
X48839Y-26299D02*
X48839Y-24489D01*
G54D17*
X49213Y-25120D02*
X49508Y-25532D01*
X49508Y-25532D02*
X48938Y-25532D01*
X48938Y-25532D02*
X49213Y-25120D01*
X17795Y-27353D02*
X17795Y-28179D01*
X17913Y-27353D02*
X17913Y-28179D01*
G54D18*
X18425Y-28149D02*
X16615Y-28149D01*
G54D16*
X16615Y-27382D02*
X18425Y-27382D01*
G54D17*
X17794Y-27756D02*
X17382Y-28051D01*
X17382Y-28051D02*
X17382Y-27481D01*
X17382Y-27481D02*
X17794Y-27756D01*
X16330Y-25119D02*
X17156Y-25119D01*
X16330Y-25001D02*
X17156Y-25001D01*
G54D18*
X17126Y-24489D02*
X17126Y-26299D01*
G54D16*
X16359Y-26299D02*
X16359Y-24489D01*
G54D17*
X16733Y-25120D02*
X17028Y-25532D01*
X17028Y-25532D02*
X16458Y-25532D01*
X16458Y-25532D02*
X16733Y-25120D01*
X46448Y-40474D02*
X47274Y-40474D01*
X46448Y-40356D02*
X47274Y-40356D01*
G54D18*
X47244Y-39844D02*
X47244Y-41654D01*
G54D16*
X46477Y-41654D02*
X46477Y-39844D01*
G54D17*
X46851Y-40475D02*
X47146Y-40887D01*
X47146Y-40887D02*
X46576Y-40887D01*
X46576Y-40887D02*
X46851Y-40475D01*
X42245Y-40364D02*
X42245Y-39538D01*
X42127Y-40364D02*
X42127Y-39538D01*
G54D18*
X41615Y-39568D02*
X43425Y-39568D01*
G54D16*
X43425Y-40335D02*
X41615Y-40335D01*
G54D17*
X42246Y-39961D02*
X42658Y-39666D01*
X42658Y-39666D02*
X42658Y-40236D01*
X42658Y-40236D02*
X42246Y-39961D01*
X29322Y-31812D02*
X30148Y-31812D01*
X29322Y-31694D02*
X30148Y-31694D01*
G54D18*
X30118Y-31182D02*
X30118Y-32992D01*
G54D16*
X29351Y-32992D02*
X29351Y-31182D01*
G54D17*
X29725Y-31813D02*
X30020Y-32225D01*
X30020Y-32225D02*
X29450Y-32225D01*
X29450Y-32225D02*
X29725Y-31813D01*
X31094Y-31812D02*
X31920Y-31812D01*
X31094Y-31694D02*
X31920Y-31694D01*
G54D18*
X31890Y-31182D02*
X31890Y-32992D01*
G54D16*
X31123Y-32992D02*
X31123Y-31182D01*
G54D17*
X31497Y-31813D02*
X31792Y-32225D01*
X31792Y-32225D02*
X31222Y-32225D01*
X31222Y-32225D02*
X31497Y-31813D01*
X23348Y-38986D02*
X23348Y-38160D01*
X23230Y-38986D02*
X23230Y-38160D01*
G54D18*
X22718Y-38190D02*
X24528Y-38190D01*
G54D16*
X24528Y-38957D02*
X22718Y-38957D01*
G54D17*
X23349Y-38583D02*
X23761Y-38288D01*
X23761Y-38288D02*
X23761Y-38858D01*
X23761Y-38858D02*
X23349Y-38583D01*
X23348Y-40758D02*
X23348Y-39932D01*
X23230Y-40758D02*
X23230Y-39932D01*
G54D18*
X22718Y-39962D02*
X24528Y-39962D01*
G54D16*
X24528Y-40729D02*
X22718Y-40729D01*
G54D17*
X23349Y-40355D02*
X23761Y-40060D01*
X23761Y-40060D02*
X23761Y-40630D01*
X23761Y-40630D02*
X23349Y-40355D01*
X28928Y-38899D02*
X29754Y-38899D01*
X28928Y-38781D02*
X29754Y-38781D01*
G54D18*
X29724Y-38269D02*
X29724Y-40079D01*
G54D16*
X28957Y-40079D02*
X28957Y-38269D01*
G54D17*
X29331Y-38900D02*
X29626Y-39312D01*
X29626Y-39312D02*
X29056Y-39312D01*
X29056Y-39312D02*
X29331Y-38900D01*
X17795Y-29125D02*
X17795Y-29951D01*
X17913Y-29125D02*
X17913Y-29951D01*
G54D18*
X18425Y-29921D02*
X16615Y-29921D01*
G54D16*
X16615Y-29154D02*
X18425Y-29154D01*
G54D17*
X17794Y-29528D02*
X17382Y-29823D01*
X17382Y-29823D02*
X17382Y-29253D01*
X17382Y-29253D02*
X17794Y-29528D01*
X18779Y-30503D02*
X18779Y-31329D01*
X18897Y-30503D02*
X18897Y-31329D01*
G54D18*
X19409Y-31299D02*
X17599Y-31299D01*
G54D16*
X17599Y-30532D02*
X19409Y-30532D01*
G54D17*
X18778Y-30906D02*
X18366Y-31201D01*
X18366Y-31201D02*
X18366Y-30631D01*
X18366Y-30631D02*
X18778Y-30906D01*
X47235Y-30434D02*
X48061Y-30434D01*
X47235Y-30316D02*
X48061Y-30316D01*
G54D18*
X48031Y-29804D02*
X48031Y-31614D01*
G54D16*
X47264Y-31614D02*
X47264Y-29804D01*
G54D17*
X47638Y-30435D02*
X47933Y-30847D01*
X47933Y-30847D02*
X47363Y-30847D01*
X47363Y-30847D02*
X47638Y-30435D01*
X45679Y-32756D02*
X44853Y-32756D01*
X45679Y-32874D02*
X44853Y-32874D01*
G54D18*
X44883Y-33386D02*
X44883Y-31576D01*
G54D16*
X45650Y-31576D02*
X45650Y-33386D01*
G54D17*
X45276Y-32755D02*
X44981Y-32343D01*
X44981Y-32343D02*
X45551Y-32343D01*
X45551Y-32343D02*
X45276Y-32755D01*
X30700Y-38899D02*
X31526Y-38899D01*
X30700Y-38781D02*
X31526Y-38781D01*
G54D18*
X31496Y-38269D02*
X31496Y-40079D01*
G54D16*
X30729Y-40079D02*
X30729Y-38269D01*
G54D17*
X31103Y-38900D02*
X31398Y-39312D01*
X31398Y-39312D02*
X30828Y-39312D01*
X30828Y-39312D02*
X31103Y-38900D01*
X23032Y-27401D02*
X23091Y-27401D01*
X23091Y-27401D02*
X23091Y-26594D01*
X23032Y-26594D02*
X23091Y-26594D01*
X23032Y-27401D02*
X23032Y-26594D01*
X25335Y-27402D02*
X25394Y-27402D01*
X25394Y-27402D02*
X25394Y-26536D01*
X25335Y-26536D02*
X25394Y-26536D01*
X25335Y-27402D02*
X25335Y-26536D01*
X24963Y-27469D02*
X25338Y-27469D01*
X25338Y-27469D02*
X25338Y-26469D01*
X24963Y-26469D02*
X25338Y-26469D01*
X24963Y-27469D02*
X24963Y-26469D01*
X24963Y-26469D02*
X25338Y-26469D01*
X25338Y-26469D02*
X25338Y-26344D01*
X24963Y-26344D02*
X25338Y-26344D01*
X24963Y-26469D02*
X24963Y-26344D01*
X24963Y-27593D02*
X25338Y-27593D01*
X25338Y-27593D02*
X25338Y-27469D01*
X24963Y-27469D02*
X25338Y-27469D01*
X24963Y-27593D02*
X24963Y-27469D01*
X23938Y-27244D02*
X24488Y-27244D01*
X24488Y-27244D02*
X24488Y-26694D01*
X23938Y-26694D02*
X24488Y-26694D01*
X23938Y-27244D02*
X23938Y-26694D01*
G54D16*
X23088Y-26344D02*
X25338Y-26344D01*
X25338Y-26344D02*
X25338Y-26469D01*
X25338Y-26469D02*
X25338Y-27469D01*
X25338Y-27469D02*
X25338Y-27594D01*
X25338Y-27594D02*
X23088Y-27594D01*
X23088Y-27594D02*
X23088Y-27469D01*
X23088Y-27469D02*
X23088Y-26469D01*
X23088Y-26469D02*
X23088Y-26344D01*
G54D19*
X24344Y-26657D02*
X24594Y-26657D01*
G54D16*
X24469Y-26532D02*
X24469Y-26782D01*
G54D17*
X43308Y-31458D02*
X43249Y-31458D01*
X43249Y-31458D02*
X43249Y-32265D01*
X43308Y-32265D02*
X43249Y-32265D01*
X43308Y-31458D02*
X43308Y-32265D01*
X41005Y-31457D02*
X40946Y-31457D01*
X40946Y-31457D02*
X40946Y-32323D01*
X41005Y-32323D02*
X40946Y-32323D01*
X41005Y-31457D02*
X41005Y-32323D01*
X41377Y-31390D02*
X41002Y-31390D01*
X41002Y-31390D02*
X41002Y-32390D01*
X41377Y-32390D02*
X41002Y-32390D01*
X41377Y-31390D02*
X41377Y-32390D01*
X41377Y-32390D02*
X41002Y-32390D01*
X41002Y-32390D02*
X41002Y-32515D01*
X41377Y-32515D02*
X41002Y-32515D01*
X41377Y-32390D02*
X41377Y-32515D01*
X41377Y-31266D02*
X41002Y-31266D01*
X41002Y-31266D02*
X41002Y-31390D01*
X41377Y-31390D02*
X41002Y-31390D01*
X41377Y-31266D02*
X41377Y-31390D01*
X42402Y-31615D02*
X41852Y-31615D01*
X41852Y-31615D02*
X41852Y-32165D01*
X42402Y-32165D02*
X41852Y-32165D01*
X42402Y-31615D02*
X42402Y-32165D01*
G54D16*
X43252Y-32515D02*
X41002Y-32515D01*
X41002Y-32515D02*
X41002Y-32390D01*
X41002Y-32390D02*
X41002Y-31390D01*
X41002Y-31390D02*
X41002Y-31265D01*
X41002Y-31265D02*
X43252Y-31265D01*
X43252Y-31265D02*
X43252Y-31390D01*
X43252Y-31390D02*
X43252Y-32390D01*
X43252Y-32390D02*
X43252Y-32515D01*
G54D19*
X41996Y-32202D02*
X41746Y-32202D01*
G54D16*
X41871Y-32327D02*
X41871Y-32077D01*
G54D17*
X29369Y-25788D02*
X29369Y-25729D01*
X29369Y-25729D02*
X28562Y-25729D01*
X28562Y-25788D02*
X28562Y-25729D01*
X29369Y-25788D02*
X28562Y-25788D01*
X29370Y-23485D02*
X29370Y-23426D01*
X29370Y-23426D02*
X28504Y-23426D01*
X28504Y-23485D02*
X28504Y-23426D01*
X29370Y-23485D02*
X28504Y-23485D01*
X29437Y-23857D02*
X29437Y-23482D01*
X29437Y-23482D02*
X28437Y-23482D01*
X28437Y-23857D02*
X28437Y-23482D01*
X29437Y-23857D02*
X28437Y-23857D01*
X28437Y-23857D02*
X28437Y-23482D01*
X28437Y-23482D02*
X28312Y-23482D01*
X28312Y-23857D02*
X28312Y-23482D01*
X28437Y-23857D02*
X28312Y-23857D01*
X29561Y-23857D02*
X29561Y-23482D01*
X29561Y-23482D02*
X29437Y-23482D01*
X29437Y-23857D02*
X29437Y-23482D01*
X29561Y-23857D02*
X29437Y-23857D01*
X29212Y-24882D02*
X29212Y-24332D01*
X29212Y-24332D02*
X28662Y-24332D01*
X28662Y-24882D02*
X28662Y-24332D01*
X29212Y-24882D02*
X28662Y-24882D01*
G54D16*
X28312Y-25732D02*
X28312Y-23482D01*
X28312Y-23482D02*
X28437Y-23482D01*
X28437Y-23482D02*
X29437Y-23482D01*
X29437Y-23482D02*
X29562Y-23482D01*
X29562Y-23482D02*
X29562Y-25732D01*
X29562Y-25732D02*
X29437Y-25732D01*
X29437Y-25732D02*
X28437Y-25732D01*
X28437Y-25732D02*
X28312Y-25732D01*
G54D19*
X28625Y-24476D02*
X28625Y-24226D01*
G54D16*
X28500Y-24351D02*
X28750Y-24351D01*
G54D17*
X22048Y-15513D02*
X21989Y-15513D01*
X21989Y-15513D02*
X21989Y-16320D01*
X22048Y-16320D02*
X21989Y-16320D01*
X22048Y-15513D02*
X22048Y-16320D01*
X19745Y-15512D02*
X19686Y-15512D01*
X19686Y-15512D02*
X19686Y-16378D01*
X19745Y-16378D02*
X19686Y-16378D01*
X19745Y-15512D02*
X19745Y-16378D01*
X20117Y-15445D02*
X19742Y-15445D01*
X19742Y-15445D02*
X19742Y-16445D01*
X20117Y-16445D02*
X19742Y-16445D01*
X20117Y-15445D02*
X20117Y-16445D01*
X20117Y-16445D02*
X19742Y-16445D01*
X19742Y-16445D02*
X19742Y-16570D01*
X20117Y-16570D02*
X19742Y-16570D01*
X20117Y-16445D02*
X20117Y-16570D01*
X20117Y-15321D02*
X19742Y-15321D01*
X19742Y-15321D02*
X19742Y-15445D01*
X20117Y-15445D02*
X19742Y-15445D01*
X20117Y-15321D02*
X20117Y-15445D01*
X21142Y-15670D02*
X20592Y-15670D01*
X20592Y-15670D02*
X20592Y-16220D01*
X21142Y-16220D02*
X20592Y-16220D01*
X21142Y-15670D02*
X21142Y-16220D01*
G54D16*
X21992Y-16570D02*
X19742Y-16570D01*
X19742Y-16570D02*
X19742Y-16445D01*
X19742Y-16445D02*
X19742Y-15445D01*
X19742Y-15445D02*
X19742Y-15320D01*
X19742Y-15320D02*
X21992Y-15320D01*
X21992Y-15320D02*
X21992Y-15445D01*
X21992Y-15445D02*
X21992Y-16445D01*
X21992Y-16445D02*
X21992Y-16570D01*
G54D19*
X20736Y-16257D02*
X20486Y-16257D01*
G54D16*
X20611Y-16382D02*
X20611Y-16132D01*
G54D17*
X37244Y-35788D02*
X37195Y-35788D01*
X37195Y-35788D02*
X37195Y-36260D01*
X37244Y-36260D02*
X37195Y-36260D01*
X37244Y-35788D02*
X37244Y-36260D01*
X36035Y-35788D02*
X35986Y-35788D01*
X35986Y-35788D02*
X35986Y-36260D01*
X36035Y-36260D02*
X35986Y-36260D01*
X36035Y-35788D02*
X36035Y-36260D01*
X36490Y-35778D02*
X36307Y-35778D01*
X36307Y-35778D02*
X36307Y-36270D01*
X36490Y-36270D02*
X36307Y-36270D01*
X36490Y-35778D02*
X36490Y-36270D01*
X36677Y-35837D02*
X36553Y-35837D01*
X36553Y-35837D02*
X36553Y-36211D01*
X36677Y-36211D02*
X36553Y-36211D01*
X36677Y-35837D02*
X36677Y-36211D01*
X36553Y-35774D02*
X36459Y-35774D01*
X36459Y-35774D02*
X36459Y-36274D01*
X36553Y-36274D02*
X36459Y-36274D01*
X36553Y-35774D02*
X36553Y-36274D01*
G54D20*
X37185Y-36260D02*
X36045Y-36260D01*
X36045Y-36260D02*
X36045Y-35788D01*
X36045Y-35788D02*
X37185Y-35788D01*
X37185Y-35788D02*
X37185Y-36260D01*
X36810Y-36260D02*
X36420Y-36260D01*
X36420Y-35788D02*
X36810Y-35788D01*
G54D11*
X45489Y-34418D02*
X45489Y-38418D01*
X45989Y-34418D02*
X42989Y-34418D01*
X42989Y-34418D02*
X42989Y-38418D01*
X42989Y-38418D02*
X45989Y-38418D01*
X45989Y-38418D02*
X45989Y-34418D01*
G54D21*
X44835Y-19097D02*
X44835Y-19883D01*
X44942Y-19097D02*
X44834Y-19097D01*
X45325Y-19097D02*
X45216Y-19097D01*
X45325Y-19686D02*
X44834Y-19686D01*
X45216Y-19882D02*
X45325Y-19882D01*
X44942Y-19882D02*
X44834Y-19882D01*
X45206Y-19686D02*
X45147Y-19686D01*
X44961Y-19294D02*
X44833Y-19294D01*
X45325Y-19294D02*
X45197Y-19294D01*
X45325Y-19097D02*
X45325Y-19294D01*
X45011Y-19294D02*
X44952Y-19294D01*
X45206Y-19294D02*
X45147Y-19294D01*
X45157Y-19294D02*
X45001Y-19294D01*
X45118Y-19490D02*
X45040Y-19490D01*
X45040Y-19490D02*
X45040Y-19568D01*
X45118Y-19568D02*
X45040Y-19568D01*
X45118Y-19490D02*
X45118Y-19568D01*
X45325Y-19854D02*
X45325Y-19883D01*
X45325Y-19294D02*
X45325Y-19854D01*
X45284Y-19824D02*
X45283Y-19829D01*
X45281Y-19834D01*
X45279Y-19839D01*
X45275Y-19843D01*
X45271Y-19847D01*
X45266Y-19849D01*
X45261Y-19851D01*
X45256Y-19851D01*
X45251Y-19851D01*
X45246Y-19849D01*
X45241Y-19847D01*
X45237Y-19844D01*
X45233Y-19839D01*
X45231Y-19835D01*
X45229Y-19829D01*
X45229Y-19824D01*
X45229Y-19819D01*
X45230Y-19814D01*
X45233Y-19809D01*
X45236Y-19805D01*
X45241Y-19802D01*
X45245Y-19799D01*
X45250Y-19797D01*
X45256Y-19797D01*
X45260Y-19797D01*
X45266Y-19798D01*
X45271Y-19801D01*
X45275Y-19804D01*
X45278Y-19808D01*
X45281Y-19813D01*
X45283Y-19818D01*
X45283Y-19824D01*
X45284Y-19824D01*
X45216Y-19883D02*
X45215Y-19872D01*
X45213Y-19860D01*
X45211Y-19848D01*
X45207Y-19837D01*
X45203Y-19826D01*
X45197Y-19815D01*
X45191Y-19805D01*
X45183Y-19795D01*
X45175Y-19787D01*
X45167Y-19779D01*
X45157Y-19771D01*
X45147Y-19765D01*
X45136Y-19759D01*
X45125Y-19755D01*
X45114Y-19751D01*
X45102Y-19749D01*
X45090Y-19747D01*
X45079Y-19746D01*
X45068Y-19747D01*
X45056Y-19749D01*
X45044Y-19751D01*
X45033Y-19755D01*
X45022Y-19759D01*
X45011Y-19765D01*
X45001Y-19771D01*
X44991Y-19779D01*
X44983Y-19787D01*
X44975Y-19795D01*
X44967Y-19805D01*
X44961Y-19815D01*
X44955Y-19826D01*
X44951Y-19837D01*
X44947Y-19848D01*
X44945Y-19860D01*
X44943Y-19872D01*
X44942Y-19883D01*
X44942Y-19097D02*
X44943Y-19108D01*
X44945Y-19120D01*
X44947Y-19132D01*
X44951Y-19143D01*
X44955Y-19154D01*
X44961Y-19165D01*
X44967Y-19175D01*
X44975Y-19185D01*
X44983Y-19193D01*
X44991Y-19201D01*
X45001Y-19209D01*
X45011Y-19215D01*
X45022Y-19221D01*
X45033Y-19225D01*
X45044Y-19229D01*
X45056Y-19231D01*
X45068Y-19233D01*
X45079Y-19234D01*
X45090Y-19233D01*
X45102Y-19231D01*
X45114Y-19229D01*
X45125Y-19225D01*
X45136Y-19221D01*
X45147Y-19215D01*
X45157Y-19209D01*
X45167Y-19201D01*
X45175Y-19193D01*
X45183Y-19185D01*
X45191Y-19175D01*
X45197Y-19165D01*
X45203Y-19154D01*
X45207Y-19143D01*
X45211Y-19132D01*
X45213Y-19120D01*
X45215Y-19108D01*
X45216Y-19097D01*
X44836Y-17127D02*
X44836Y-17913D01*
X44943Y-17127D02*
X44835Y-17127D01*
X45326Y-17127D02*
X45217Y-17127D01*
X45326Y-17716D02*
X44835Y-17716D01*
X45217Y-17912D02*
X45326Y-17912D01*
X44943Y-17912D02*
X44835Y-17912D01*
X45207Y-17716D02*
X45148Y-17716D01*
X44962Y-17324D02*
X44834Y-17324D01*
X45326Y-17324D02*
X45198Y-17324D01*
X45326Y-17127D02*
X45326Y-17324D01*
X45012Y-17324D02*
X44953Y-17324D01*
X45207Y-17324D02*
X45148Y-17324D01*
X45158Y-17324D02*
X45002Y-17324D01*
X45119Y-17520D02*
X45041Y-17520D01*
X45041Y-17520D02*
X45041Y-17598D01*
X45119Y-17598D02*
X45041Y-17598D01*
X45119Y-17520D02*
X45119Y-17598D01*
X45326Y-17884D02*
X45326Y-17913D01*
X45326Y-17324D02*
X45326Y-17884D01*
X45285Y-17854D02*
X45284Y-17859D01*
X45282Y-17864D01*
X45280Y-17869D01*
X45276Y-17873D01*
X45272Y-17877D01*
X45267Y-17879D01*
X45262Y-17881D01*
X45257Y-17881D01*
X45252Y-17881D01*
X45247Y-17879D01*
X45242Y-17877D01*
X45238Y-17874D01*
X45234Y-17869D01*
X45232Y-17865D01*
X45230Y-17859D01*
X45230Y-17854D01*
X45230Y-17849D01*
X45231Y-17844D01*
X45234Y-17839D01*
X45237Y-17835D01*
X45242Y-17832D01*
X45246Y-17829D01*
X45251Y-17827D01*
X45257Y-17827D01*
X45261Y-17827D01*
X45267Y-17828D01*
X45272Y-17831D01*
X45276Y-17834D01*
X45279Y-17838D01*
X45282Y-17843D01*
X45284Y-17848D01*
X45284Y-17854D01*
X45285Y-17854D01*
X45217Y-17913D02*
X45216Y-17902D01*
X45214Y-17890D01*
X45212Y-17878D01*
X45208Y-17867D01*
X45204Y-17856D01*
X45198Y-17845D01*
X45192Y-17835D01*
X45184Y-17825D01*
X45176Y-17817D01*
X45168Y-17809D01*
X45158Y-17801D01*
X45148Y-17795D01*
X45137Y-17789D01*
X45126Y-17785D01*
X45115Y-17781D01*
X45103Y-17779D01*
X45091Y-17777D01*
X45080Y-17776D01*
X45069Y-17777D01*
X45057Y-17779D01*
X45045Y-17781D01*
X45034Y-17785D01*
X45023Y-17789D01*
X45012Y-17795D01*
X45002Y-17801D01*
X44992Y-17809D01*
X44984Y-17817D01*
X44976Y-17825D01*
X44968Y-17835D01*
X44962Y-17845D01*
X44956Y-17856D01*
X44952Y-17867D01*
X44948Y-17878D01*
X44946Y-17890D01*
X44944Y-17902D01*
X44943Y-17913D01*
X44943Y-17127D02*
X44944Y-17138D01*
X44946Y-17150D01*
X44948Y-17162D01*
X44952Y-17173D01*
X44956Y-17184D01*
X44962Y-17195D01*
X44968Y-17205D01*
X44976Y-17215D01*
X44984Y-17223D01*
X44992Y-17231D01*
X45002Y-17239D01*
X45012Y-17245D01*
X45023Y-17251D01*
X45034Y-17255D01*
X45045Y-17259D01*
X45057Y-17261D01*
X45069Y-17263D01*
X45080Y-17264D01*
X45091Y-17263D01*
X45103Y-17261D01*
X45115Y-17259D01*
X45126Y-17255D01*
X45137Y-17251D01*
X45148Y-17245D01*
X45158Y-17239D01*
X45168Y-17231D01*
X45176Y-17223D01*
X45184Y-17215D01*
X45192Y-17205D01*
X45198Y-17195D01*
X45204Y-17184D01*
X45208Y-17173D01*
X45212Y-17162D01*
X45214Y-17150D01*
X45216Y-17138D01*
X45217Y-17127D01*
X46017Y-19096D02*
X46017Y-19882D01*
X46124Y-19096D02*
X46016Y-19096D01*
X46507Y-19096D02*
X46398Y-19096D01*
X46507Y-19685D02*
X46016Y-19685D01*
X46398Y-19881D02*
X46507Y-19881D01*
X46124Y-19881D02*
X46016Y-19881D01*
X46388Y-19685D02*
X46329Y-19685D01*
X46143Y-19293D02*
X46015Y-19293D01*
X46507Y-19293D02*
X46379Y-19293D01*
X46507Y-19096D02*
X46507Y-19293D01*
X46193Y-19293D02*
X46134Y-19293D01*
X46388Y-19293D02*
X46329Y-19293D01*
X46339Y-19293D02*
X46183Y-19293D01*
X46300Y-19489D02*
X46222Y-19489D01*
X46222Y-19489D02*
X46222Y-19567D01*
X46300Y-19567D02*
X46222Y-19567D01*
X46300Y-19489D02*
X46300Y-19567D01*
X46507Y-19853D02*
X46507Y-19882D01*
X46507Y-19293D02*
X46507Y-19853D01*
X46466Y-19823D02*
X46465Y-19828D01*
X46463Y-19833D01*
X46461Y-19838D01*
X46457Y-19842D01*
X46453Y-19846D01*
X46448Y-19848D01*
X46443Y-19850D01*
X46438Y-19850D01*
X46433Y-19850D01*
X46428Y-19848D01*
X46423Y-19846D01*
X46419Y-19843D01*
X46415Y-19838D01*
X46413Y-19834D01*
X46411Y-19828D01*
X46411Y-19823D01*
X46411Y-19818D01*
X46412Y-19813D01*
X46415Y-19808D01*
X46418Y-19804D01*
X46423Y-19801D01*
X46427Y-19798D01*
X46432Y-19796D01*
X46438Y-19796D01*
X46442Y-19796D01*
X46448Y-19797D01*
X46453Y-19800D01*
X46457Y-19803D01*
X46460Y-19807D01*
X46463Y-19812D01*
X46465Y-19817D01*
X46465Y-19823D01*
X46466Y-19823D01*
X46398Y-19882D02*
X46397Y-19871D01*
X46395Y-19859D01*
X46393Y-19847D01*
X46389Y-19836D01*
X46385Y-19825D01*
X46379Y-19814D01*
X46373Y-19804D01*
X46365Y-19794D01*
X46357Y-19786D01*
X46349Y-19778D01*
X46339Y-19770D01*
X46329Y-19764D01*
X46318Y-19758D01*
X46307Y-19754D01*
X46296Y-19750D01*
X46284Y-19748D01*
X46272Y-19746D01*
X46261Y-19745D01*
X46250Y-19746D01*
X46238Y-19748D01*
X46226Y-19750D01*
X46215Y-19754D01*
X46204Y-19758D01*
X46193Y-19764D01*
X46183Y-19770D01*
X46173Y-19778D01*
X46165Y-19786D01*
X46157Y-19794D01*
X46149Y-19804D01*
X46143Y-19814D01*
X46137Y-19825D01*
X46133Y-19836D01*
X46129Y-19847D01*
X46127Y-19859D01*
X46125Y-19871D01*
X46124Y-19882D01*
X46124Y-19096D02*
X46125Y-19107D01*
X46127Y-19119D01*
X46129Y-19131D01*
X46133Y-19142D01*
X46137Y-19153D01*
X46143Y-19164D01*
X46149Y-19174D01*
X46157Y-19184D01*
X46165Y-19192D01*
X46173Y-19200D01*
X46183Y-19208D01*
X46193Y-19214D01*
X46204Y-19220D01*
X46215Y-19224D01*
X46226Y-19228D01*
X46238Y-19230D01*
X46250Y-19232D01*
X46261Y-19233D01*
X46272Y-19232D01*
X46284Y-19230D01*
X46296Y-19228D01*
X46307Y-19224D01*
X46318Y-19220D01*
X46329Y-19214D01*
X46339Y-19208D01*
X46349Y-19200D01*
X46357Y-19192D01*
X46365Y-19184D01*
X46373Y-19174D01*
X46379Y-19164D01*
X46385Y-19153D01*
X46389Y-19142D01*
X46393Y-19131D01*
X46395Y-19119D01*
X46397Y-19107D01*
X46398Y-19096D01*
X46017Y-17127D02*
X46017Y-17913D01*
X46124Y-17127D02*
X46016Y-17127D01*
X46507Y-17127D02*
X46398Y-17127D01*
X46507Y-17716D02*
X46016Y-17716D01*
X46398Y-17912D02*
X46507Y-17912D01*
X46124Y-17912D02*
X46016Y-17912D01*
X46388Y-17716D02*
X46329Y-17716D01*
X46143Y-17324D02*
X46015Y-17324D01*
X46507Y-17324D02*
X46379Y-17324D01*
X46507Y-17127D02*
X46507Y-17324D01*
X46193Y-17324D02*
X46134Y-17324D01*
X46388Y-17324D02*
X46329Y-17324D01*
X46339Y-17324D02*
X46183Y-17324D01*
X46300Y-17520D02*
X46222Y-17520D01*
X46222Y-17520D02*
X46222Y-17598D01*
X46300Y-17598D02*
X46222Y-17598D01*
X46300Y-17520D02*
X46300Y-17598D01*
X46507Y-17884D02*
X46507Y-17913D01*
X46507Y-17324D02*
X46507Y-17884D01*
X46466Y-17854D02*
X46465Y-17859D01*
X46463Y-17864D01*
X46461Y-17869D01*
X46457Y-17873D01*
X46453Y-17877D01*
X46448Y-17879D01*
X46443Y-17881D01*
X46438Y-17881D01*
X46433Y-17881D01*
X46428Y-17879D01*
X46423Y-17877D01*
X46419Y-17874D01*
X46415Y-17869D01*
X46413Y-17865D01*
X46411Y-17859D01*
X46411Y-17854D01*
X46411Y-17849D01*
X46412Y-17844D01*
X46415Y-17839D01*
X46418Y-17835D01*
X46423Y-17832D01*
X46427Y-17829D01*
X46432Y-17827D01*
X46438Y-17827D01*
X46442Y-17827D01*
X46448Y-17828D01*
X46453Y-17831D01*
X46457Y-17834D01*
X46460Y-17838D01*
X46463Y-17843D01*
X46465Y-17848D01*
X46465Y-17854D01*
X46466Y-17854D01*
X46398Y-17913D02*
X46397Y-17902D01*
X46395Y-17890D01*
X46393Y-17878D01*
X46389Y-17867D01*
X46385Y-17856D01*
X46379Y-17845D01*
X46373Y-17835D01*
X46365Y-17825D01*
X46357Y-17817D01*
X46349Y-17809D01*
X46339Y-17801D01*
X46329Y-17795D01*
X46318Y-17789D01*
X46307Y-17785D01*
X46296Y-17781D01*
X46284Y-17779D01*
X46272Y-17777D01*
X46261Y-17776D01*
X46250Y-17777D01*
X46238Y-17779D01*
X46226Y-17781D01*
X46215Y-17785D01*
X46204Y-17789D01*
X46193Y-17795D01*
X46183Y-17801D01*
X46173Y-17809D01*
X46165Y-17817D01*
X46157Y-17825D01*
X46149Y-17835D01*
X46143Y-17845D01*
X46137Y-17856D01*
X46133Y-17867D01*
X46129Y-17878D01*
X46127Y-17890D01*
X46125Y-17902D01*
X46124Y-17913D01*
X46124Y-17127D02*
X46125Y-17138D01*
X46127Y-17150D01*
X46129Y-17162D01*
X46133Y-17173D01*
X46137Y-17184D01*
X46143Y-17195D01*
X46149Y-17205D01*
X46157Y-17215D01*
X46165Y-17223D01*
X46173Y-17231D01*
X46183Y-17239D01*
X46193Y-17245D01*
X46204Y-17251D01*
X46215Y-17255D01*
X46226Y-17259D01*
X46238Y-17261D01*
X46250Y-17263D01*
X46261Y-17264D01*
X46272Y-17263D01*
X46284Y-17261D01*
X46296Y-17259D01*
X46307Y-17255D01*
X46318Y-17251D01*
X46329Y-17245D01*
X46339Y-17239D01*
X46349Y-17231D01*
X46357Y-17223D01*
X46365Y-17215D01*
X46373Y-17205D01*
X46379Y-17195D01*
X46385Y-17184D01*
X46389Y-17173D01*
X46393Y-17162D01*
X46395Y-17150D01*
X46397Y-17138D01*
X46398Y-17127D01*
X47199Y-19096D02*
X47199Y-19882D01*
X47306Y-19096D02*
X47198Y-19096D01*
X47689Y-19096D02*
X47580Y-19096D01*
X47689Y-19685D02*
X47198Y-19685D01*
X47580Y-19881D02*
X47689Y-19881D01*
X47306Y-19881D02*
X47198Y-19881D01*
X47570Y-19685D02*
X47511Y-19685D01*
X47325Y-19293D02*
X47197Y-19293D01*
X47689Y-19293D02*
X47561Y-19293D01*
X47689Y-19096D02*
X47689Y-19293D01*
X47375Y-19293D02*
X47316Y-19293D01*
X47570Y-19293D02*
X47511Y-19293D01*
X47521Y-19293D02*
X47365Y-19293D01*
X47482Y-19489D02*
X47404Y-19489D01*
X47404Y-19489D02*
X47404Y-19567D01*
X47482Y-19567D02*
X47404Y-19567D01*
X47482Y-19489D02*
X47482Y-19567D01*
X47689Y-19853D02*
X47689Y-19882D01*
X47689Y-19293D02*
X47689Y-19853D01*
X47648Y-19823D02*
X47647Y-19828D01*
X47645Y-19833D01*
X47643Y-19838D01*
X47639Y-19842D01*
X47635Y-19846D01*
X47630Y-19848D01*
X47625Y-19850D01*
X47620Y-19850D01*
X47615Y-19850D01*
X47610Y-19848D01*
X47605Y-19846D01*
X47601Y-19843D01*
X47597Y-19838D01*
X47595Y-19834D01*
X47593Y-19828D01*
X47593Y-19823D01*
X47593Y-19818D01*
X47594Y-19813D01*
X47597Y-19808D01*
X47600Y-19804D01*
X47605Y-19801D01*
X47609Y-19798D01*
X47614Y-19796D01*
X47620Y-19796D01*
X47624Y-19796D01*
X47630Y-19797D01*
X47635Y-19800D01*
X47639Y-19803D01*
X47642Y-19807D01*
X47645Y-19812D01*
X47647Y-19817D01*
X47647Y-19823D01*
X47648Y-19823D01*
X47580Y-19882D02*
X47579Y-19871D01*
X47577Y-19859D01*
X47575Y-19847D01*
X47571Y-19836D01*
X47567Y-19825D01*
X47561Y-19814D01*
X47555Y-19804D01*
X47547Y-19794D01*
X47539Y-19786D01*
X47531Y-19778D01*
X47521Y-19770D01*
X47511Y-19764D01*
X47500Y-19758D01*
X47489Y-19754D01*
X47478Y-19750D01*
X47466Y-19748D01*
X47454Y-19746D01*
X47443Y-19745D01*
X47432Y-19746D01*
X47420Y-19748D01*
X47408Y-19750D01*
X47397Y-19754D01*
X47386Y-19758D01*
X47375Y-19764D01*
X47365Y-19770D01*
X47355Y-19778D01*
X47347Y-19786D01*
X47339Y-19794D01*
X47331Y-19804D01*
X47325Y-19814D01*
X47319Y-19825D01*
X47315Y-19836D01*
X47311Y-19847D01*
X47309Y-19859D01*
X47307Y-19871D01*
X47306Y-19882D01*
X47306Y-19096D02*
X47307Y-19107D01*
X47309Y-19119D01*
X47311Y-19131D01*
X47315Y-19142D01*
X47319Y-19153D01*
X47325Y-19164D01*
X47331Y-19174D01*
X47339Y-19184D01*
X47347Y-19192D01*
X47355Y-19200D01*
X47365Y-19208D01*
X47375Y-19214D01*
X47386Y-19220D01*
X47397Y-19224D01*
X47408Y-19228D01*
X47420Y-19230D01*
X47432Y-19232D01*
X47443Y-19233D01*
X47454Y-19232D01*
X47466Y-19230D01*
X47478Y-19228D01*
X47489Y-19224D01*
X47500Y-19220D01*
X47511Y-19214D01*
X47521Y-19208D01*
X47531Y-19200D01*
X47539Y-19192D01*
X47547Y-19184D01*
X47555Y-19174D01*
X47561Y-19164D01*
X47567Y-19153D01*
X47571Y-19142D01*
X47575Y-19131D01*
X47577Y-19119D01*
X47579Y-19107D01*
X47580Y-19096D01*
X47199Y-17127D02*
X47199Y-17913D01*
X47306Y-17127D02*
X47198Y-17127D01*
X47689Y-17127D02*
X47580Y-17127D01*
X47689Y-17716D02*
X47198Y-17716D01*
X47580Y-17912D02*
X47689Y-17912D01*
X47306Y-17912D02*
X47198Y-17912D01*
X47570Y-17716D02*
X47511Y-17716D01*
X47325Y-17324D02*
X47197Y-17324D01*
X47689Y-17324D02*
X47561Y-17324D01*
X47689Y-17127D02*
X47689Y-17324D01*
X47375Y-17324D02*
X47316Y-17324D01*
X47570Y-17324D02*
X47511Y-17324D01*
X47521Y-17324D02*
X47365Y-17324D01*
X47482Y-17520D02*
X47404Y-17520D01*
X47404Y-17520D02*
X47404Y-17598D01*
X47482Y-17598D02*
X47404Y-17598D01*
X47482Y-17520D02*
X47482Y-17598D01*
X47689Y-17884D02*
X47689Y-17913D01*
X47689Y-17324D02*
X47689Y-17884D01*
X47648Y-17854D02*
X47647Y-17859D01*
X47645Y-17864D01*
X47643Y-17869D01*
X47639Y-17873D01*
X47635Y-17877D01*
X47630Y-17879D01*
X47625Y-17881D01*
X47620Y-17881D01*
X47615Y-17881D01*
X47610Y-17879D01*
X47605Y-17877D01*
X47601Y-17874D01*
X47597Y-17869D01*
X47595Y-17865D01*
X47593Y-17859D01*
X47593Y-17854D01*
X47593Y-17849D01*
X47594Y-17844D01*
X47597Y-17839D01*
X47600Y-17835D01*
X47605Y-17832D01*
X47609Y-17829D01*
X47614Y-17827D01*
X47620Y-17827D01*
X47624Y-17827D01*
X47630Y-17828D01*
X47635Y-17831D01*
X47639Y-17834D01*
X47642Y-17838D01*
X47645Y-17843D01*
X47647Y-17848D01*
X47647Y-17854D01*
X47648Y-17854D01*
X47580Y-17913D02*
X47579Y-17902D01*
X47577Y-17890D01*
X47575Y-17878D01*
X47571Y-17867D01*
X47567Y-17856D01*
X47561Y-17845D01*
X47555Y-17835D01*
X47547Y-17825D01*
X47539Y-17817D01*
X47531Y-17809D01*
X47521Y-17801D01*
X47511Y-17795D01*
X47500Y-17789D01*
X47489Y-17785D01*
X47478Y-17781D01*
X47466Y-17779D01*
X47454Y-17777D01*
X47443Y-17776D01*
X47432Y-17777D01*
X47420Y-17779D01*
X47408Y-17781D01*
X47397Y-17785D01*
X47386Y-17789D01*
X47375Y-17795D01*
X47365Y-17801D01*
X47355Y-17809D01*
X47347Y-17817D01*
X47339Y-17825D01*
X47331Y-17835D01*
X47325Y-17845D01*
X47319Y-17856D01*
X47315Y-17867D01*
X47311Y-17878D01*
X47309Y-17890D01*
X47307Y-17902D01*
X47306Y-17913D01*
X47306Y-17127D02*
X47307Y-17138D01*
X47309Y-17150D01*
X47311Y-17162D01*
X47315Y-17173D01*
X47319Y-17184D01*
X47325Y-17195D01*
X47331Y-17205D01*
X47339Y-17215D01*
X47347Y-17223D01*
X47355Y-17231D01*
X47365Y-17239D01*
X47375Y-17245D01*
X47386Y-17251D01*
X47397Y-17255D01*
X47408Y-17259D01*
X47420Y-17261D01*
X47432Y-17263D01*
X47443Y-17264D01*
X47454Y-17263D01*
X47466Y-17261D01*
X47478Y-17259D01*
X47489Y-17255D01*
X47500Y-17251D01*
X47511Y-17245D01*
X47521Y-17239D01*
X47531Y-17231D01*
X47539Y-17223D01*
X47547Y-17215D01*
X47555Y-17205D01*
X47561Y-17195D01*
X47567Y-17184D01*
X47571Y-17173D01*
X47575Y-17162D01*
X47577Y-17150D01*
X47579Y-17138D01*
X47580Y-17127D01*
X48379Y-19096D02*
X48379Y-19882D01*
X48486Y-19096D02*
X48378Y-19096D01*
X48869Y-19096D02*
X48760Y-19096D01*
X48869Y-19685D02*
X48378Y-19685D01*
X48760Y-19881D02*
X48869Y-19881D01*
X48486Y-19881D02*
X48378Y-19881D01*
X48750Y-19685D02*
X48691Y-19685D01*
X48505Y-19293D02*
X48377Y-19293D01*
X48869Y-19293D02*
X48741Y-19293D01*
X48869Y-19096D02*
X48869Y-19293D01*
X48555Y-19293D02*
X48496Y-19293D01*
X48750Y-19293D02*
X48691Y-19293D01*
X48701Y-19293D02*
X48545Y-19293D01*
X48662Y-19489D02*
X48584Y-19489D01*
X48584Y-19489D02*
X48584Y-19567D01*
X48662Y-19567D02*
X48584Y-19567D01*
X48662Y-19489D02*
X48662Y-19567D01*
X48869Y-19853D02*
X48869Y-19882D01*
X48869Y-19293D02*
X48869Y-19853D01*
X48828Y-19823D02*
X48827Y-19828D01*
X48825Y-19833D01*
X48823Y-19838D01*
X48819Y-19842D01*
X48815Y-19846D01*
X48810Y-19848D01*
X48805Y-19850D01*
X48800Y-19850D01*
X48795Y-19850D01*
X48790Y-19848D01*
X48785Y-19846D01*
X48781Y-19843D01*
X48777Y-19838D01*
X48775Y-19834D01*
X48773Y-19828D01*
X48773Y-19823D01*
X48773Y-19818D01*
X48774Y-19813D01*
X48777Y-19808D01*
X48780Y-19804D01*
X48785Y-19801D01*
X48789Y-19798D01*
X48794Y-19796D01*
X48800Y-19796D01*
X48804Y-19796D01*
X48810Y-19797D01*
X48815Y-19800D01*
X48819Y-19803D01*
X48822Y-19807D01*
X48825Y-19812D01*
X48827Y-19817D01*
X48827Y-19823D01*
X48828Y-19823D01*
X48760Y-19882D02*
X48759Y-19871D01*
X48757Y-19859D01*
X48755Y-19847D01*
X48751Y-19836D01*
X48747Y-19825D01*
X48741Y-19814D01*
X48735Y-19804D01*
X48727Y-19794D01*
X48719Y-19786D01*
X48711Y-19778D01*
X48701Y-19770D01*
X48691Y-19764D01*
X48680Y-19758D01*
X48669Y-19754D01*
X48658Y-19750D01*
X48646Y-19748D01*
X48634Y-19746D01*
X48623Y-19745D01*
X48612Y-19746D01*
X48600Y-19748D01*
X48588Y-19750D01*
X48577Y-19754D01*
X48566Y-19758D01*
X48555Y-19764D01*
X48545Y-19770D01*
X48535Y-19778D01*
X48527Y-19786D01*
X48519Y-19794D01*
X48511Y-19804D01*
X48505Y-19814D01*
X48499Y-19825D01*
X48495Y-19836D01*
X48491Y-19847D01*
X48489Y-19859D01*
X48487Y-19871D01*
X48486Y-19882D01*
X48486Y-19096D02*
X48487Y-19107D01*
X48489Y-19119D01*
X48491Y-19131D01*
X48495Y-19142D01*
X48499Y-19153D01*
X48505Y-19164D01*
X48511Y-19174D01*
X48519Y-19184D01*
X48527Y-19192D01*
X48535Y-19200D01*
X48545Y-19208D01*
X48555Y-19214D01*
X48566Y-19220D01*
X48577Y-19224D01*
X48588Y-19228D01*
X48600Y-19230D01*
X48612Y-19232D01*
X48623Y-19233D01*
X48634Y-19232D01*
X48646Y-19230D01*
X48658Y-19228D01*
X48669Y-19224D01*
X48680Y-19220D01*
X48691Y-19214D01*
X48701Y-19208D01*
X48711Y-19200D01*
X48719Y-19192D01*
X48727Y-19184D01*
X48735Y-19174D01*
X48741Y-19164D01*
X48747Y-19153D01*
X48751Y-19142D01*
X48755Y-19131D01*
X48757Y-19119D01*
X48759Y-19107D01*
X48760Y-19096D01*
X48379Y-17127D02*
X48379Y-17913D01*
X48486Y-17127D02*
X48378Y-17127D01*
X48869Y-17127D02*
X48760Y-17127D01*
X48869Y-17716D02*
X48378Y-17716D01*
X48760Y-17912D02*
X48869Y-17912D01*
X48486Y-17912D02*
X48378Y-17912D01*
X48750Y-17716D02*
X48691Y-17716D01*
X48505Y-17324D02*
X48377Y-17324D01*
X48869Y-17324D02*
X48741Y-17324D01*
X48869Y-17127D02*
X48869Y-17324D01*
X48555Y-17324D02*
X48496Y-17324D01*
X48750Y-17324D02*
X48691Y-17324D01*
X48701Y-17324D02*
X48545Y-17324D01*
X48662Y-17520D02*
X48584Y-17520D01*
X48584Y-17520D02*
X48584Y-17598D01*
X48662Y-17598D02*
X48584Y-17598D01*
X48662Y-17520D02*
X48662Y-17598D01*
X48869Y-17884D02*
X48869Y-17913D01*
X48869Y-17324D02*
X48869Y-17884D01*
X48828Y-17854D02*
X48827Y-17859D01*
X48825Y-17864D01*
X48823Y-17869D01*
X48819Y-17873D01*
X48815Y-17877D01*
X48810Y-17879D01*
X48805Y-17881D01*
X48800Y-17881D01*
X48795Y-17881D01*
X48790Y-17879D01*
X48785Y-17877D01*
X48781Y-17874D01*
X48777Y-17869D01*
X48775Y-17865D01*
X48773Y-17859D01*
X48773Y-17854D01*
X48773Y-17849D01*
X48774Y-17844D01*
X48777Y-17839D01*
X48780Y-17835D01*
X48785Y-17832D01*
X48789Y-17829D01*
X48794Y-17827D01*
X48800Y-17827D01*
X48804Y-17827D01*
X48810Y-17828D01*
X48815Y-17831D01*
X48819Y-17834D01*
X48822Y-17838D01*
X48825Y-17843D01*
X48827Y-17848D01*
X48827Y-17854D01*
X48828Y-17854D01*
X48760Y-17913D02*
X48759Y-17902D01*
X48757Y-17890D01*
X48755Y-17878D01*
X48751Y-17867D01*
X48747Y-17856D01*
X48741Y-17845D01*
X48735Y-17835D01*
X48727Y-17825D01*
X48719Y-17817D01*
X48711Y-17809D01*
X48701Y-17801D01*
X48691Y-17795D01*
X48680Y-17789D01*
X48669Y-17785D01*
X48658Y-17781D01*
X48646Y-17779D01*
X48634Y-17777D01*
X48623Y-17776D01*
X48612Y-17777D01*
X48600Y-17779D01*
X48588Y-17781D01*
X48577Y-17785D01*
X48566Y-17789D01*
X48555Y-17795D01*
X48545Y-17801D01*
X48535Y-17809D01*
X48527Y-17817D01*
X48519Y-17825D01*
X48511Y-17835D01*
X48505Y-17845D01*
X48499Y-17856D01*
X48495Y-17867D01*
X48491Y-17878D01*
X48489Y-17890D01*
X48487Y-17902D01*
X48486Y-17913D01*
X48486Y-17127D02*
X48487Y-17138D01*
X48489Y-17150D01*
X48491Y-17162D01*
X48495Y-17173D01*
X48499Y-17184D01*
X48505Y-17195D01*
X48511Y-17205D01*
X48519Y-17215D01*
X48527Y-17223D01*
X48535Y-17231D01*
X48545Y-17239D01*
X48555Y-17245D01*
X48566Y-17251D01*
X48577Y-17255D01*
X48588Y-17259D01*
X48600Y-17261D01*
X48612Y-17263D01*
X48623Y-17264D01*
X48634Y-17263D01*
X48646Y-17261D01*
X48658Y-17259D01*
X48669Y-17255D01*
X48680Y-17251D01*
X48691Y-17245D01*
X48701Y-17239D01*
X48711Y-17231D01*
X48719Y-17223D01*
X48727Y-17215D01*
X48735Y-17205D01*
X48741Y-17195D01*
X48747Y-17184D01*
X48751Y-17173D01*
X48755Y-17162D01*
X48757Y-17150D01*
X48759Y-17138D01*
X48760Y-17127D01*
X49560Y-19096D02*
X49560Y-19882D01*
X49667Y-19096D02*
X49559Y-19096D01*
X50050Y-19096D02*
X49941Y-19096D01*
X50050Y-19685D02*
X49559Y-19685D01*
X49941Y-19881D02*
X50050Y-19881D01*
X49667Y-19881D02*
X49559Y-19881D01*
X49931Y-19685D02*
X49872Y-19685D01*
X49686Y-19293D02*
X49558Y-19293D01*
X50050Y-19293D02*
X49922Y-19293D01*
X50050Y-19096D02*
X50050Y-19293D01*
X49736Y-19293D02*
X49677Y-19293D01*
X49931Y-19293D02*
X49872Y-19293D01*
X49882Y-19293D02*
X49726Y-19293D01*
X49843Y-19489D02*
X49765Y-19489D01*
X49765Y-19489D02*
X49765Y-19567D01*
X49843Y-19567D02*
X49765Y-19567D01*
X49843Y-19489D02*
X49843Y-19567D01*
X50050Y-19853D02*
X50050Y-19882D01*
X50050Y-19293D02*
X50050Y-19853D01*
X50009Y-19823D02*
X50008Y-19828D01*
X50006Y-19833D01*
X50004Y-19838D01*
X50000Y-19842D01*
X49996Y-19846D01*
X49991Y-19848D01*
X49986Y-19850D01*
X49981Y-19850D01*
X49976Y-19850D01*
X49971Y-19848D01*
X49966Y-19846D01*
X49962Y-19843D01*
X49958Y-19838D01*
X49956Y-19834D01*
X49954Y-19828D01*
X49954Y-19823D01*
X49954Y-19818D01*
X49955Y-19813D01*
X49958Y-19808D01*
X49961Y-19804D01*
X49966Y-19801D01*
X49970Y-19798D01*
X49975Y-19796D01*
X49981Y-19796D01*
X49985Y-19796D01*
X49991Y-19797D01*
X49996Y-19800D01*
X50000Y-19803D01*
X50003Y-19807D01*
X50006Y-19812D01*
X50008Y-19817D01*
X50008Y-19823D01*
X50009Y-19823D01*
X49941Y-19882D02*
X49940Y-19871D01*
X49938Y-19859D01*
X49936Y-19847D01*
X49932Y-19836D01*
X49928Y-19825D01*
X49922Y-19814D01*
X49916Y-19804D01*
X49908Y-19794D01*
X49900Y-19786D01*
X49892Y-19778D01*
X49882Y-19770D01*
X49872Y-19764D01*
X49861Y-19758D01*
X49850Y-19754D01*
X49839Y-19750D01*
X49827Y-19748D01*
X49815Y-19746D01*
X49804Y-19745D01*
X49793Y-19746D01*
X49781Y-19748D01*
X49769Y-19750D01*
X49758Y-19754D01*
X49747Y-19758D01*
X49736Y-19764D01*
X49726Y-19770D01*
X49716Y-19778D01*
X49708Y-19786D01*
X49700Y-19794D01*
X49692Y-19804D01*
X49686Y-19814D01*
X49680Y-19825D01*
X49676Y-19836D01*
X49672Y-19847D01*
X49670Y-19859D01*
X49668Y-19871D01*
X49667Y-19882D01*
X49667Y-19096D02*
X49668Y-19107D01*
X49670Y-19119D01*
X49672Y-19131D01*
X49676Y-19142D01*
X49680Y-19153D01*
X49686Y-19164D01*
X49692Y-19174D01*
X49700Y-19184D01*
X49708Y-19192D01*
X49716Y-19200D01*
X49726Y-19208D01*
X49736Y-19214D01*
X49747Y-19220D01*
X49758Y-19224D01*
X49769Y-19228D01*
X49781Y-19230D01*
X49793Y-19232D01*
X49804Y-19233D01*
X49815Y-19232D01*
X49827Y-19230D01*
X49839Y-19228D01*
X49850Y-19224D01*
X49861Y-19220D01*
X49872Y-19214D01*
X49882Y-19208D01*
X49892Y-19200D01*
X49900Y-19192D01*
X49908Y-19184D01*
X49916Y-19174D01*
X49922Y-19164D01*
X49928Y-19153D01*
X49932Y-19142D01*
X49936Y-19131D01*
X49938Y-19119D01*
X49940Y-19107D01*
X49941Y-19096D01*
X49560Y-17127D02*
X49560Y-17913D01*
X49667Y-17127D02*
X49559Y-17127D01*
X50050Y-17127D02*
X49941Y-17127D01*
X50050Y-17716D02*
X49559Y-17716D01*
X49941Y-17912D02*
X50050Y-17912D01*
X49667Y-17912D02*
X49559Y-17912D01*
X49931Y-17716D02*
X49872Y-17716D01*
X49686Y-17324D02*
X49558Y-17324D01*
X50050Y-17324D02*
X49922Y-17324D01*
X50050Y-17127D02*
X50050Y-17324D01*
X49736Y-17324D02*
X49677Y-17324D01*
X49931Y-17324D02*
X49872Y-17324D01*
X49882Y-17324D02*
X49726Y-17324D01*
X49843Y-17520D02*
X49765Y-17520D01*
X49765Y-17520D02*
X49765Y-17598D01*
X49843Y-17598D02*
X49765Y-17598D01*
X49843Y-17520D02*
X49843Y-17598D01*
X50050Y-17884D02*
X50050Y-17913D01*
X50050Y-17324D02*
X50050Y-17884D01*
X50009Y-17854D02*
X50008Y-17859D01*
X50006Y-17864D01*
X50004Y-17869D01*
X50000Y-17873D01*
X49996Y-17877D01*
X49991Y-17879D01*
X49986Y-17881D01*
X49981Y-17881D01*
X49976Y-17881D01*
X49971Y-17879D01*
X49966Y-17877D01*
X49962Y-17874D01*
X49958Y-17869D01*
X49956Y-17865D01*
X49954Y-17859D01*
X49954Y-17854D01*
X49954Y-17849D01*
X49955Y-17844D01*
X49958Y-17839D01*
X49961Y-17835D01*
X49966Y-17832D01*
X49970Y-17829D01*
X49975Y-17827D01*
X49981Y-17827D01*
X49985Y-17827D01*
X49991Y-17828D01*
X49996Y-17831D01*
X50000Y-17834D01*
X50003Y-17838D01*
X50006Y-17843D01*
X50008Y-17848D01*
X50008Y-17854D01*
X50009Y-17854D01*
X49941Y-17913D02*
X49940Y-17902D01*
X49938Y-17890D01*
X49936Y-17878D01*
X49932Y-17867D01*
X49928Y-17856D01*
X49922Y-17845D01*
X49916Y-17835D01*
X49908Y-17825D01*
X49900Y-17817D01*
X49892Y-17809D01*
X49882Y-17801D01*
X49872Y-17795D01*
X49861Y-17789D01*
X49850Y-17785D01*
X49839Y-17781D01*
X49827Y-17779D01*
X49815Y-17777D01*
X49804Y-17776D01*
X49793Y-17777D01*
X49781Y-17779D01*
X49769Y-17781D01*
X49758Y-17785D01*
X49747Y-17789D01*
X49736Y-17795D01*
X49726Y-17801D01*
X49716Y-17809D01*
X49708Y-17817D01*
X49700Y-17825D01*
X49692Y-17835D01*
X49686Y-17845D01*
X49680Y-17856D01*
X49676Y-17867D01*
X49672Y-17878D01*
X49670Y-17890D01*
X49668Y-17902D01*
X49667Y-17913D01*
X49667Y-17127D02*
X49668Y-17138D01*
X49670Y-17150D01*
X49672Y-17162D01*
X49676Y-17173D01*
X49680Y-17184D01*
X49686Y-17195D01*
X49692Y-17205D01*
X49700Y-17215D01*
X49708Y-17223D01*
X49716Y-17231D01*
X49726Y-17239D01*
X49736Y-17245D01*
X49747Y-17251D01*
X49758Y-17255D01*
X49769Y-17259D01*
X49781Y-17261D01*
X49793Y-17263D01*
X49804Y-17264D01*
X49815Y-17263D01*
X49827Y-17261D01*
X49839Y-17259D01*
X49850Y-17255D01*
X49861Y-17251D01*
X49872Y-17245D01*
X49882Y-17239D01*
X49892Y-17231D01*
X49900Y-17223D01*
X49908Y-17215D01*
X49916Y-17205D01*
X49922Y-17195D01*
X49928Y-17184D01*
X49932Y-17173D01*
X49936Y-17162D01*
X49938Y-17150D01*
X49940Y-17138D01*
X49941Y-17127D01*
X50741Y-19096D02*
X50741Y-19882D01*
X50848Y-19096D02*
X50740Y-19096D01*
X51231Y-19096D02*
X51122Y-19096D01*
X51231Y-19685D02*
X50740Y-19685D01*
X51122Y-19881D02*
X51231Y-19881D01*
X50848Y-19881D02*
X50740Y-19881D01*
X51112Y-19685D02*
X51053Y-19685D01*
X50867Y-19293D02*
X50739Y-19293D01*
X51231Y-19293D02*
X51103Y-19293D01*
X51231Y-19096D02*
X51231Y-19293D01*
X50917Y-19293D02*
X50858Y-19293D01*
X51112Y-19293D02*
X51053Y-19293D01*
X51063Y-19293D02*
X50907Y-19293D01*
X51024Y-19489D02*
X50946Y-19489D01*
X50946Y-19489D02*
X50946Y-19567D01*
X51024Y-19567D02*
X50946Y-19567D01*
X51024Y-19489D02*
X51024Y-19567D01*
X51231Y-19853D02*
X51231Y-19882D01*
X51231Y-19293D02*
X51231Y-19853D01*
X51190Y-19823D02*
X51189Y-19828D01*
X51187Y-19833D01*
X51185Y-19838D01*
X51181Y-19842D01*
X51177Y-19846D01*
X51172Y-19848D01*
X51167Y-19850D01*
X51162Y-19850D01*
X51157Y-19850D01*
X51152Y-19848D01*
X51147Y-19846D01*
X51143Y-19843D01*
X51139Y-19838D01*
X51137Y-19834D01*
X51135Y-19828D01*
X51135Y-19823D01*
X51135Y-19818D01*
X51136Y-19813D01*
X51139Y-19808D01*
X51142Y-19804D01*
X51147Y-19801D01*
X51151Y-19798D01*
X51156Y-19796D01*
X51162Y-19796D01*
X51166Y-19796D01*
X51172Y-19797D01*
X51177Y-19800D01*
X51181Y-19803D01*
X51184Y-19807D01*
X51187Y-19812D01*
X51189Y-19817D01*
X51189Y-19823D01*
X51190Y-19823D01*
X51122Y-19882D02*
X51121Y-19871D01*
X51119Y-19859D01*
X51117Y-19847D01*
X51113Y-19836D01*
X51109Y-19825D01*
X51103Y-19814D01*
X51097Y-19804D01*
X51089Y-19794D01*
X51081Y-19786D01*
X51073Y-19778D01*
X51063Y-19770D01*
X51053Y-19764D01*
X51042Y-19758D01*
X51031Y-19754D01*
X51020Y-19750D01*
X51008Y-19748D01*
X50996Y-19746D01*
X50985Y-19745D01*
X50974Y-19746D01*
X50962Y-19748D01*
X50950Y-19750D01*
X50939Y-19754D01*
X50928Y-19758D01*
X50917Y-19764D01*
X50907Y-19770D01*
X50897Y-19778D01*
X50889Y-19786D01*
X50881Y-19794D01*
X50873Y-19804D01*
X50867Y-19814D01*
X50861Y-19825D01*
X50857Y-19836D01*
X50853Y-19847D01*
X50851Y-19859D01*
X50849Y-19871D01*
X50848Y-19882D01*
X50848Y-19096D02*
X50849Y-19107D01*
X50851Y-19119D01*
X50853Y-19131D01*
X50857Y-19142D01*
X50861Y-19153D01*
X50867Y-19164D01*
X50873Y-19174D01*
X50881Y-19184D01*
X50889Y-19192D01*
X50897Y-19200D01*
X50907Y-19208D01*
X50917Y-19214D01*
X50928Y-19220D01*
X50939Y-19224D01*
X50950Y-19228D01*
X50962Y-19230D01*
X50974Y-19232D01*
X50985Y-19233D01*
X50996Y-19232D01*
X51008Y-19230D01*
X51020Y-19228D01*
X51031Y-19224D01*
X51042Y-19220D01*
X51053Y-19214D01*
X51063Y-19208D01*
X51073Y-19200D01*
X51081Y-19192D01*
X51089Y-19184D01*
X51097Y-19174D01*
X51103Y-19164D01*
X51109Y-19153D01*
X51113Y-19142D01*
X51117Y-19131D01*
X51119Y-19119D01*
X51121Y-19107D01*
X51122Y-19096D01*
X50741Y-17127D02*
X50741Y-17913D01*
X50848Y-17127D02*
X50740Y-17127D01*
X51231Y-17127D02*
X51122Y-17127D01*
X51231Y-17716D02*
X50740Y-17716D01*
X51122Y-17912D02*
X51231Y-17912D01*
X50848Y-17912D02*
X50740Y-17912D01*
X51112Y-17716D02*
X51053Y-17716D01*
X50867Y-17324D02*
X50739Y-17324D01*
X51231Y-17324D02*
X51103Y-17324D01*
X51231Y-17127D02*
X51231Y-17324D01*
X50917Y-17324D02*
X50858Y-17324D01*
X51112Y-17324D02*
X51053Y-17324D01*
X51063Y-17324D02*
X50907Y-17324D01*
X51024Y-17520D02*
X50946Y-17520D01*
X50946Y-17520D02*
X50946Y-17598D01*
X51024Y-17598D02*
X50946Y-17598D01*
X51024Y-17520D02*
X51024Y-17598D01*
X51231Y-17884D02*
X51231Y-17913D01*
X51231Y-17324D02*
X51231Y-17884D01*
X51190Y-17854D02*
X51189Y-17859D01*
X51187Y-17864D01*
X51185Y-17869D01*
X51181Y-17873D01*
X51177Y-17877D01*
X51172Y-17879D01*
X51167Y-17881D01*
X51162Y-17881D01*
X51157Y-17881D01*
X51152Y-17879D01*
X51147Y-17877D01*
X51143Y-17874D01*
X51139Y-17869D01*
X51137Y-17865D01*
X51135Y-17859D01*
X51135Y-17854D01*
X51135Y-17849D01*
X51136Y-17844D01*
X51139Y-17839D01*
X51142Y-17835D01*
X51147Y-17832D01*
X51151Y-17829D01*
X51156Y-17827D01*
X51162Y-17827D01*
X51166Y-17827D01*
X51172Y-17828D01*
X51177Y-17831D01*
X51181Y-17834D01*
X51184Y-17838D01*
X51187Y-17843D01*
X51189Y-17848D01*
X51189Y-17854D01*
X51190Y-17854D01*
X51122Y-17913D02*
X51121Y-17902D01*
X51119Y-17890D01*
X51117Y-17878D01*
X51113Y-17867D01*
X51109Y-17856D01*
X51103Y-17845D01*
X51097Y-17835D01*
X51089Y-17825D01*
X51081Y-17817D01*
X51073Y-17809D01*
X51063Y-17801D01*
X51053Y-17795D01*
X51042Y-17789D01*
X51031Y-17785D01*
X51020Y-17781D01*
X51008Y-17779D01*
X50996Y-17777D01*
X50985Y-17776D01*
X50974Y-17777D01*
X50962Y-17779D01*
X50950Y-17781D01*
X50939Y-17785D01*
X50928Y-17789D01*
X50917Y-17795D01*
X50907Y-17801D01*
X50897Y-17809D01*
X50889Y-17817D01*
X50881Y-17825D01*
X50873Y-17835D01*
X50867Y-17845D01*
X50861Y-17856D01*
X50857Y-17867D01*
X50853Y-17878D01*
X50851Y-17890D01*
X50849Y-17902D01*
X50848Y-17913D01*
X50848Y-17127D02*
X50849Y-17138D01*
X50851Y-17150D01*
X50853Y-17162D01*
X50857Y-17173D01*
X50861Y-17184D01*
X50867Y-17195D01*
X50873Y-17205D01*
X50881Y-17215D01*
X50889Y-17223D01*
X50897Y-17231D01*
X50907Y-17239D01*
X50917Y-17245D01*
X50928Y-17251D01*
X50939Y-17255D01*
X50950Y-17259D01*
X50962Y-17261D01*
X50974Y-17263D01*
X50985Y-17264D01*
X50996Y-17263D01*
X51008Y-17261D01*
X51020Y-17259D01*
X51031Y-17255D01*
X51042Y-17251D01*
X51053Y-17245D01*
X51063Y-17239D01*
X51073Y-17231D01*
X51081Y-17223D01*
X51089Y-17215D01*
X51097Y-17205D01*
X51103Y-17195D01*
X51109Y-17184D01*
X51113Y-17173D01*
X51117Y-17162D01*
X51119Y-17150D01*
X51121Y-17138D01*
X51122Y-17127D01*
X51922Y-19096D02*
X51922Y-19882D01*
X52029Y-19096D02*
X51921Y-19096D01*
X52412Y-19096D02*
X52303Y-19096D01*
X52412Y-19685D02*
X51921Y-19685D01*
X52303Y-19881D02*
X52412Y-19881D01*
X52029Y-19881D02*
X51921Y-19881D01*
X52293Y-19685D02*
X52234Y-19685D01*
X52048Y-19293D02*
X51920Y-19293D01*
X52412Y-19293D02*
X52284Y-19293D01*
X52412Y-19096D02*
X52412Y-19293D01*
X52098Y-19293D02*
X52039Y-19293D01*
X52293Y-19293D02*
X52234Y-19293D01*
X52244Y-19293D02*
X52088Y-19293D01*
X52205Y-19489D02*
X52127Y-19489D01*
X52127Y-19489D02*
X52127Y-19567D01*
X52205Y-19567D02*
X52127Y-19567D01*
X52205Y-19489D02*
X52205Y-19567D01*
X52412Y-19853D02*
X52412Y-19882D01*
X52412Y-19293D02*
X52412Y-19853D01*
X52371Y-19823D02*
X52370Y-19828D01*
X52368Y-19833D01*
X52366Y-19838D01*
X52362Y-19842D01*
X52358Y-19846D01*
X52353Y-19848D01*
X52348Y-19850D01*
X52343Y-19850D01*
X52338Y-19850D01*
X52333Y-19848D01*
X52328Y-19846D01*
X52324Y-19843D01*
X52320Y-19838D01*
X52318Y-19834D01*
X52316Y-19828D01*
X52316Y-19823D01*
X52316Y-19818D01*
X52317Y-19813D01*
X52320Y-19808D01*
X52323Y-19804D01*
X52328Y-19801D01*
X52332Y-19798D01*
X52337Y-19796D01*
X52343Y-19796D01*
X52347Y-19796D01*
X52353Y-19797D01*
X52358Y-19800D01*
X52362Y-19803D01*
X52365Y-19807D01*
X52368Y-19812D01*
X52370Y-19817D01*
X52370Y-19823D01*
X52371Y-19823D01*
X52303Y-19882D02*
X52302Y-19871D01*
X52300Y-19859D01*
X52298Y-19847D01*
X52294Y-19836D01*
X52290Y-19825D01*
X52284Y-19814D01*
X52278Y-19804D01*
X52270Y-19794D01*
X52262Y-19786D01*
X52254Y-19778D01*
X52244Y-19770D01*
X52234Y-19764D01*
X52223Y-19758D01*
X52212Y-19754D01*
X52201Y-19750D01*
X52189Y-19748D01*
X52177Y-19746D01*
X52166Y-19745D01*
X52155Y-19746D01*
X52143Y-19748D01*
X52131Y-19750D01*
X52120Y-19754D01*
X52109Y-19758D01*
X52098Y-19764D01*
X52088Y-19770D01*
X52078Y-19778D01*
X52070Y-19786D01*
X52062Y-19794D01*
X52054Y-19804D01*
X52048Y-19814D01*
X52042Y-19825D01*
X52038Y-19836D01*
X52034Y-19847D01*
X52032Y-19859D01*
X52030Y-19871D01*
X52029Y-19882D01*
X52029Y-19096D02*
X52030Y-19107D01*
X52032Y-19119D01*
X52034Y-19131D01*
X52038Y-19142D01*
X52042Y-19153D01*
X52048Y-19164D01*
X52054Y-19174D01*
X52062Y-19184D01*
X52070Y-19192D01*
X52078Y-19200D01*
X52088Y-19208D01*
X52098Y-19214D01*
X52109Y-19220D01*
X52120Y-19224D01*
X52131Y-19228D01*
X52143Y-19230D01*
X52155Y-19232D01*
X52166Y-19233D01*
X52177Y-19232D01*
X52189Y-19230D01*
X52201Y-19228D01*
X52212Y-19224D01*
X52223Y-19220D01*
X52234Y-19214D01*
X52244Y-19208D01*
X52254Y-19200D01*
X52262Y-19192D01*
X52270Y-19184D01*
X52278Y-19174D01*
X52284Y-19164D01*
X52290Y-19153D01*
X52294Y-19142D01*
X52298Y-19131D01*
X52300Y-19119D01*
X52302Y-19107D01*
X52303Y-19096D01*
X51922Y-17127D02*
X51922Y-17913D01*
X52029Y-17127D02*
X51921Y-17127D01*
X52412Y-17127D02*
X52303Y-17127D01*
X52412Y-17716D02*
X51921Y-17716D01*
X52303Y-17912D02*
X52412Y-17912D01*
X52029Y-17912D02*
X51921Y-17912D01*
X52293Y-17716D02*
X52234Y-17716D01*
X52048Y-17324D02*
X51920Y-17324D01*
X52412Y-17324D02*
X52284Y-17324D01*
X52412Y-17127D02*
X52412Y-17324D01*
X52098Y-17324D02*
X52039Y-17324D01*
X52293Y-17324D02*
X52234Y-17324D01*
X52244Y-17324D02*
X52088Y-17324D01*
X52205Y-17520D02*
X52127Y-17520D01*
X52127Y-17520D02*
X52127Y-17598D01*
X52205Y-17598D02*
X52127Y-17598D01*
X52205Y-17520D02*
X52205Y-17598D01*
X52412Y-17884D02*
X52412Y-17913D01*
X52412Y-17324D02*
X52412Y-17884D01*
X52371Y-17854D02*
X52370Y-17859D01*
X52368Y-17864D01*
X52366Y-17869D01*
X52362Y-17873D01*
X52358Y-17877D01*
X52353Y-17879D01*
X52348Y-17881D01*
X52343Y-17881D01*
X52338Y-17881D01*
X52333Y-17879D01*
X52328Y-17877D01*
X52324Y-17874D01*
X52320Y-17869D01*
X52318Y-17865D01*
X52316Y-17859D01*
X52316Y-17854D01*
X52316Y-17849D01*
X52317Y-17844D01*
X52320Y-17839D01*
X52323Y-17835D01*
X52328Y-17832D01*
X52332Y-17829D01*
X52337Y-17827D01*
X52343Y-17827D01*
X52347Y-17827D01*
X52353Y-17828D01*
X52358Y-17831D01*
X52362Y-17834D01*
X52365Y-17838D01*
X52368Y-17843D01*
X52370Y-17848D01*
X52370Y-17854D01*
X52371Y-17854D01*
X52303Y-17913D02*
X52302Y-17902D01*
X52300Y-17890D01*
X52298Y-17878D01*
X52294Y-17867D01*
X52290Y-17856D01*
X52284Y-17845D01*
X52278Y-17835D01*
X52270Y-17825D01*
X52262Y-17817D01*
X52254Y-17809D01*
X52244Y-17801D01*
X52234Y-17795D01*
X52223Y-17789D01*
X52212Y-17785D01*
X52201Y-17781D01*
X52189Y-17779D01*
X52177Y-17777D01*
X52166Y-17776D01*
X52155Y-17777D01*
X52143Y-17779D01*
X52131Y-17781D01*
X52120Y-17785D01*
X52109Y-17789D01*
X52098Y-17795D01*
X52088Y-17801D01*
X52078Y-17809D01*
X52070Y-17817D01*
X52062Y-17825D01*
X52054Y-17835D01*
X52048Y-17845D01*
X52042Y-17856D01*
X52038Y-17867D01*
X52034Y-17878D01*
X52032Y-17890D01*
X52030Y-17902D01*
X52029Y-17913D01*
X52029Y-17127D02*
X52030Y-17138D01*
X52032Y-17150D01*
X52034Y-17162D01*
X52038Y-17173D01*
X52042Y-17184D01*
X52048Y-17195D01*
X52054Y-17205D01*
X52062Y-17215D01*
X52070Y-17223D01*
X52078Y-17231D01*
X52088Y-17239D01*
X52098Y-17245D01*
X52109Y-17251D01*
X52120Y-17255D01*
X52131Y-17259D01*
X52143Y-17261D01*
X52155Y-17263D01*
X52166Y-17264D01*
X52177Y-17263D01*
X52189Y-17261D01*
X52201Y-17259D01*
X52212Y-17255D01*
X52223Y-17251D01*
X52234Y-17245D01*
X52244Y-17239D01*
X52254Y-17231D01*
X52262Y-17223D01*
X52270Y-17215D01*
X52278Y-17205D01*
X52284Y-17195D01*
X52290Y-17184D01*
X52294Y-17173D01*
X52298Y-17162D01*
X52300Y-17150D01*
X52302Y-17138D01*
X52303Y-17127D01*
X53104Y-19096D02*
X53104Y-19882D01*
X53211Y-19096D02*
X53103Y-19096D01*
X53594Y-19096D02*
X53485Y-19096D01*
X53594Y-19685D02*
X53103Y-19685D01*
X53485Y-19881D02*
X53594Y-19881D01*
X53211Y-19881D02*
X53103Y-19881D01*
X53475Y-19685D02*
X53416Y-19685D01*
X53230Y-19293D02*
X53102Y-19293D01*
X53594Y-19293D02*
X53466Y-19293D01*
X53594Y-19096D02*
X53594Y-19293D01*
X53280Y-19293D02*
X53221Y-19293D01*
X53475Y-19293D02*
X53416Y-19293D01*
X53426Y-19293D02*
X53270Y-19293D01*
X53387Y-19489D02*
X53309Y-19489D01*
X53309Y-19489D02*
X53309Y-19567D01*
X53387Y-19567D02*
X53309Y-19567D01*
X53387Y-19489D02*
X53387Y-19567D01*
X53594Y-19853D02*
X53594Y-19882D01*
X53594Y-19293D02*
X53594Y-19853D01*
X53553Y-19823D02*
X53552Y-19828D01*
X53550Y-19833D01*
X53548Y-19838D01*
X53544Y-19842D01*
X53540Y-19846D01*
X53535Y-19848D01*
X53530Y-19850D01*
X53525Y-19850D01*
X53520Y-19850D01*
X53515Y-19848D01*
X53510Y-19846D01*
X53506Y-19843D01*
X53502Y-19838D01*
X53500Y-19834D01*
X53498Y-19828D01*
X53498Y-19823D01*
X53498Y-19818D01*
X53499Y-19813D01*
X53502Y-19808D01*
X53505Y-19804D01*
X53510Y-19801D01*
X53514Y-19798D01*
X53519Y-19796D01*
X53525Y-19796D01*
X53529Y-19796D01*
X53535Y-19797D01*
X53540Y-19800D01*
X53544Y-19803D01*
X53547Y-19807D01*
X53550Y-19812D01*
X53552Y-19817D01*
X53552Y-19823D01*
X53553Y-19823D01*
X53485Y-19882D02*
X53484Y-19871D01*
X53482Y-19859D01*
X53480Y-19847D01*
X53476Y-19836D01*
X53472Y-19825D01*
X53466Y-19814D01*
X53460Y-19804D01*
X53452Y-19794D01*
X53444Y-19786D01*
X53436Y-19778D01*
X53426Y-19770D01*
X53416Y-19764D01*
X53405Y-19758D01*
X53394Y-19754D01*
X53383Y-19750D01*
X53371Y-19748D01*
X53359Y-19746D01*
X53348Y-19745D01*
X53337Y-19746D01*
X53325Y-19748D01*
X53313Y-19750D01*
X53302Y-19754D01*
X53291Y-19758D01*
X53280Y-19764D01*
X53270Y-19770D01*
X53260Y-19778D01*
X53252Y-19786D01*
X53244Y-19794D01*
X53236Y-19804D01*
X53230Y-19814D01*
X53224Y-19825D01*
X53220Y-19836D01*
X53216Y-19847D01*
X53214Y-19859D01*
X53212Y-19871D01*
X53211Y-19882D01*
X53211Y-19096D02*
X53212Y-19107D01*
X53214Y-19119D01*
X53216Y-19131D01*
X53220Y-19142D01*
X53224Y-19153D01*
X53230Y-19164D01*
X53236Y-19174D01*
X53244Y-19184D01*
X53252Y-19192D01*
X53260Y-19200D01*
X53270Y-19208D01*
X53280Y-19214D01*
X53291Y-19220D01*
X53302Y-19224D01*
X53313Y-19228D01*
X53325Y-19230D01*
X53337Y-19232D01*
X53348Y-19233D01*
X53359Y-19232D01*
X53371Y-19230D01*
X53383Y-19228D01*
X53394Y-19224D01*
X53405Y-19220D01*
X53416Y-19214D01*
X53426Y-19208D01*
X53436Y-19200D01*
X53444Y-19192D01*
X53452Y-19184D01*
X53460Y-19174D01*
X53466Y-19164D01*
X53472Y-19153D01*
X53476Y-19142D01*
X53480Y-19131D01*
X53482Y-19119D01*
X53484Y-19107D01*
X53485Y-19096D01*
X53104Y-17127D02*
X53104Y-17913D01*
X53211Y-17127D02*
X53103Y-17127D01*
X53594Y-17127D02*
X53485Y-17127D01*
X53594Y-17716D02*
X53103Y-17716D01*
X53485Y-17912D02*
X53594Y-17912D01*
X53211Y-17912D02*
X53103Y-17912D01*
X53475Y-17716D02*
X53416Y-17716D01*
X53230Y-17324D02*
X53102Y-17324D01*
X53594Y-17324D02*
X53466Y-17324D01*
X53594Y-17127D02*
X53594Y-17324D01*
X53280Y-17324D02*
X53221Y-17324D01*
X53475Y-17324D02*
X53416Y-17324D01*
X53426Y-17324D02*
X53270Y-17324D01*
X53387Y-17520D02*
X53309Y-17520D01*
X53309Y-17520D02*
X53309Y-17598D01*
X53387Y-17598D02*
X53309Y-17598D01*
X53387Y-17520D02*
X53387Y-17598D01*
X53594Y-17884D02*
X53594Y-17913D01*
X53594Y-17324D02*
X53594Y-17884D01*
X53553Y-17854D02*
X53552Y-17859D01*
X53550Y-17864D01*
X53548Y-17869D01*
X53544Y-17873D01*
X53540Y-17877D01*
X53535Y-17879D01*
X53530Y-17881D01*
X53525Y-17881D01*
X53520Y-17881D01*
X53515Y-17879D01*
X53510Y-17877D01*
X53506Y-17874D01*
X53502Y-17869D01*
X53500Y-17865D01*
X53498Y-17859D01*
X53498Y-17854D01*
X53498Y-17849D01*
X53499Y-17844D01*
X53502Y-17839D01*
X53505Y-17835D01*
X53510Y-17832D01*
X53514Y-17829D01*
X53519Y-17827D01*
X53525Y-17827D01*
X53529Y-17827D01*
X53535Y-17828D01*
X53540Y-17831D01*
X53544Y-17834D01*
X53547Y-17838D01*
X53550Y-17843D01*
X53552Y-17848D01*
X53552Y-17854D01*
X53553Y-17854D01*
X53485Y-17913D02*
X53484Y-17902D01*
X53482Y-17890D01*
X53480Y-17878D01*
X53476Y-17867D01*
X53472Y-17856D01*
X53466Y-17845D01*
X53460Y-17835D01*
X53452Y-17825D01*
X53444Y-17817D01*
X53436Y-17809D01*
X53426Y-17801D01*
X53416Y-17795D01*
X53405Y-17789D01*
X53394Y-17785D01*
X53383Y-17781D01*
X53371Y-17779D01*
X53359Y-17777D01*
X53348Y-17776D01*
X53337Y-17777D01*
X53325Y-17779D01*
X53313Y-17781D01*
X53302Y-17785D01*
X53291Y-17789D01*
X53280Y-17795D01*
X53270Y-17801D01*
X53260Y-17809D01*
X53252Y-17817D01*
X53244Y-17825D01*
X53236Y-17835D01*
X53230Y-17845D01*
X53224Y-17856D01*
X53220Y-17867D01*
X53216Y-17878D01*
X53214Y-17890D01*
X53212Y-17902D01*
X53211Y-17913D01*
X53211Y-17127D02*
X53212Y-17138D01*
X53214Y-17150D01*
X53216Y-17162D01*
X53220Y-17173D01*
X53224Y-17184D01*
X53230Y-17195D01*
X53236Y-17205D01*
X53244Y-17215D01*
X53252Y-17223D01*
X53260Y-17231D01*
X53270Y-17239D01*
X53280Y-17245D01*
X53291Y-17251D01*
X53302Y-17255D01*
X53313Y-17259D01*
X53325Y-17261D01*
X53337Y-17263D01*
X53348Y-17264D01*
X53359Y-17263D01*
X53371Y-17261D01*
X53383Y-17259D01*
X53394Y-17255D01*
X53405Y-17251D01*
X53416Y-17245D01*
X53426Y-17239D01*
X53436Y-17231D01*
X53444Y-17223D01*
X53452Y-17215D01*
X53460Y-17205D01*
X53466Y-17195D01*
X53472Y-17184D01*
X53476Y-17173D01*
X53480Y-17162D01*
X53482Y-17150D01*
X53484Y-17138D01*
X53485Y-17127D01*
G54D17*
X18261Y-32938D02*
X18019Y-32629D01*
X18019Y-32629D02*
X17864Y-32750D01*
X18106Y-33059D02*
X17864Y-32750D01*
X18261Y-32938D02*
X18106Y-33059D01*
G54D14*
X20321Y-35575D02*
X15959Y-29992D01*
X15959Y-29992D02*
X14563Y-31082D01*
X20321Y-35575D02*
X18926Y-36666D01*
X18926Y-36666D02*
X14563Y-31082D01*
G54D17*
X49106Y-34694D02*
X49234Y-34323D01*
X49234Y-34323D02*
X49048Y-34259D01*
X48920Y-34629D02*
X49048Y-34259D01*
X49106Y-34694D02*
X48920Y-34629D01*
G54D14*
X48017Y-37858D02*
X50324Y-31158D01*
X50324Y-31158D02*
X48649Y-30582D01*
X48017Y-37858D02*
X46342Y-37282D01*
X46342Y-37282D02*
X48649Y-30582D01*
X42339Y-35721D02*
X42339Y-34821D01*
X42339Y-34821D02*
X40339Y-34821D01*
X40339Y-34821D02*
X40339Y-35721D01*
X42339Y-36921D02*
X41739Y-37621D01*
X41739Y-37621D02*
X40939Y-37621D01*
X40939Y-37621D02*
X40339Y-36921D01*
X41655Y-36221D02*
X41648Y-36282D01*
X41631Y-36341D01*
X41602Y-36395D01*
X41563Y-36443D01*
X41515Y-36482D01*
X41461Y-36512D01*
X41402Y-36530D01*
X41341Y-36536D01*
X41280Y-36531D01*
X41221Y-36513D01*
X41166Y-36485D01*
X41118Y-36446D01*
X41079Y-36399D01*
X41049Y-36345D01*
X41030Y-36286D01*
X41024Y-36225D01*
X41029Y-36164D01*
X41046Y-36105D01*
X41074Y-36050D01*
X41112Y-36002D01*
X41159Y-35962D01*
X41213Y-35932D01*
X41272Y-35913D01*
X41333Y-35906D01*
X41393Y-35910D01*
X41453Y-35927D01*
X41508Y-35955D01*
X41556Y-35993D01*
X41597Y-36039D01*
X41627Y-36093D01*
X41647Y-36151D01*
X41654Y-36213D01*
X41655Y-36221D01*
G54D22*
X34380Y-41088D02*
X34380Y-40688D01*
X34380Y-40878D02*
X34609Y-40878D01*
X34609Y-41088D02*
X34609Y-40688D01*
X34875Y-40688D02*
X34952Y-40688D01*
X34990Y-40707D01*
X35028Y-40745D01*
X35047Y-40821D01*
X35047Y-40955D01*
X35028Y-41031D01*
X34990Y-41069D01*
X34952Y-41088D01*
X34875Y-41088D01*
X34837Y-41069D01*
X34799Y-41031D01*
X34780Y-40955D01*
X34780Y-40821D01*
X34799Y-40745D01*
X34837Y-40707D01*
X34875Y-40688D01*
X35409Y-41088D02*
X35218Y-41088D01*
X35218Y-40688D01*
X35542Y-40878D02*
X35676Y-40878D01*
X35733Y-41088D02*
X35542Y-41088D01*
X35542Y-40688D01*
X35733Y-40688D01*
X35885Y-40726D02*
X35904Y-40707D01*
X35942Y-40688D01*
X36038Y-40688D01*
X36076Y-40707D01*
X36095Y-40726D01*
X36114Y-40764D01*
X36114Y-40802D01*
X36095Y-40859D01*
X35866Y-41088D01*
X36114Y-41088D01*
G54D10*
X38634Y-35603D02*
X38634Y-35967D01*
X38656Y-36010D01*
X38677Y-36032D01*
X38720Y-36053D01*
X38806Y-36053D01*
X38848Y-36032D01*
X38870Y-36010D01*
X38891Y-35967D01*
X38891Y-35603D01*
X39298Y-35603D02*
X39212Y-35603D01*
X39169Y-35625D01*
X39148Y-35646D01*
X39105Y-35710D01*
X39084Y-35796D01*
X39084Y-35967D01*
X39105Y-36010D01*
X39127Y-36032D01*
X39169Y-36053D01*
X39255Y-36053D01*
X39298Y-36032D01*
X39319Y-36010D01*
X39341Y-35967D01*
X39341Y-35860D01*
X39319Y-35817D01*
X39298Y-35796D01*
X39255Y-35775D01*
X39169Y-35775D01*
X39127Y-35796D01*
X39105Y-35817D01*
X39084Y-35860D01*
X38386Y-36763D02*
X38219Y-36763D01*
X38219Y-36413D01*
X38502Y-36763D02*
X38502Y-36413D01*
X38619Y-36663D01*
X38736Y-36413D01*
X38736Y-36763D01*
X38869Y-36413D02*
X39086Y-36413D01*
X38969Y-36546D01*
X39019Y-36546D01*
X39052Y-36563D01*
X39069Y-36579D01*
X39086Y-36613D01*
X39086Y-36696D01*
X39069Y-36729D01*
X39052Y-36746D01*
X39019Y-36763D01*
X38919Y-36763D01*
X38886Y-36746D01*
X38869Y-36729D01*
X39285Y-36563D02*
X39252Y-36546D01*
X39235Y-36529D01*
X39219Y-36496D01*
X39219Y-36479D01*
X39235Y-36446D01*
X39252Y-36429D01*
X39285Y-36413D01*
X39352Y-36413D01*
X39385Y-36429D01*
X39402Y-36446D01*
X39419Y-36479D01*
X39419Y-36496D01*
X39402Y-36529D01*
X39385Y-36546D01*
X39352Y-36563D01*
X39285Y-36563D01*
X39252Y-36579D01*
X39235Y-36596D01*
X39219Y-36629D01*
X39219Y-36696D01*
X39235Y-36729D01*
X39252Y-36746D01*
X39285Y-36763D01*
X39352Y-36763D01*
X39385Y-36746D01*
X39402Y-36729D01*
X39419Y-36696D01*
X39419Y-36629D01*
X39402Y-36596D01*
X39385Y-36579D01*
X39352Y-36563D01*
X39718Y-36413D02*
X39652Y-36413D01*
X39618Y-36429D01*
X39602Y-36446D01*
X39568Y-36496D01*
X39552Y-36563D01*
X39552Y-36696D01*
X39568Y-36729D01*
X39585Y-36746D01*
X39618Y-36763D01*
X39685Y-36763D01*
X39718Y-36746D01*
X39735Y-36729D01*
X39752Y-36696D01*
X39752Y-36613D01*
X39735Y-36579D01*
X39718Y-36563D01*
X39685Y-36546D01*
X39618Y-36546D01*
X39585Y-36563D01*
X39568Y-36579D01*
X39552Y-36613D01*
G54D14*
X37109Y-37247D02*
X36990Y-37330D01*
X37109Y-37389D02*
X36859Y-37389D01*
X36859Y-37294D01*
X36871Y-37270D01*
X36883Y-37259D01*
X36907Y-37247D01*
X36943Y-37247D01*
X36966Y-37259D01*
X36978Y-37270D01*
X36990Y-37294D01*
X36990Y-37389D01*
X36859Y-37163D02*
X36859Y-37009D01*
X36954Y-37092D01*
X36954Y-37056D01*
X36966Y-37032D01*
X36978Y-37020D01*
X37002Y-37009D01*
X37062Y-37009D01*
X37085Y-37020D01*
X37097Y-37032D01*
X37109Y-37056D01*
X37109Y-37128D01*
X37097Y-37151D01*
X37085Y-37163D01*
X53449Y-15910D02*
X53330Y-15993D01*
X53449Y-16052D02*
X53199Y-16052D01*
X53199Y-15957D01*
X53211Y-15933D01*
X53223Y-15922D01*
X53247Y-15910D01*
X53283Y-15910D01*
X53306Y-15922D01*
X53318Y-15933D01*
X53330Y-15957D01*
X53330Y-16052D01*
X53283Y-15695D02*
X53449Y-15695D01*
X53187Y-15755D02*
X53366Y-15814D01*
X53366Y-15660D01*
X53306Y-15529D02*
X53294Y-15553D01*
X53283Y-15564D01*
X53259Y-15576D01*
X53247Y-15576D01*
X53223Y-15564D01*
X53211Y-15553D01*
X53199Y-15529D01*
X53199Y-15481D01*
X53211Y-15457D01*
X53223Y-15445D01*
X53247Y-15434D01*
X53259Y-15434D01*
X53283Y-15445D01*
X53294Y-15457D01*
X53306Y-15481D01*
X53306Y-15529D01*
X53318Y-15553D01*
X53330Y-15564D01*
X53354Y-15576D01*
X53402Y-15576D01*
X53425Y-15564D01*
X53437Y-15553D01*
X53449Y-15529D01*
X53449Y-15481D01*
X53437Y-15457D01*
X53425Y-15445D01*
X53402Y-15434D01*
X53354Y-15434D01*
X53330Y-15445D01*
X53318Y-15457D01*
X53306Y-15481D01*
X53449Y-21421D02*
X53330Y-21504D01*
X53449Y-21563D02*
X53199Y-21563D01*
X53199Y-21468D01*
X53211Y-21444D01*
X53223Y-21433D01*
X53247Y-21421D01*
X53283Y-21421D01*
X53306Y-21433D01*
X53318Y-21444D01*
X53330Y-21468D01*
X53330Y-21563D01*
X53283Y-21206D02*
X53449Y-21206D01*
X53187Y-21266D02*
X53366Y-21325D01*
X53366Y-21171D01*
X53199Y-21099D02*
X53199Y-20933D01*
X53449Y-21040D01*
X52267Y-15910D02*
X52148Y-15993D01*
X52267Y-16052D02*
X52017Y-16052D01*
X52017Y-15957D01*
X52029Y-15933D01*
X52041Y-15922D01*
X52065Y-15910D01*
X52101Y-15910D01*
X52124Y-15922D01*
X52136Y-15933D01*
X52148Y-15957D01*
X52148Y-16052D01*
X52101Y-15695D02*
X52267Y-15695D01*
X52005Y-15755D02*
X52184Y-15814D01*
X52184Y-15660D01*
X52017Y-15457D02*
X52017Y-15505D01*
X52029Y-15529D01*
X52041Y-15541D01*
X52077Y-15564D01*
X52124Y-15576D01*
X52220Y-15576D01*
X52243Y-15564D01*
X52255Y-15553D01*
X52267Y-15529D01*
X52267Y-15481D01*
X52255Y-15457D01*
X52243Y-15445D01*
X52220Y-15434D01*
X52160Y-15434D01*
X52136Y-15445D01*
X52124Y-15457D01*
X52112Y-15481D01*
X52112Y-15529D01*
X52124Y-15553D01*
X52136Y-15564D01*
X52160Y-15576D01*
X52267Y-21421D02*
X52148Y-21504D01*
X52267Y-21563D02*
X52017Y-21563D01*
X52017Y-21468D01*
X52029Y-21444D01*
X52041Y-21433D01*
X52065Y-21421D01*
X52101Y-21421D01*
X52124Y-21433D01*
X52136Y-21444D01*
X52148Y-21468D01*
X52148Y-21563D01*
X52101Y-21206D02*
X52267Y-21206D01*
X52005Y-21266D02*
X52184Y-21325D01*
X52184Y-21171D01*
X52017Y-20956D02*
X52017Y-21075D01*
X52136Y-21087D01*
X52124Y-21075D01*
X52112Y-21052D01*
X52112Y-20992D01*
X52124Y-20968D01*
X52136Y-20956D01*
X52160Y-20945D01*
X52220Y-20945D01*
X52243Y-20956D01*
X52255Y-20968D01*
X52267Y-20992D01*
X52267Y-21052D01*
X52255Y-21075D01*
X52243Y-21087D01*
X51086Y-15910D02*
X50967Y-15993D01*
X51086Y-16052D02*
X50836Y-16052D01*
X50836Y-15957D01*
X50848Y-15933D01*
X50860Y-15922D01*
X50884Y-15910D01*
X50920Y-15910D01*
X50943Y-15922D01*
X50955Y-15933D01*
X50967Y-15957D01*
X50967Y-16052D01*
X50920Y-15695D02*
X51086Y-15695D01*
X50824Y-15755D02*
X51003Y-15814D01*
X51003Y-15660D01*
X50920Y-15457D02*
X51086Y-15457D01*
X50824Y-15517D02*
X51003Y-15576D01*
X51003Y-15422D01*
X51086Y-21421D02*
X50967Y-21504D01*
X51086Y-21563D02*
X50836Y-21563D01*
X50836Y-21468D01*
X50848Y-21444D01*
X50860Y-21433D01*
X50884Y-21421D01*
X50920Y-21421D01*
X50943Y-21433D01*
X50955Y-21444D01*
X50967Y-21468D01*
X50967Y-21563D01*
X50920Y-21206D02*
X51086Y-21206D01*
X50824Y-21266D02*
X51003Y-21325D01*
X51003Y-21171D01*
X50836Y-21099D02*
X50836Y-20945D01*
X50931Y-21028D01*
X50931Y-20992D01*
X50943Y-20968D01*
X50955Y-20956D01*
X50979Y-20945D01*
X51039Y-20945D01*
X51062Y-20956D01*
X51074Y-20968D01*
X51086Y-20992D01*
X51086Y-21064D01*
X51074Y-21087D01*
X51062Y-21099D01*
X49905Y-15910D02*
X49786Y-15993D01*
X49905Y-16052D02*
X49655Y-16052D01*
X49655Y-15957D01*
X49667Y-15933D01*
X49679Y-15922D01*
X49703Y-15910D01*
X49739Y-15910D01*
X49762Y-15922D01*
X49774Y-15933D01*
X49786Y-15957D01*
X49786Y-16052D01*
X49739Y-15695D02*
X49905Y-15695D01*
X49643Y-15755D02*
X49822Y-15814D01*
X49822Y-15660D01*
X49679Y-15576D02*
X49667Y-15564D01*
X49655Y-15541D01*
X49655Y-15481D01*
X49667Y-15457D01*
X49679Y-15445D01*
X49703Y-15434D01*
X49727Y-15434D01*
X49762Y-15445D01*
X49905Y-15588D01*
X49905Y-15434D01*
X49905Y-21421D02*
X49786Y-21504D01*
X49905Y-21563D02*
X49655Y-21563D01*
X49655Y-21468D01*
X49667Y-21444D01*
X49679Y-21433D01*
X49703Y-21421D01*
X49739Y-21421D01*
X49762Y-21433D01*
X49774Y-21444D01*
X49786Y-21468D01*
X49786Y-21563D01*
X49739Y-21206D02*
X49905Y-21206D01*
X49643Y-21266D02*
X49822Y-21325D01*
X49822Y-21171D01*
X49905Y-20945D02*
X49905Y-21087D01*
X49905Y-21016D02*
X49655Y-21016D01*
X49691Y-21040D01*
X49715Y-21064D01*
X49727Y-21087D01*
X48724Y-15910D02*
X48605Y-15993D01*
X48724Y-16052D02*
X48474Y-16052D01*
X48474Y-15957D01*
X48486Y-15933D01*
X48498Y-15922D01*
X48522Y-15910D01*
X48558Y-15910D01*
X48581Y-15922D01*
X48593Y-15933D01*
X48605Y-15957D01*
X48605Y-16052D01*
X48558Y-15695D02*
X48724Y-15695D01*
X48462Y-15755D02*
X48641Y-15814D01*
X48641Y-15660D01*
X48474Y-15517D02*
X48474Y-15493D01*
X48486Y-15469D01*
X48498Y-15457D01*
X48522Y-15445D01*
X48569Y-15434D01*
X48629Y-15434D01*
X48677Y-15445D01*
X48700Y-15457D01*
X48712Y-15469D01*
X48724Y-15493D01*
X48724Y-15517D01*
X48712Y-15541D01*
X48700Y-15553D01*
X48677Y-15564D01*
X48629Y-15576D01*
X48569Y-15576D01*
X48522Y-15564D01*
X48498Y-15553D01*
X48486Y-15541D01*
X48474Y-15517D01*
X48724Y-21421D02*
X48605Y-21504D01*
X48724Y-21563D02*
X48474Y-21563D01*
X48474Y-21468D01*
X48486Y-21444D01*
X48498Y-21433D01*
X48522Y-21421D01*
X48558Y-21421D01*
X48581Y-21433D01*
X48593Y-21444D01*
X48605Y-21468D01*
X48605Y-21563D01*
X48474Y-21337D02*
X48474Y-21183D01*
X48569Y-21266D01*
X48569Y-21230D01*
X48581Y-21206D01*
X48593Y-21194D01*
X48617Y-21183D01*
X48677Y-21183D01*
X48700Y-21194D01*
X48712Y-21206D01*
X48724Y-21230D01*
X48724Y-21302D01*
X48712Y-21325D01*
X48700Y-21337D01*
X48724Y-21064D02*
X48724Y-21016D01*
X48712Y-20992D01*
X48700Y-20980D01*
X48665Y-20956D01*
X48617Y-20945D01*
X48522Y-20945D01*
X48498Y-20956D01*
X48486Y-20968D01*
X48474Y-20992D01*
X48474Y-21040D01*
X48486Y-21064D01*
X48498Y-21075D01*
X48522Y-21087D01*
X48581Y-21087D01*
X48605Y-21075D01*
X48617Y-21064D01*
X48629Y-21040D01*
X48629Y-20992D01*
X48617Y-20968D01*
X48605Y-20956D01*
X48581Y-20945D01*
X47544Y-15910D02*
X47425Y-15993D01*
X47544Y-16052D02*
X47294Y-16052D01*
X47294Y-15957D01*
X47306Y-15933D01*
X47318Y-15922D01*
X47342Y-15910D01*
X47378Y-15910D01*
X47401Y-15922D01*
X47413Y-15933D01*
X47425Y-15957D01*
X47425Y-16052D01*
X47294Y-15826D02*
X47294Y-15672D01*
X47389Y-15755D01*
X47389Y-15719D01*
X47401Y-15695D01*
X47413Y-15683D01*
X47437Y-15672D01*
X47497Y-15672D01*
X47520Y-15683D01*
X47532Y-15695D01*
X47544Y-15719D01*
X47544Y-15791D01*
X47532Y-15814D01*
X47520Y-15826D01*
X47401Y-15529D02*
X47389Y-15553D01*
X47378Y-15564D01*
X47354Y-15576D01*
X47342Y-15576D01*
X47318Y-15564D01*
X47306Y-15553D01*
X47294Y-15529D01*
X47294Y-15481D01*
X47306Y-15457D01*
X47318Y-15445D01*
X47342Y-15434D01*
X47354Y-15434D01*
X47378Y-15445D01*
X47389Y-15457D01*
X47401Y-15481D01*
X47401Y-15529D01*
X47413Y-15553D01*
X47425Y-15564D01*
X47449Y-15576D01*
X47497Y-15576D01*
X47520Y-15564D01*
X47532Y-15553D01*
X47544Y-15529D01*
X47544Y-15481D01*
X47532Y-15457D01*
X47520Y-15445D01*
X47497Y-15434D01*
X47449Y-15434D01*
X47425Y-15445D01*
X47413Y-15457D01*
X47401Y-15481D01*
X47544Y-21421D02*
X47425Y-21504D01*
X47544Y-21563D02*
X47294Y-21563D01*
X47294Y-21468D01*
X47306Y-21444D01*
X47318Y-21433D01*
X47342Y-21421D01*
X47378Y-21421D01*
X47401Y-21433D01*
X47413Y-21444D01*
X47425Y-21468D01*
X47425Y-21563D01*
X47294Y-21337D02*
X47294Y-21183D01*
X47389Y-21266D01*
X47389Y-21230D01*
X47401Y-21206D01*
X47413Y-21194D01*
X47437Y-21183D01*
X47497Y-21183D01*
X47520Y-21194D01*
X47532Y-21206D01*
X47544Y-21230D01*
X47544Y-21302D01*
X47532Y-21325D01*
X47520Y-21337D01*
X47294Y-21099D02*
X47294Y-20933D01*
X47544Y-21040D01*
X46362Y-15910D02*
X46243Y-15993D01*
X46362Y-16052D02*
X46112Y-16052D01*
X46112Y-15957D01*
X46124Y-15933D01*
X46136Y-15922D01*
X46160Y-15910D01*
X46196Y-15910D01*
X46219Y-15922D01*
X46231Y-15933D01*
X46243Y-15957D01*
X46243Y-16052D01*
X46112Y-15826D02*
X46112Y-15672D01*
X46207Y-15755D01*
X46207Y-15719D01*
X46219Y-15695D01*
X46231Y-15683D01*
X46255Y-15672D01*
X46315Y-15672D01*
X46338Y-15683D01*
X46350Y-15695D01*
X46362Y-15719D01*
X46362Y-15791D01*
X46350Y-15814D01*
X46338Y-15826D01*
X46112Y-15457D02*
X46112Y-15505D01*
X46124Y-15529D01*
X46136Y-15541D01*
X46172Y-15564D01*
X46219Y-15576D01*
X46315Y-15576D01*
X46338Y-15564D01*
X46350Y-15553D01*
X46362Y-15529D01*
X46362Y-15481D01*
X46350Y-15457D01*
X46338Y-15445D01*
X46315Y-15434D01*
X46255Y-15434D01*
X46231Y-15445D01*
X46219Y-15457D01*
X46207Y-15481D01*
X46207Y-15529D01*
X46219Y-15553D01*
X46231Y-15564D01*
X46255Y-15576D01*
X46362Y-21421D02*
X46243Y-21504D01*
X46362Y-21563D02*
X46112Y-21563D01*
X46112Y-21468D01*
X46124Y-21444D01*
X46136Y-21433D01*
X46160Y-21421D01*
X46196Y-21421D01*
X46219Y-21433D01*
X46231Y-21444D01*
X46243Y-21468D01*
X46243Y-21563D01*
X46112Y-21337D02*
X46112Y-21183D01*
X46207Y-21266D01*
X46207Y-21230D01*
X46219Y-21206D01*
X46231Y-21194D01*
X46255Y-21183D01*
X46315Y-21183D01*
X46338Y-21194D01*
X46350Y-21206D01*
X46362Y-21230D01*
X46362Y-21302D01*
X46350Y-21325D01*
X46338Y-21337D01*
X46112Y-20956D02*
X46112Y-21075D01*
X46231Y-21087D01*
X46219Y-21075D01*
X46207Y-21052D01*
X46207Y-20992D01*
X46219Y-20968D01*
X46231Y-20956D01*
X46255Y-20945D01*
X46315Y-20945D01*
X46338Y-20956D01*
X46350Y-20968D01*
X46362Y-20992D01*
X46362Y-21052D01*
X46350Y-21075D01*
X46338Y-21087D01*
X45181Y-15910D02*
X45062Y-15993D01*
X45181Y-16052D02*
X44931Y-16052D01*
X44931Y-15957D01*
X44943Y-15933D01*
X44955Y-15922D01*
X44979Y-15910D01*
X45015Y-15910D01*
X45038Y-15922D01*
X45050Y-15933D01*
X45062Y-15957D01*
X45062Y-16052D01*
X44931Y-15826D02*
X44931Y-15672D01*
X45026Y-15755D01*
X45026Y-15719D01*
X45038Y-15695D01*
X45050Y-15683D01*
X45074Y-15672D01*
X45134Y-15672D01*
X45157Y-15683D01*
X45169Y-15695D01*
X45181Y-15719D01*
X45181Y-15791D01*
X45169Y-15814D01*
X45157Y-15826D01*
X45015Y-15457D02*
X45181Y-15457D01*
X44919Y-15517D02*
X45098Y-15576D01*
X45098Y-15422D01*
X45181Y-21421D02*
X45062Y-21504D01*
X45181Y-21563D02*
X44931Y-21563D01*
X44931Y-21468D01*
X44943Y-21444D01*
X44955Y-21433D01*
X44979Y-21421D01*
X45015Y-21421D01*
X45038Y-21433D01*
X45050Y-21444D01*
X45062Y-21468D01*
X45062Y-21563D01*
X44931Y-21337D02*
X44931Y-21183D01*
X45026Y-21266D01*
X45026Y-21230D01*
X45038Y-21206D01*
X45050Y-21194D01*
X45074Y-21183D01*
X45134Y-21183D01*
X45157Y-21194D01*
X45169Y-21206D01*
X45181Y-21230D01*
X45181Y-21302D01*
X45169Y-21325D01*
X45157Y-21337D01*
X44931Y-21099D02*
X44931Y-20945D01*
X45026Y-21028D01*
X45026Y-20992D01*
X45038Y-20968D01*
X45050Y-20956D01*
X45074Y-20945D01*
X45134Y-20945D01*
X45157Y-20956D01*
X45169Y-20968D01*
X45181Y-20992D01*
X45181Y-21064D01*
X45169Y-21087D01*
X45157Y-21099D01*
G54D23*
X23090Y-20460D02*
X23495Y-20460D01*
X23543Y-20436D01*
X23567Y-20412D01*
X23590Y-20365D01*
X23590Y-20269D01*
X23567Y-20222D01*
X23543Y-20198D01*
X23495Y-20174D01*
X23090Y-20174D01*
X23590Y-19674D02*
X23590Y-19960D01*
X23590Y-19817D02*
X23090Y-19817D01*
X23162Y-19865D01*
X23209Y-19912D01*
X23233Y-19960D01*
X22090Y-20138D02*
X22090Y-20376D01*
X21590Y-20376D01*
X21638Y-19995D02*
X21614Y-19971D01*
X21590Y-19923D01*
X21590Y-19804D01*
X21614Y-19757D01*
X21638Y-19733D01*
X21686Y-19709D01*
X21733Y-19709D01*
X21805Y-19733D01*
X22090Y-20019D01*
X22090Y-19709D01*
X22090Y-19471D02*
X22090Y-19376D01*
X22067Y-19328D01*
X22043Y-19304D01*
X21971Y-19257D01*
X21876Y-19233D01*
X21686Y-19233D01*
X21638Y-19257D01*
X21614Y-19281D01*
X21590Y-19328D01*
X21590Y-19424D01*
X21614Y-19471D01*
X21638Y-19495D01*
X21686Y-19519D01*
X21805Y-19519D01*
X21852Y-19495D01*
X21876Y-19471D01*
X21900Y-19424D01*
X21900Y-19328D01*
X21876Y-19281D01*
X21852Y-19257D01*
X21805Y-19233D01*
X21805Y-18948D02*
X21781Y-18995D01*
X21757Y-19019D01*
X21709Y-19043D01*
X21686Y-19043D01*
X21638Y-19019D01*
X21614Y-18995D01*
X21590Y-18948D01*
X21590Y-18852D01*
X21614Y-18805D01*
X21638Y-18781D01*
X21686Y-18757D01*
X21709Y-18757D01*
X21757Y-18781D01*
X21781Y-18805D01*
X21805Y-18852D01*
X21805Y-18948D01*
X21828Y-18995D01*
X21852Y-19019D01*
X21900Y-19043D01*
X21995Y-19043D01*
X22043Y-19019D01*
X22067Y-18995D01*
X22090Y-18948D01*
X22090Y-18852D01*
X22067Y-18805D01*
X22043Y-18781D01*
X21995Y-18757D01*
X21900Y-18757D01*
X21852Y-18781D01*
X21828Y-18805D01*
X21805Y-18852D01*
X22090Y-18543D02*
X21590Y-18543D01*
X21590Y-18352D01*
X21614Y-18305D01*
X21638Y-18281D01*
X21686Y-18257D01*
X21757Y-18257D01*
X21805Y-18281D01*
X21828Y-18305D01*
X21852Y-18352D01*
X21852Y-18543D01*
X24665Y-31484D02*
X25070Y-31484D01*
X25118Y-31460D01*
X25142Y-31436D01*
X25165Y-31389D01*
X25165Y-31293D01*
X25142Y-31246D01*
X25118Y-31222D01*
X25070Y-31198D01*
X24665Y-31198D01*
X24713Y-30984D02*
X24689Y-30960D01*
X24665Y-30912D01*
X24665Y-30793D01*
X24689Y-30746D01*
X24713Y-30722D01*
X24761Y-30698D01*
X24808Y-30698D01*
X24880Y-30722D01*
X25165Y-31008D01*
X25165Y-30698D01*
X23665Y-31162D02*
X23665Y-31400D01*
X23165Y-31400D01*
X23213Y-31019D02*
X23189Y-30995D01*
X23165Y-30947D01*
X23165Y-30828D01*
X23189Y-30781D01*
X23213Y-30757D01*
X23261Y-30733D01*
X23308Y-30733D01*
X23380Y-30757D01*
X23665Y-31043D01*
X23665Y-30733D01*
X23665Y-30495D02*
X23665Y-30400D01*
X23642Y-30352D01*
X23618Y-30328D01*
X23546Y-30281D01*
X23451Y-30257D01*
X23261Y-30257D01*
X23213Y-30281D01*
X23189Y-30305D01*
X23165Y-30352D01*
X23165Y-30448D01*
X23189Y-30495D01*
X23213Y-30519D01*
X23261Y-30543D01*
X23380Y-30543D01*
X23427Y-30519D01*
X23451Y-30495D01*
X23475Y-30448D01*
X23475Y-30352D01*
X23451Y-30305D01*
X23427Y-30281D01*
X23380Y-30257D01*
X23380Y-29972D02*
X23356Y-30019D01*
X23332Y-30043D01*
X23284Y-30067D01*
X23261Y-30067D01*
X23213Y-30043D01*
X23189Y-30019D01*
X23165Y-29972D01*
X23165Y-29876D01*
X23189Y-29829D01*
X23213Y-29805D01*
X23261Y-29781D01*
X23284Y-29781D01*
X23332Y-29805D01*
X23356Y-29829D01*
X23380Y-29876D01*
X23380Y-29972D01*
X23403Y-30019D01*
X23427Y-30043D01*
X23475Y-30067D01*
X23570Y-30067D01*
X23618Y-30043D01*
X23642Y-30019D01*
X23665Y-29972D01*
X23665Y-29876D01*
X23642Y-29829D01*
X23618Y-29805D01*
X23570Y-29781D01*
X23475Y-29781D01*
X23427Y-29805D01*
X23403Y-29829D01*
X23380Y-29876D01*
X23665Y-29567D02*
X23165Y-29567D01*
X23165Y-29376D01*
X23189Y-29329D01*
X23213Y-29305D01*
X23261Y-29281D01*
X23332Y-29281D01*
X23380Y-29305D01*
X23403Y-29329D01*
X23427Y-29376D01*
X23427Y-29567D01*
X32887Y-26634D02*
X32887Y-27039D01*
X32911Y-27087D01*
X32935Y-27111D01*
X32982Y-27134D01*
X33078Y-27134D01*
X33125Y-27111D01*
X33149Y-27087D01*
X33173Y-27039D01*
X33173Y-26634D01*
X33363Y-26634D02*
X33673Y-26634D01*
X33506Y-26825D01*
X33578Y-26825D01*
X33625Y-26849D01*
X33649Y-26872D01*
X33673Y-26920D01*
X33673Y-27039D01*
X33649Y-27087D01*
X33625Y-27111D01*
X33578Y-27134D01*
X33435Y-27134D01*
X33387Y-27111D01*
X33363Y-27087D01*
X33209Y-25634D02*
X32971Y-25634D01*
X32971Y-25134D01*
X33352Y-25182D02*
X33376Y-25158D01*
X33424Y-25134D01*
X33543Y-25134D01*
X33590Y-25158D01*
X33614Y-25182D01*
X33638Y-25230D01*
X33638Y-25277D01*
X33614Y-25349D01*
X33328Y-25634D01*
X33638Y-25634D01*
X33876Y-25634D02*
X33971Y-25634D01*
X34019Y-25611D01*
X34043Y-25587D01*
X34090Y-25515D01*
X34114Y-25420D01*
X34114Y-25230D01*
X34090Y-25182D01*
X34066Y-25158D01*
X34019Y-25134D01*
X33923Y-25134D01*
X33876Y-25158D01*
X33852Y-25182D01*
X33828Y-25230D01*
X33828Y-25349D01*
X33852Y-25396D01*
X33876Y-25420D01*
X33923Y-25444D01*
X34019Y-25444D01*
X34066Y-25420D01*
X34090Y-25396D01*
X34114Y-25349D01*
X34399Y-25349D02*
X34352Y-25325D01*
X34328Y-25301D01*
X34304Y-25253D01*
X34304Y-25230D01*
X34328Y-25182D01*
X34352Y-25158D01*
X34399Y-25134D01*
X34495Y-25134D01*
X34542Y-25158D01*
X34566Y-25182D01*
X34590Y-25230D01*
X34590Y-25253D01*
X34566Y-25301D01*
X34542Y-25325D01*
X34495Y-25349D01*
X34399Y-25349D01*
X34352Y-25372D01*
X34328Y-25396D01*
X34304Y-25444D01*
X34304Y-25539D01*
X34328Y-25587D01*
X34352Y-25611D01*
X34399Y-25634D01*
X34495Y-25634D01*
X34542Y-25611D01*
X34566Y-25587D01*
X34590Y-25539D01*
X34590Y-25444D01*
X34566Y-25396D01*
X34542Y-25372D01*
X34495Y-25349D01*
X34804Y-25634D02*
X34804Y-25134D01*
X34995Y-25134D01*
X35042Y-25158D01*
X35066Y-25182D01*
X35090Y-25230D01*
X35090Y-25301D01*
X35066Y-25349D01*
X35042Y-25372D01*
X34995Y-25396D01*
X34804Y-25396D01*
X42382Y-28137D02*
X42787Y-28137D01*
X42835Y-28113D01*
X42859Y-28089D01*
X42882Y-28042D01*
X42882Y-27946D01*
X42859Y-27899D01*
X42835Y-27875D01*
X42787Y-27851D01*
X42382Y-27851D01*
X42549Y-27399D02*
X42882Y-27399D01*
X42359Y-27518D02*
X42716Y-27637D01*
X42716Y-27327D01*
X41382Y-27815D02*
X41382Y-28053D01*
X40882Y-28053D01*
X40930Y-27672D02*
X40906Y-27648D01*
X40882Y-27600D01*
X40882Y-27481D01*
X40906Y-27434D01*
X40930Y-27410D01*
X40978Y-27386D01*
X41025Y-27386D01*
X41097Y-27410D01*
X41382Y-27696D01*
X41382Y-27386D01*
X41382Y-27148D02*
X41382Y-27053D01*
X41359Y-27005D01*
X41335Y-26981D01*
X41263Y-26934D01*
X41168Y-26910D01*
X40978Y-26910D01*
X40930Y-26934D01*
X40906Y-26958D01*
X40882Y-27005D01*
X40882Y-27101D01*
X40906Y-27148D01*
X40930Y-27172D01*
X40978Y-27196D01*
X41097Y-27196D01*
X41144Y-27172D01*
X41168Y-27148D01*
X41192Y-27101D01*
X41192Y-27005D01*
X41168Y-26958D01*
X41144Y-26934D01*
X41097Y-26910D01*
X41097Y-26625D02*
X41073Y-26672D01*
X41049Y-26696D01*
X41001Y-26720D01*
X40978Y-26720D01*
X40930Y-26696D01*
X40906Y-26672D01*
X40882Y-26625D01*
X40882Y-26529D01*
X40906Y-26482D01*
X40930Y-26458D01*
X40978Y-26434D01*
X41001Y-26434D01*
X41049Y-26458D01*
X41073Y-26482D01*
X41097Y-26529D01*
X41097Y-26625D01*
X41120Y-26672D01*
X41144Y-26696D01*
X41192Y-26720D01*
X41287Y-26720D01*
X41335Y-26696D01*
X41359Y-26672D01*
X41382Y-26625D01*
X41382Y-26529D01*
X41359Y-26482D01*
X41335Y-26458D01*
X41287Y-26434D01*
X41192Y-26434D01*
X41144Y-26458D01*
X41120Y-26482D01*
X41097Y-26529D01*
X41382Y-26220D02*
X40882Y-26220D01*
X40882Y-26029D01*
X40906Y-25982D01*
X40930Y-25958D01*
X40978Y-25934D01*
X41049Y-25934D01*
X41097Y-25958D01*
X41120Y-25982D01*
X41144Y-26029D01*
X41144Y-26220D01*
X36008Y-38391D02*
X36008Y-37891D01*
X36199Y-37891D01*
X36246Y-37915D01*
X36270Y-37939D01*
X36294Y-37987D01*
X36294Y-38058D01*
X36270Y-38106D01*
X36246Y-38129D01*
X36199Y-38153D01*
X36008Y-38153D01*
X36770Y-38391D02*
X36484Y-38391D01*
X36627Y-38391D02*
X36627Y-37891D01*
X36579Y-37963D01*
X36532Y-38010D01*
X36484Y-38034D01*
X37246Y-38391D02*
X36960Y-38391D01*
X37103Y-38391D02*
X37103Y-37891D01*
X37055Y-37963D01*
X37008Y-38010D01*
X36960Y-38034D01*
X30143Y-41147D02*
X30143Y-40647D01*
X30334Y-40647D01*
X30381Y-40671D01*
X30405Y-40695D01*
X30429Y-40743D01*
X30429Y-40814D01*
X30405Y-40862D01*
X30381Y-40885D01*
X30334Y-40909D01*
X30143Y-40909D01*
X30857Y-40647D02*
X30762Y-40647D01*
X30714Y-40671D01*
X30691Y-40695D01*
X30643Y-40766D01*
X30619Y-40862D01*
X30619Y-41052D01*
X30643Y-41100D01*
X30667Y-41124D01*
X30714Y-41147D01*
X30810Y-41147D01*
X30857Y-41124D01*
X30881Y-41100D01*
X30905Y-41052D01*
X30905Y-40933D01*
X30881Y-40885D01*
X30857Y-40862D01*
X30810Y-40838D01*
X30714Y-40838D01*
X30667Y-40862D01*
X30643Y-40885D01*
X30619Y-40933D01*
G54D22*
X26940Y-41797D02*
X26921Y-41816D01*
X26864Y-41835D01*
X26826Y-41835D01*
X26768Y-41816D01*
X26730Y-41778D01*
X26711Y-41740D01*
X26692Y-41663D01*
X26692Y-41606D01*
X26711Y-41530D01*
X26730Y-41492D01*
X26768Y-41454D01*
X26826Y-41435D01*
X26864Y-41435D01*
X26921Y-41454D01*
X26940Y-41473D01*
X27187Y-41435D02*
X27264Y-41435D01*
X27302Y-41454D01*
X27340Y-41492D01*
X27359Y-41568D01*
X27359Y-41702D01*
X27340Y-41778D01*
X27302Y-41816D01*
X27264Y-41835D01*
X27187Y-41835D01*
X27149Y-41816D01*
X27111Y-41778D01*
X27092Y-41702D01*
X27092Y-41568D01*
X27111Y-41492D01*
X27149Y-41454D01*
X27187Y-41435D01*
X27530Y-41835D02*
X27530Y-41435D01*
X27759Y-41835D01*
X27759Y-41435D01*
X27949Y-41835D02*
X27949Y-41435D01*
X28178Y-41835D01*
X28178Y-41435D01*
X28273Y-41873D02*
X28578Y-41873D01*
X28845Y-41568D02*
X28845Y-41835D01*
X28749Y-41416D02*
X28654Y-41702D01*
X28902Y-41702D01*
G54D23*
X51297Y-30005D02*
X50824Y-29842D01*
X50886Y-29661D01*
X50924Y-29625D01*
X50955Y-29610D01*
X51008Y-29603D01*
X51075Y-29626D01*
X51113Y-29664D01*
X51127Y-29694D01*
X51134Y-29747D01*
X51072Y-29927D01*
X51064Y-29144D02*
X50987Y-29369D01*
X51204Y-29469D01*
X51190Y-29439D01*
X51183Y-29386D01*
X51222Y-29273D01*
X51260Y-29237D01*
X51289Y-29222D01*
X51343Y-29215D01*
X51455Y-29253D01*
X51493Y-29292D01*
X51508Y-29322D01*
X51514Y-29374D01*
X51475Y-29487D01*
X51438Y-29524D01*
X51407Y-29539D01*
X16290Y-28252D02*
X15790Y-28252D01*
X15790Y-28061D01*
X15814Y-28014D01*
X15838Y-27990D01*
X15886Y-27966D01*
X15957Y-27966D01*
X16005Y-27990D01*
X16028Y-28014D01*
X16052Y-28061D01*
X16052Y-28252D01*
X15957Y-27538D02*
X16290Y-27538D01*
X15767Y-27657D02*
X16124Y-27776D01*
X16124Y-27466D01*
X41167Y-41147D02*
X41167Y-40647D01*
X41358Y-40647D01*
X41405Y-40671D01*
X41429Y-40695D01*
X41453Y-40743D01*
X41453Y-40814D01*
X41429Y-40862D01*
X41405Y-40885D01*
X41358Y-40909D01*
X41167Y-40909D01*
X41619Y-40647D02*
X41953Y-40647D01*
X41738Y-41147D01*
X33096Y-41147D02*
X33096Y-40647D01*
X33287Y-40647D01*
X33334Y-40671D01*
X33358Y-40695D01*
X33382Y-40743D01*
X33382Y-40814D01*
X33358Y-40862D01*
X33334Y-40885D01*
X33287Y-40909D01*
X33096Y-40909D01*
X33620Y-41147D02*
X33715Y-41147D01*
X33763Y-41124D01*
X33787Y-41100D01*
X33834Y-41028D01*
X33858Y-40933D01*
X33858Y-40743D01*
X33834Y-40695D01*
X33810Y-40671D01*
X33763Y-40647D01*
X33667Y-40647D01*
X33620Y-40671D01*
X33596Y-40695D01*
X33572Y-40743D01*
X33572Y-40862D01*
X33596Y-40909D01*
X33620Y-40933D01*
X33667Y-40957D01*
X33763Y-40957D01*
X33810Y-40933D01*
X33834Y-40909D01*
X33858Y-40862D01*
X24041Y-43706D02*
X24041Y-43206D01*
X24232Y-43206D01*
X24279Y-43230D01*
X24303Y-43254D01*
X24327Y-43302D01*
X24327Y-43373D01*
X24303Y-43421D01*
X24279Y-43444D01*
X24232Y-43468D01*
X24041Y-43468D01*
X24517Y-43254D02*
X24541Y-43230D01*
X24589Y-43206D01*
X24708Y-43206D01*
X24755Y-43230D01*
X24779Y-43254D01*
X24803Y-43302D01*
X24803Y-43349D01*
X24779Y-43421D01*
X24493Y-43706D01*
X24803Y-43706D01*
G54D22*
X24724Y-42910D02*
X24705Y-42929D01*
X24648Y-42948D01*
X24610Y-42948D01*
X24552Y-42929D01*
X24514Y-42891D01*
X24495Y-42853D01*
X24476Y-42776D01*
X24476Y-42719D01*
X24495Y-42643D01*
X24514Y-42605D01*
X24552Y-42567D01*
X24610Y-42548D01*
X24648Y-42548D01*
X24705Y-42567D01*
X24724Y-42586D01*
X24971Y-42548D02*
X25048Y-42548D01*
X25086Y-42567D01*
X25124Y-42605D01*
X25143Y-42681D01*
X25143Y-42815D01*
X25124Y-42891D01*
X25086Y-42929D01*
X25048Y-42948D01*
X24971Y-42948D01*
X24933Y-42929D01*
X24895Y-42891D01*
X24876Y-42815D01*
X24876Y-42681D01*
X24895Y-42605D01*
X24933Y-42567D01*
X24971Y-42548D01*
X25314Y-42948D02*
X25314Y-42548D01*
X25543Y-42948D01*
X25543Y-42548D01*
X25733Y-42948D02*
X25733Y-42548D01*
X25962Y-42948D01*
X25962Y-42548D01*
X26057Y-42986D02*
X26362Y-42986D01*
X26438Y-42586D02*
X26457Y-42567D01*
X26495Y-42548D01*
X26591Y-42548D01*
X26629Y-42567D01*
X26648Y-42586D01*
X26667Y-42624D01*
X26667Y-42662D01*
X26648Y-42719D01*
X26419Y-42948D01*
X26667Y-42948D01*
G54D23*
X44120Y-41147D02*
X44120Y-40647D01*
X44311Y-40647D01*
X44358Y-40671D01*
X44382Y-40695D01*
X44406Y-40743D01*
X44406Y-40814D01*
X44382Y-40862D01*
X44358Y-40885D01*
X44311Y-40909D01*
X44120Y-40909D01*
X44572Y-40647D02*
X44882Y-40647D01*
X44715Y-40838D01*
X44787Y-40838D01*
X44834Y-40862D01*
X44858Y-40885D01*
X44882Y-40933D01*
X44882Y-41052D01*
X44858Y-41100D01*
X44834Y-41124D01*
X44787Y-41147D01*
X44644Y-41147D01*
X44596Y-41124D01*
X44572Y-41100D01*
G54D16*
X30142Y-15435D02*
X30142Y-15035D01*
X30295Y-15035D01*
X30333Y-15054D01*
X30352Y-15073D01*
X30371Y-15111D01*
X30371Y-15168D01*
X30352Y-15206D01*
X30333Y-15225D01*
X30295Y-15244D01*
X30142Y-15244D01*
X30752Y-15435D02*
X30523Y-15435D01*
X30637Y-15435D02*
X30637Y-15035D01*
X30599Y-15092D01*
X30561Y-15130D01*
X30523Y-15149D01*
G54D23*
X47084Y-28112D02*
X46584Y-28112D01*
X46584Y-27993D01*
X46608Y-27921D01*
X46656Y-27874D01*
X46703Y-27850D01*
X46799Y-27826D01*
X46870Y-27826D01*
X46965Y-27850D01*
X47013Y-27874D01*
X47061Y-27921D01*
X47084Y-27993D01*
X47084Y-28112D01*
X46584Y-27660D02*
X46584Y-27326D01*
X47084Y-27541D01*
X50171Y-25973D02*
X49671Y-25973D01*
X49671Y-25854D01*
X49695Y-25782D01*
X49743Y-25735D01*
X49790Y-25711D01*
X49886Y-25687D01*
X49957Y-25687D01*
X50052Y-25711D01*
X50100Y-25735D01*
X50148Y-25782D01*
X50171Y-25854D01*
X50171Y-25973D01*
X49671Y-25235D02*
X49671Y-25473D01*
X49909Y-25497D01*
X49886Y-25473D01*
X49862Y-25425D01*
X49862Y-25306D01*
X49886Y-25259D01*
X49909Y-25235D01*
X49957Y-25211D01*
X50076Y-25211D01*
X50124Y-25235D01*
X50148Y-25259D01*
X50171Y-25306D01*
X50171Y-25425D01*
X50148Y-25473D01*
X50124Y-25497D01*
X48636Y-26937D02*
X48659Y-26865D01*
X48659Y-26746D01*
X48636Y-26699D01*
X48612Y-26675D01*
X48564Y-26651D01*
X48517Y-26651D01*
X48469Y-26675D01*
X48445Y-26699D01*
X48421Y-26746D01*
X48397Y-26842D01*
X48374Y-26889D01*
X48350Y-26913D01*
X48302Y-26937D01*
X48255Y-26937D01*
X48207Y-26913D01*
X48183Y-26889D01*
X48159Y-26842D01*
X48159Y-26722D01*
X48183Y-26651D01*
X48659Y-26437D02*
X48159Y-26437D01*
X48659Y-26151D02*
X48374Y-26366D01*
X48159Y-26151D02*
X48445Y-26437D01*
X48159Y-25985D02*
X48159Y-25675D01*
X48350Y-25842D01*
X48350Y-25770D01*
X48374Y-25723D01*
X48397Y-25699D01*
X48445Y-25675D01*
X48564Y-25675D01*
X48612Y-25699D01*
X48636Y-25723D01*
X48659Y-25770D01*
X48659Y-25913D01*
X48636Y-25961D01*
X48612Y-25985D01*
X48326Y-25247D02*
X48659Y-25247D01*
X48136Y-25366D02*
X48493Y-25485D01*
X48493Y-25175D01*
X48517Y-25009D02*
X48517Y-24771D01*
X48659Y-25056D02*
X48159Y-24890D01*
X48659Y-24723D01*
X16941Y-28714D02*
X16941Y-28214D01*
X17060Y-28214D01*
X17132Y-28238D01*
X17179Y-28286D01*
X17203Y-28333D01*
X17227Y-28429D01*
X17227Y-28500D01*
X17203Y-28595D01*
X17179Y-28643D01*
X17132Y-28691D01*
X17060Y-28714D01*
X16941Y-28714D01*
X17393Y-28214D02*
X17703Y-28214D01*
X17536Y-28405D01*
X17608Y-28405D01*
X17655Y-28429D01*
X17679Y-28452D01*
X17703Y-28500D01*
X17703Y-28619D01*
X17679Y-28667D01*
X17655Y-28691D01*
X17608Y-28714D01*
X17465Y-28714D01*
X17417Y-28691D01*
X17393Y-28667D01*
X17691Y-25973D02*
X17191Y-25973D01*
X17191Y-25854D01*
X17215Y-25782D01*
X17263Y-25735D01*
X17310Y-25711D01*
X17406Y-25687D01*
X17477Y-25687D01*
X17572Y-25711D01*
X17620Y-25735D01*
X17668Y-25782D01*
X17691Y-25854D01*
X17691Y-25973D01*
X17691Y-25211D02*
X17691Y-25497D01*
X17691Y-25354D02*
X17191Y-25354D01*
X17263Y-25402D01*
X17310Y-25449D01*
X17334Y-25497D01*
X47809Y-41566D02*
X47309Y-41566D01*
X47309Y-41447D01*
X47333Y-41375D01*
X47381Y-41328D01*
X47428Y-41304D01*
X47524Y-41280D01*
X47595Y-41280D01*
X47690Y-41304D01*
X47738Y-41328D01*
X47786Y-41375D01*
X47809Y-41447D01*
X47809Y-41566D01*
X47357Y-41090D02*
X47333Y-41066D01*
X47309Y-41018D01*
X47309Y-40899D01*
X47333Y-40852D01*
X47357Y-40828D01*
X47405Y-40804D01*
X47452Y-40804D01*
X47524Y-40828D01*
X47809Y-41114D01*
X47809Y-40804D01*
X47309Y-40352D02*
X47309Y-40590D01*
X47547Y-40614D01*
X47524Y-40590D01*
X47500Y-40542D01*
X47500Y-40423D01*
X47524Y-40376D01*
X47547Y-40352D01*
X47595Y-40328D01*
X47714Y-40328D01*
X47762Y-40352D01*
X47786Y-40376D01*
X47809Y-40423D01*
X47809Y-40542D01*
X47786Y-40590D01*
X47762Y-40614D01*
X42123Y-39407D02*
X42123Y-38907D01*
X42242Y-38907D01*
X42314Y-38931D01*
X42361Y-38979D01*
X42385Y-39026D01*
X42409Y-39122D01*
X42409Y-39193D01*
X42385Y-39288D01*
X42361Y-39336D01*
X42314Y-39384D01*
X42242Y-39407D01*
X42123Y-39407D01*
X42599Y-38955D02*
X42623Y-38931D01*
X42671Y-38907D01*
X42790Y-38907D01*
X42837Y-38931D01*
X42861Y-38955D01*
X42885Y-39003D01*
X42885Y-39050D01*
X42861Y-39122D01*
X42575Y-39407D01*
X42885Y-39407D01*
X43051Y-38907D02*
X43385Y-38907D01*
X43170Y-39407D01*
X30683Y-32904D02*
X30183Y-32904D01*
X30183Y-32785D01*
X30207Y-32713D01*
X30255Y-32666D01*
X30302Y-32642D01*
X30398Y-32618D01*
X30469Y-32618D01*
X30564Y-32642D01*
X30612Y-32666D01*
X30660Y-32713D01*
X30683Y-32785D01*
X30683Y-32904D01*
X30231Y-32428D02*
X30207Y-32404D01*
X30183Y-32356D01*
X30183Y-32237D01*
X30207Y-32190D01*
X30231Y-32166D01*
X30279Y-32142D01*
X30326Y-32142D01*
X30398Y-32166D01*
X30683Y-32452D01*
X30683Y-32142D01*
X30683Y-31904D02*
X30683Y-31809D01*
X30660Y-31761D01*
X30636Y-31737D01*
X30564Y-31690D01*
X30469Y-31666D01*
X30279Y-31666D01*
X30231Y-31690D01*
X30207Y-31714D01*
X30183Y-31761D01*
X30183Y-31857D01*
X30207Y-31904D01*
X30231Y-31928D01*
X30279Y-31952D01*
X30398Y-31952D01*
X30445Y-31928D01*
X30469Y-31904D01*
X30493Y-31857D01*
X30493Y-31761D01*
X30469Y-31714D01*
X30445Y-31690D01*
X30398Y-31666D01*
X32455Y-32904D02*
X31955Y-32904D01*
X31955Y-32785D01*
X31979Y-32713D01*
X32027Y-32666D01*
X32074Y-32642D01*
X32170Y-32618D01*
X32241Y-32618D01*
X32336Y-32642D01*
X32384Y-32666D01*
X32432Y-32713D01*
X32455Y-32785D01*
X32455Y-32904D01*
X31955Y-32452D02*
X31955Y-32142D01*
X32146Y-32309D01*
X32146Y-32237D01*
X32170Y-32190D01*
X32193Y-32166D01*
X32241Y-32142D01*
X32360Y-32142D01*
X32408Y-32166D01*
X32432Y-32190D01*
X32455Y-32237D01*
X32455Y-32380D01*
X32432Y-32428D01*
X32408Y-32452D01*
X32455Y-31666D02*
X32455Y-31952D01*
X32455Y-31809D02*
X31955Y-31809D01*
X32027Y-31857D01*
X32074Y-31904D01*
X32098Y-31952D01*
X23226Y-38029D02*
X23226Y-37529D01*
X23345Y-37529D01*
X23417Y-37553D01*
X23464Y-37601D01*
X23488Y-37648D01*
X23512Y-37744D01*
X23512Y-37815D01*
X23488Y-37910D01*
X23464Y-37958D01*
X23417Y-38006D01*
X23345Y-38029D01*
X23226Y-38029D01*
X23702Y-37577D02*
X23726Y-37553D01*
X23774Y-37529D01*
X23893Y-37529D01*
X23940Y-37553D01*
X23964Y-37577D01*
X23988Y-37625D01*
X23988Y-37672D01*
X23964Y-37744D01*
X23678Y-38029D01*
X23988Y-38029D01*
X24154Y-37529D02*
X24464Y-37529D01*
X24297Y-37720D01*
X24369Y-37720D01*
X24416Y-37744D01*
X24440Y-37767D01*
X24464Y-37815D01*
X24464Y-37934D01*
X24440Y-37982D01*
X24416Y-38006D01*
X24369Y-38029D01*
X24226Y-38029D01*
X24178Y-38006D01*
X24154Y-37982D01*
X23226Y-39801D02*
X23226Y-39301D01*
X23345Y-39301D01*
X23417Y-39325D01*
X23464Y-39373D01*
X23488Y-39420D01*
X23512Y-39516D01*
X23512Y-39587D01*
X23488Y-39682D01*
X23464Y-39730D01*
X23417Y-39778D01*
X23345Y-39801D01*
X23226Y-39801D01*
X23702Y-39349D02*
X23726Y-39325D01*
X23774Y-39301D01*
X23893Y-39301D01*
X23940Y-39325D01*
X23964Y-39349D01*
X23988Y-39397D01*
X23988Y-39444D01*
X23964Y-39516D01*
X23678Y-39801D01*
X23988Y-39801D01*
X24464Y-39801D02*
X24178Y-39801D01*
X24321Y-39801D02*
X24321Y-39301D01*
X24273Y-39373D01*
X24226Y-39420D01*
X24178Y-39444D01*
X30289Y-39991D02*
X29789Y-39991D01*
X29789Y-39872D01*
X29813Y-39800D01*
X29861Y-39753D01*
X29908Y-39729D01*
X30004Y-39705D01*
X30075Y-39705D01*
X30170Y-39729D01*
X30218Y-39753D01*
X30266Y-39800D01*
X30289Y-39872D01*
X30289Y-39991D01*
X30289Y-39229D02*
X30289Y-39515D01*
X30289Y-39372D02*
X29789Y-39372D01*
X29861Y-39420D01*
X29908Y-39467D01*
X29932Y-39515D01*
X30289Y-38991D02*
X30289Y-38896D01*
X30266Y-38848D01*
X30242Y-38824D01*
X30170Y-38777D01*
X30075Y-38753D01*
X29885Y-38753D01*
X29837Y-38777D01*
X29813Y-38801D01*
X29789Y-38848D01*
X29789Y-38944D01*
X29813Y-38991D01*
X29837Y-39015D01*
X29885Y-39039D01*
X30004Y-39039D01*
X30051Y-39015D01*
X30075Y-38991D01*
X30099Y-38944D01*
X30099Y-38848D01*
X30075Y-38801D01*
X30051Y-38777D01*
X30004Y-38753D01*
X16941Y-30486D02*
X16941Y-29986D01*
X17060Y-29986D01*
X17132Y-30010D01*
X17179Y-30058D01*
X17203Y-30105D01*
X17227Y-30201D01*
X17227Y-30272D01*
X17203Y-30367D01*
X17179Y-30415D01*
X17132Y-30463D01*
X17060Y-30486D01*
X16941Y-30486D01*
X17465Y-30486D02*
X17560Y-30486D01*
X17608Y-30463D01*
X17632Y-30439D01*
X17679Y-30367D01*
X17703Y-30272D01*
X17703Y-30082D01*
X17679Y-30034D01*
X17655Y-30010D01*
X17608Y-29986D01*
X17512Y-29986D01*
X17465Y-30010D01*
X17441Y-30034D01*
X17417Y-30082D01*
X17417Y-30201D01*
X17441Y-30248D01*
X17465Y-30272D01*
X17512Y-30296D01*
X17608Y-30296D01*
X17655Y-30272D01*
X17679Y-30248D01*
X17703Y-30201D01*
X17687Y-31864D02*
X17687Y-31364D01*
X17806Y-31364D01*
X17878Y-31388D01*
X17925Y-31436D01*
X17949Y-31483D01*
X17973Y-31579D01*
X17973Y-31650D01*
X17949Y-31745D01*
X17925Y-31793D01*
X17878Y-31841D01*
X17806Y-31864D01*
X17687Y-31864D01*
X18449Y-31864D02*
X18163Y-31864D01*
X18306Y-31864D02*
X18306Y-31364D01*
X18258Y-31436D01*
X18211Y-31483D01*
X18163Y-31507D01*
X18925Y-31864D02*
X18639Y-31864D01*
X18782Y-31864D02*
X18782Y-31364D01*
X18734Y-31436D01*
X18687Y-31483D01*
X18639Y-31507D01*
X48596Y-31526D02*
X48096Y-31526D01*
X48096Y-31407D01*
X48120Y-31335D01*
X48168Y-31288D01*
X48215Y-31264D01*
X48311Y-31240D01*
X48382Y-31240D01*
X48477Y-31264D01*
X48525Y-31288D01*
X48573Y-31335D01*
X48596Y-31407D01*
X48596Y-31526D01*
X48596Y-30764D02*
X48596Y-31050D01*
X48596Y-30907D02*
X48096Y-30907D01*
X48168Y-30955D01*
X48215Y-31002D01*
X48239Y-31050D01*
X48096Y-30598D02*
X48096Y-30288D01*
X48287Y-30455D01*
X48287Y-30383D01*
X48311Y-30336D01*
X48334Y-30312D01*
X48382Y-30288D01*
X48501Y-30288D01*
X48549Y-30312D01*
X48573Y-30336D01*
X48596Y-30383D01*
X48596Y-30526D01*
X48573Y-30574D01*
X48549Y-30598D01*
X44722Y-32878D02*
X44222Y-32878D01*
X44222Y-32759D01*
X44246Y-32687D01*
X44294Y-32640D01*
X44341Y-32616D01*
X44437Y-32592D01*
X44508Y-32592D01*
X44603Y-32616D01*
X44651Y-32640D01*
X44699Y-32687D01*
X44722Y-32759D01*
X44722Y-32878D01*
X44722Y-32116D02*
X44722Y-32402D01*
X44722Y-32259D02*
X44222Y-32259D01*
X44294Y-32307D01*
X44341Y-32354D01*
X44365Y-32402D01*
X44222Y-31664D02*
X44222Y-31902D01*
X44460Y-31926D01*
X44437Y-31902D01*
X44413Y-31854D01*
X44413Y-31735D01*
X44437Y-31688D01*
X44460Y-31664D01*
X44508Y-31640D01*
X44627Y-31640D01*
X44675Y-31664D01*
X44699Y-31688D01*
X44722Y-31735D01*
X44722Y-31854D01*
X44699Y-31902D01*
X44675Y-31926D01*
X46211Y-33104D02*
X46234Y-33032D01*
X46234Y-32913D01*
X46211Y-32866D01*
X46187Y-32842D01*
X46139Y-32818D01*
X46092Y-32818D01*
X46044Y-32842D01*
X46020Y-32866D01*
X45996Y-32913D01*
X45972Y-33009D01*
X45949Y-33056D01*
X45925Y-33080D01*
X45877Y-33104D01*
X45830Y-33104D01*
X45782Y-33080D01*
X45758Y-33056D01*
X45734Y-33009D01*
X45734Y-32889D01*
X45758Y-32818D01*
X46234Y-32604D02*
X45734Y-32604D01*
X46234Y-32318D02*
X45949Y-32533D01*
X45734Y-32318D02*
X46020Y-32604D01*
X45734Y-32152D02*
X45734Y-31842D01*
X45925Y-32009D01*
X45925Y-31937D01*
X45949Y-31890D01*
X45972Y-31866D01*
X46020Y-31842D01*
X46139Y-31842D01*
X46187Y-31866D01*
X46211Y-31890D01*
X46234Y-31937D01*
X46234Y-32080D01*
X46211Y-32128D01*
X46187Y-32152D01*
X45901Y-31414D02*
X46234Y-31414D01*
X45711Y-31533D02*
X46068Y-31652D01*
X46068Y-31342D01*
X46092Y-31176D02*
X46092Y-30938D01*
X46234Y-31223D02*
X45734Y-31057D01*
X46234Y-30890D01*
X32061Y-39991D02*
X31561Y-39991D01*
X31561Y-39872D01*
X31585Y-39800D01*
X31633Y-39753D01*
X31680Y-39729D01*
X31776Y-39705D01*
X31847Y-39705D01*
X31942Y-39729D01*
X31990Y-39753D01*
X32038Y-39800D01*
X32061Y-39872D01*
X32061Y-39991D01*
X32061Y-39229D02*
X32061Y-39515D01*
X32061Y-39372D02*
X31561Y-39372D01*
X31633Y-39420D01*
X31680Y-39467D01*
X31704Y-39515D01*
X31561Y-39063D02*
X31561Y-38729D01*
X32061Y-38944D01*
X24022Y-26143D02*
X24003Y-26162D01*
X23946Y-26181D01*
X23908Y-26181D01*
X23850Y-26162D01*
X23812Y-26124D01*
X23793Y-26086D01*
X23774Y-26009D01*
X23774Y-25952D01*
X23793Y-25876D01*
X23812Y-25838D01*
X23850Y-25800D01*
X23908Y-25781D01*
X23946Y-25781D01*
X24003Y-25800D01*
X24022Y-25819D01*
X24174Y-25819D02*
X24193Y-25800D01*
X24231Y-25781D01*
X24327Y-25781D01*
X24365Y-25800D01*
X24384Y-25819D01*
X24403Y-25857D01*
X24403Y-25895D01*
X24384Y-25952D01*
X24155Y-26181D01*
X24403Y-26181D01*
X23652Y-27850D02*
X23652Y-28064D01*
X23576Y-27728D02*
X23500Y-27957D01*
X23698Y-27957D01*
X23973Y-27744D02*
X23820Y-27744D01*
X23805Y-27896D01*
X23820Y-27881D01*
X23851Y-27865D01*
X23927Y-27865D01*
X23957Y-27881D01*
X23973Y-27896D01*
X23988Y-27926D01*
X23988Y-28003D01*
X23973Y-28033D01*
X23957Y-28048D01*
X23927Y-28064D01*
X23851Y-28064D01*
X23820Y-28048D01*
X23805Y-28033D01*
X24125Y-27850D02*
X24125Y-28170D01*
X24278Y-28018D02*
X24293Y-28048D01*
X24323Y-28064D01*
X24125Y-28018D02*
X24140Y-28048D01*
X24171Y-28064D01*
X24232Y-28064D01*
X24262Y-28048D01*
X24278Y-28018D01*
X24278Y-27850D01*
X24567Y-27896D02*
X24460Y-27896D01*
X24460Y-28064D02*
X24460Y-27744D01*
X24613Y-27744D01*
X42186Y-32964D02*
X42167Y-32983D01*
X42110Y-33002D01*
X42072Y-33002D01*
X42014Y-32983D01*
X41976Y-32945D01*
X41957Y-32907D01*
X41938Y-32830D01*
X41938Y-32773D01*
X41957Y-32697D01*
X41976Y-32659D01*
X42014Y-32621D01*
X42072Y-32602D01*
X42110Y-32602D01*
X42167Y-32621D01*
X42186Y-32640D01*
X42529Y-32735D02*
X42529Y-33002D01*
X42433Y-32583D02*
X42338Y-32869D01*
X42586Y-32869D01*
X41896Y-30841D02*
X41896Y-31055D01*
X41820Y-30719D02*
X41744Y-30948D01*
X41942Y-30948D01*
X42217Y-30735D02*
X42064Y-30735D01*
X42049Y-30887D01*
X42064Y-30872D01*
X42095Y-30856D01*
X42171Y-30856D01*
X42201Y-30872D01*
X42217Y-30887D01*
X42232Y-30917D01*
X42232Y-30994D01*
X42217Y-31024D01*
X42201Y-31039D01*
X42171Y-31055D01*
X42095Y-31055D01*
X42064Y-31039D01*
X42049Y-31024D01*
X42369Y-30841D02*
X42369Y-31161D01*
X42522Y-31009D02*
X42537Y-31039D01*
X42567Y-31055D01*
X42369Y-31009D02*
X42384Y-31039D01*
X42415Y-31055D01*
X42476Y-31055D01*
X42506Y-31039D01*
X42522Y-31009D01*
X42522Y-30841D01*
X42811Y-30887D02*
X42704Y-30887D01*
X42704Y-31055D02*
X42704Y-30735D01*
X42857Y-30735D01*
X28111Y-24798D02*
X28130Y-24817D01*
X28149Y-24874D01*
X28149Y-24912D01*
X28130Y-24970D01*
X28092Y-25008D01*
X28054Y-25027D01*
X27977Y-25046D01*
X27920Y-25046D01*
X27844Y-25027D01*
X27806Y-25008D01*
X27768Y-24970D01*
X27749Y-24912D01*
X27749Y-24874D01*
X27768Y-24817D01*
X27787Y-24798D01*
X27749Y-24665D02*
X27749Y-24417D01*
X27901Y-24551D01*
X27901Y-24493D01*
X27920Y-24455D01*
X27939Y-24436D01*
X27977Y-24417D01*
X28073Y-24417D01*
X28111Y-24436D01*
X28130Y-24455D01*
X28149Y-24493D01*
X28149Y-24608D01*
X28130Y-24646D01*
X28111Y-24665D01*
X29818Y-25168D02*
X30032Y-25168D01*
X29696Y-25244D02*
X29925Y-25320D01*
X29925Y-25122D01*
X29712Y-24847D02*
X29712Y-25000D01*
X29864Y-25015D01*
X29849Y-25000D01*
X29833Y-24969D01*
X29833Y-24893D01*
X29849Y-24863D01*
X29864Y-24847D01*
X29894Y-24832D01*
X29971Y-24832D01*
X30001Y-24847D01*
X30016Y-24863D01*
X30032Y-24893D01*
X30032Y-24969D01*
X30016Y-25000D01*
X30001Y-25015D01*
X29818Y-24695D02*
X30138Y-24695D01*
X29986Y-24542D02*
X30016Y-24527D01*
X30032Y-24497D01*
X29986Y-24695D02*
X30016Y-24680D01*
X30032Y-24649D01*
X30032Y-24588D01*
X30016Y-24558D01*
X29986Y-24542D01*
X29818Y-24542D01*
X29864Y-24253D02*
X29864Y-24360D01*
X30032Y-24360D02*
X29712Y-24360D01*
X29712Y-24207D01*
X20926Y-17019D02*
X20907Y-17038D01*
X20850Y-17057D01*
X20812Y-17057D01*
X20754Y-17038D01*
X20716Y-17000D01*
X20697Y-16962D01*
X20678Y-16885D01*
X20678Y-16828D01*
X20697Y-16752D01*
X20716Y-16714D01*
X20754Y-16676D01*
X20812Y-16657D01*
X20850Y-16657D01*
X20907Y-16676D01*
X20926Y-16695D01*
X21307Y-17057D02*
X21078Y-17057D01*
X21192Y-17057D02*
X21192Y-16657D01*
X21154Y-16714D01*
X21116Y-16752D01*
X21078Y-16771D01*
X20636Y-14896D02*
X20636Y-15110D01*
X20560Y-14774D02*
X20484Y-15003D01*
X20682Y-15003D01*
X20957Y-14790D02*
X20804Y-14790D01*
X20789Y-14942D01*
X20804Y-14927D01*
X20835Y-14911D01*
X20911Y-14911D01*
X20941Y-14927D01*
X20957Y-14942D01*
X20972Y-14972D01*
X20972Y-15049D01*
X20957Y-15079D01*
X20941Y-15094D01*
X20911Y-15110D01*
X20835Y-15110D01*
X20804Y-15094D01*
X20789Y-15079D01*
X21109Y-14896D02*
X21109Y-15216D01*
X21262Y-15064D02*
X21277Y-15094D01*
X21307Y-15110D01*
X21109Y-15064D02*
X21124Y-15094D01*
X21155Y-15110D01*
X21216Y-15110D01*
X21246Y-15094D01*
X21262Y-15064D01*
X21262Y-14896D01*
X21551Y-14942D02*
X21444Y-14942D01*
X21444Y-15110D02*
X21444Y-14790D01*
X21597Y-14790D01*
X36948Y-35558D02*
X36929Y-35577D01*
X36872Y-35596D01*
X36834Y-35596D01*
X36776Y-35577D01*
X36738Y-35539D01*
X36719Y-35501D01*
X36700Y-35424D01*
X36700Y-35367D01*
X36719Y-35291D01*
X36738Y-35253D01*
X36776Y-35215D01*
X36834Y-35196D01*
X36872Y-35196D01*
X36929Y-35215D01*
X36948Y-35234D01*
X37329Y-35596D02*
X37100Y-35596D01*
X37214Y-35596D02*
X37214Y-35196D01*
X37176Y-35253D01*
X37138Y-35291D01*
X37100Y-35310D01*
X37691Y-35196D02*
X37500Y-35196D01*
X37481Y-35386D01*
X37500Y-35367D01*
X37538Y-35348D01*
X37634Y-35348D01*
X37672Y-35367D01*
X37691Y-35386D01*
X37710Y-35424D01*
X37710Y-35520D01*
X37691Y-35558D01*
X37672Y-35577D01*
X37634Y-35596D01*
X37538Y-35596D01*
X37500Y-35577D01*
X37481Y-35558D01*
G54D11*
X42732Y-37146D02*
X42132Y-37146D01*
X42132Y-36918D01*
X42160Y-36860D01*
X42189Y-36832D01*
X42246Y-36803D01*
X42332Y-36803D01*
X42389Y-36832D01*
X42418Y-36860D01*
X42446Y-36918D01*
X42446Y-37146D01*
X42732Y-36232D02*
X42732Y-36575D01*
X42732Y-36403D02*
X42132Y-36403D01*
X42218Y-36460D01*
X42275Y-36518D01*
X42303Y-36575D01*
X42189Y-36004D02*
X42160Y-35975D01*
X42132Y-35918D01*
X42132Y-35775D01*
X42160Y-35718D01*
X42189Y-35689D01*
X42246Y-35661D01*
X42303Y-35661D01*
X42389Y-35689D01*
X42732Y-36032D01*
X42732Y-35661D01*
G54D23*
X46031Y-20847D02*
X45531Y-20847D01*
X45531Y-20728D01*
X45555Y-20656D01*
X45603Y-20609D01*
X45650Y-20585D01*
X45746Y-20561D01*
X45817Y-20561D01*
X45912Y-20585D01*
X45960Y-20609D01*
X46008Y-20656D01*
X46031Y-20728D01*
X46031Y-20847D01*
X45531Y-20395D02*
X45531Y-20085D01*
X45722Y-20252D01*
X45722Y-20180D01*
X45746Y-20133D01*
X45769Y-20109D01*
X45817Y-20085D01*
X45936Y-20085D01*
X45984Y-20109D01*
X46008Y-20133D01*
X46031Y-20180D01*
X46031Y-20323D01*
X46008Y-20371D01*
X45984Y-20395D01*
X45531Y-19919D02*
X45531Y-19609D01*
X45722Y-19776D01*
X45722Y-19704D01*
X45746Y-19657D01*
X45769Y-19633D01*
X45817Y-19609D01*
X45936Y-19609D01*
X45984Y-19633D01*
X46008Y-19657D01*
X46031Y-19704D01*
X46031Y-19847D01*
X46008Y-19895D01*
X45984Y-19919D01*
X46032Y-18877D02*
X45532Y-18877D01*
X45532Y-18758D01*
X45556Y-18686D01*
X45604Y-18639D01*
X45651Y-18615D01*
X45747Y-18591D01*
X45818Y-18591D01*
X45913Y-18615D01*
X45961Y-18639D01*
X46009Y-18686D01*
X46032Y-18758D01*
X46032Y-18877D01*
X45532Y-18425D02*
X45532Y-18115D01*
X45723Y-18282D01*
X45723Y-18210D01*
X45747Y-18163D01*
X45770Y-18139D01*
X45818Y-18115D01*
X45937Y-18115D01*
X45985Y-18139D01*
X46009Y-18163D01*
X46032Y-18210D01*
X46032Y-18353D01*
X46009Y-18401D01*
X45985Y-18425D01*
X45699Y-17687D02*
X46032Y-17687D01*
X45509Y-17806D02*
X45866Y-17925D01*
X45866Y-17615D01*
X47213Y-20846D02*
X46713Y-20846D01*
X46713Y-20727D01*
X46737Y-20655D01*
X46785Y-20608D01*
X46832Y-20584D01*
X46928Y-20560D01*
X46999Y-20560D01*
X47094Y-20584D01*
X47142Y-20608D01*
X47190Y-20655D01*
X47213Y-20727D01*
X47213Y-20846D01*
X46713Y-20394D02*
X46713Y-20084D01*
X46904Y-20251D01*
X46904Y-20179D01*
X46928Y-20132D01*
X46951Y-20108D01*
X46999Y-20084D01*
X47118Y-20084D01*
X47166Y-20108D01*
X47190Y-20132D01*
X47213Y-20179D01*
X47213Y-20322D01*
X47190Y-20370D01*
X47166Y-20394D01*
X46713Y-19632D02*
X46713Y-19870D01*
X46951Y-19894D01*
X46928Y-19870D01*
X46904Y-19822D01*
X46904Y-19703D01*
X46928Y-19656D01*
X46951Y-19632D01*
X46999Y-19608D01*
X47118Y-19608D01*
X47166Y-19632D01*
X47190Y-19656D01*
X47213Y-19703D01*
X47213Y-19822D01*
X47190Y-19870D01*
X47166Y-19894D01*
X47213Y-18877D02*
X46713Y-18877D01*
X46713Y-18758D01*
X46737Y-18686D01*
X46785Y-18639D01*
X46832Y-18615D01*
X46928Y-18591D01*
X46999Y-18591D01*
X47094Y-18615D01*
X47142Y-18639D01*
X47190Y-18686D01*
X47213Y-18758D01*
X47213Y-18877D01*
X46713Y-18425D02*
X46713Y-18115D01*
X46904Y-18282D01*
X46904Y-18210D01*
X46928Y-18163D01*
X46951Y-18139D01*
X46999Y-18115D01*
X47118Y-18115D01*
X47166Y-18139D01*
X47190Y-18163D01*
X47213Y-18210D01*
X47213Y-18353D01*
X47190Y-18401D01*
X47166Y-18425D01*
X46713Y-17687D02*
X46713Y-17782D01*
X46737Y-17830D01*
X46761Y-17853D01*
X46832Y-17901D01*
X46928Y-17925D01*
X47118Y-17925D01*
X47166Y-17901D01*
X47190Y-17877D01*
X47213Y-17830D01*
X47213Y-17734D01*
X47190Y-17687D01*
X47166Y-17663D01*
X47118Y-17639D01*
X46999Y-17639D01*
X46951Y-17663D01*
X46928Y-17687D01*
X46904Y-17734D01*
X46904Y-17830D01*
X46928Y-17877D01*
X46951Y-17901D01*
X46999Y-17925D01*
X48395Y-20846D02*
X47895Y-20846D01*
X47895Y-20727D01*
X47919Y-20655D01*
X47967Y-20608D01*
X48014Y-20584D01*
X48110Y-20560D01*
X48181Y-20560D01*
X48276Y-20584D01*
X48324Y-20608D01*
X48372Y-20655D01*
X48395Y-20727D01*
X48395Y-20846D01*
X47895Y-20394D02*
X47895Y-20084D01*
X48086Y-20251D01*
X48086Y-20179D01*
X48110Y-20132D01*
X48133Y-20108D01*
X48181Y-20084D01*
X48300Y-20084D01*
X48348Y-20108D01*
X48372Y-20132D01*
X48395Y-20179D01*
X48395Y-20322D01*
X48372Y-20370D01*
X48348Y-20394D01*
X47895Y-19918D02*
X47895Y-19584D01*
X48395Y-19799D01*
X48395Y-18877D02*
X47895Y-18877D01*
X47895Y-18758D01*
X47919Y-18686D01*
X47967Y-18639D01*
X48014Y-18615D01*
X48110Y-18591D01*
X48181Y-18591D01*
X48276Y-18615D01*
X48324Y-18639D01*
X48372Y-18686D01*
X48395Y-18758D01*
X48395Y-18877D01*
X47895Y-18425D02*
X47895Y-18115D01*
X48086Y-18282D01*
X48086Y-18210D01*
X48110Y-18163D01*
X48133Y-18139D01*
X48181Y-18115D01*
X48300Y-18115D01*
X48348Y-18139D01*
X48372Y-18163D01*
X48395Y-18210D01*
X48395Y-18353D01*
X48372Y-18401D01*
X48348Y-18425D01*
X48110Y-17830D02*
X48086Y-17877D01*
X48062Y-17901D01*
X48014Y-17925D01*
X47991Y-17925D01*
X47943Y-17901D01*
X47919Y-17877D01*
X47895Y-17830D01*
X47895Y-17734D01*
X47919Y-17687D01*
X47943Y-17663D01*
X47991Y-17639D01*
X48014Y-17639D01*
X48062Y-17663D01*
X48086Y-17687D01*
X48110Y-17734D01*
X48110Y-17830D01*
X48133Y-17877D01*
X48157Y-17901D01*
X48205Y-17925D01*
X48300Y-17925D01*
X48348Y-17901D01*
X48372Y-17877D01*
X48395Y-17830D01*
X48395Y-17734D01*
X48372Y-17687D01*
X48348Y-17663D01*
X48300Y-17639D01*
X48205Y-17639D01*
X48157Y-17663D01*
X48133Y-17687D01*
X48110Y-17734D01*
X49575Y-20846D02*
X49075Y-20846D01*
X49075Y-20727D01*
X49099Y-20655D01*
X49147Y-20608D01*
X49194Y-20584D01*
X49290Y-20560D01*
X49361Y-20560D01*
X49456Y-20584D01*
X49504Y-20608D01*
X49552Y-20655D01*
X49575Y-20727D01*
X49575Y-20846D01*
X49075Y-20394D02*
X49075Y-20084D01*
X49266Y-20251D01*
X49266Y-20179D01*
X49290Y-20132D01*
X49313Y-20108D01*
X49361Y-20084D01*
X49480Y-20084D01*
X49528Y-20108D01*
X49552Y-20132D01*
X49575Y-20179D01*
X49575Y-20322D01*
X49552Y-20370D01*
X49528Y-20394D01*
X49575Y-19846D02*
X49575Y-19751D01*
X49552Y-19703D01*
X49528Y-19679D01*
X49456Y-19632D01*
X49361Y-19608D01*
X49171Y-19608D01*
X49123Y-19632D01*
X49099Y-19656D01*
X49075Y-19703D01*
X49075Y-19799D01*
X49099Y-19846D01*
X49123Y-19870D01*
X49171Y-19894D01*
X49290Y-19894D01*
X49337Y-19870D01*
X49361Y-19846D01*
X49385Y-19799D01*
X49385Y-19703D01*
X49361Y-19656D01*
X49337Y-19632D01*
X49290Y-19608D01*
X49575Y-18877D02*
X49075Y-18877D01*
X49075Y-18758D01*
X49099Y-18686D01*
X49147Y-18639D01*
X49194Y-18615D01*
X49290Y-18591D01*
X49361Y-18591D01*
X49456Y-18615D01*
X49504Y-18639D01*
X49552Y-18686D01*
X49575Y-18758D01*
X49575Y-18877D01*
X49242Y-18163D02*
X49575Y-18163D01*
X49052Y-18282D02*
X49409Y-18401D01*
X49409Y-18091D01*
X49075Y-17806D02*
X49075Y-17758D01*
X49099Y-17710D01*
X49123Y-17687D01*
X49171Y-17663D01*
X49266Y-17639D01*
X49385Y-17639D01*
X49480Y-17663D01*
X49528Y-17687D01*
X49552Y-17710D01*
X49575Y-17758D01*
X49575Y-17806D01*
X49552Y-17853D01*
X49528Y-17877D01*
X49480Y-17901D01*
X49385Y-17925D01*
X49266Y-17925D01*
X49171Y-17901D01*
X49123Y-17877D01*
X49099Y-17853D01*
X49075Y-17806D01*
X50756Y-20846D02*
X50256Y-20846D01*
X50256Y-20727D01*
X50280Y-20655D01*
X50328Y-20608D01*
X50375Y-20584D01*
X50471Y-20560D01*
X50542Y-20560D01*
X50637Y-20584D01*
X50685Y-20608D01*
X50733Y-20655D01*
X50756Y-20727D01*
X50756Y-20846D01*
X50423Y-20132D02*
X50756Y-20132D01*
X50233Y-20251D02*
X50590Y-20370D01*
X50590Y-20060D01*
X50756Y-19608D02*
X50756Y-19894D01*
X50756Y-19751D02*
X50256Y-19751D01*
X50328Y-19799D01*
X50375Y-19846D01*
X50399Y-19894D01*
X50756Y-18877D02*
X50256Y-18877D01*
X50256Y-18758D01*
X50280Y-18686D01*
X50328Y-18639D01*
X50375Y-18615D01*
X50471Y-18591D01*
X50542Y-18591D01*
X50637Y-18615D01*
X50685Y-18639D01*
X50733Y-18686D01*
X50756Y-18758D01*
X50756Y-18877D01*
X50423Y-18163D02*
X50756Y-18163D01*
X50233Y-18282D02*
X50590Y-18401D01*
X50590Y-18091D01*
X50304Y-17925D02*
X50280Y-17901D01*
X50256Y-17853D01*
X50256Y-17734D01*
X50280Y-17687D01*
X50304Y-17663D01*
X50352Y-17639D01*
X50399Y-17639D01*
X50471Y-17663D01*
X50756Y-17949D01*
X50756Y-17639D01*
X51937Y-20846D02*
X51437Y-20846D01*
X51437Y-20727D01*
X51461Y-20655D01*
X51509Y-20608D01*
X51556Y-20584D01*
X51652Y-20560D01*
X51723Y-20560D01*
X51818Y-20584D01*
X51866Y-20608D01*
X51914Y-20655D01*
X51937Y-20727D01*
X51937Y-20846D01*
X51604Y-20132D02*
X51937Y-20132D01*
X51414Y-20251D02*
X51771Y-20370D01*
X51771Y-20060D01*
X51437Y-19918D02*
X51437Y-19608D01*
X51628Y-19775D01*
X51628Y-19703D01*
X51652Y-19656D01*
X51675Y-19632D01*
X51723Y-19608D01*
X51842Y-19608D01*
X51890Y-19632D01*
X51914Y-19656D01*
X51937Y-19703D01*
X51937Y-19846D01*
X51914Y-19894D01*
X51890Y-19918D01*
X51937Y-18877D02*
X51437Y-18877D01*
X51437Y-18758D01*
X51461Y-18686D01*
X51509Y-18639D01*
X51556Y-18615D01*
X51652Y-18591D01*
X51723Y-18591D01*
X51818Y-18615D01*
X51866Y-18639D01*
X51914Y-18686D01*
X51937Y-18758D01*
X51937Y-18877D01*
X51604Y-18163D02*
X51937Y-18163D01*
X51414Y-18282D02*
X51771Y-18401D01*
X51771Y-18091D01*
X51604Y-17687D02*
X51937Y-17687D01*
X51414Y-17806D02*
X51771Y-17925D01*
X51771Y-17615D01*
X53118Y-20846D02*
X52618Y-20846D01*
X52618Y-20727D01*
X52642Y-20655D01*
X52690Y-20608D01*
X52737Y-20584D01*
X52833Y-20560D01*
X52904Y-20560D01*
X52999Y-20584D01*
X53047Y-20608D01*
X53095Y-20655D01*
X53118Y-20727D01*
X53118Y-20846D01*
X52785Y-20132D02*
X53118Y-20132D01*
X52595Y-20251D02*
X52952Y-20370D01*
X52952Y-20060D01*
X52618Y-19632D02*
X52618Y-19870D01*
X52856Y-19894D01*
X52833Y-19870D01*
X52809Y-19822D01*
X52809Y-19703D01*
X52833Y-19656D01*
X52856Y-19632D01*
X52904Y-19608D01*
X53023Y-19608D01*
X53071Y-19632D01*
X53095Y-19656D01*
X53118Y-19703D01*
X53118Y-19822D01*
X53095Y-19870D01*
X53071Y-19894D01*
X53118Y-18877D02*
X52618Y-18877D01*
X52618Y-18758D01*
X52642Y-18686D01*
X52690Y-18639D01*
X52737Y-18615D01*
X52833Y-18591D01*
X52904Y-18591D01*
X52999Y-18615D01*
X53047Y-18639D01*
X53095Y-18686D01*
X53118Y-18758D01*
X53118Y-18877D01*
X52785Y-18163D02*
X53118Y-18163D01*
X52595Y-18282D02*
X52952Y-18401D01*
X52952Y-18091D01*
X52618Y-17687D02*
X52618Y-17782D01*
X52642Y-17830D01*
X52666Y-17853D01*
X52737Y-17901D01*
X52833Y-17925D01*
X53023Y-17925D01*
X53071Y-17901D01*
X53095Y-17877D01*
X53118Y-17830D01*
X53118Y-17734D01*
X53095Y-17687D01*
X53071Y-17663D01*
X53023Y-17639D01*
X52904Y-17639D01*
X52856Y-17663D01*
X52833Y-17687D01*
X52809Y-17734D01*
X52809Y-17830D01*
X52833Y-17877D01*
X52856Y-17901D01*
X52904Y-17925D01*
X54300Y-20846D02*
X53800Y-20846D01*
X53800Y-20727D01*
X53824Y-20655D01*
X53872Y-20608D01*
X53919Y-20584D01*
X54015Y-20560D01*
X54086Y-20560D01*
X54181Y-20584D01*
X54229Y-20608D01*
X54277Y-20655D01*
X54300Y-20727D01*
X54300Y-20846D01*
X53967Y-20132D02*
X54300Y-20132D01*
X53777Y-20251D02*
X54134Y-20370D01*
X54134Y-20060D01*
X53800Y-19918D02*
X53800Y-19584D01*
X54300Y-19799D01*
X54300Y-18877D02*
X53800Y-18877D01*
X53800Y-18758D01*
X53824Y-18686D01*
X53872Y-18639D01*
X53919Y-18615D01*
X54015Y-18591D01*
X54086Y-18591D01*
X54181Y-18615D01*
X54229Y-18639D01*
X54277Y-18686D01*
X54300Y-18758D01*
X54300Y-18877D01*
X53967Y-18163D02*
X54300Y-18163D01*
X53777Y-18282D02*
X54134Y-18401D01*
X54134Y-18091D01*
X54015Y-17830D02*
X53991Y-17877D01*
X53967Y-17901D01*
X53919Y-17925D01*
X53896Y-17925D01*
X53848Y-17901D01*
X53824Y-17877D01*
X53800Y-17830D01*
X53800Y-17734D01*
X53824Y-17687D01*
X53848Y-17663D01*
X53896Y-17639D01*
X53919Y-17639D01*
X53967Y-17663D01*
X53991Y-17687D01*
X54015Y-17734D01*
X54015Y-17830D01*
X54038Y-17877D01*
X54062Y-17901D01*
X54110Y-17925D01*
X54205Y-17925D01*
X54253Y-17901D01*
X54277Y-17877D01*
X54300Y-17830D01*
X54300Y-17734D01*
X54277Y-17687D01*
X54253Y-17663D01*
X54205Y-17639D01*
X54110Y-17639D01*
X54062Y-17663D01*
X54038Y-17687D01*
X54015Y-17734D01*
X19411Y-34165D02*
X19805Y-33857D01*
X19922Y-34007D01*
X19932Y-34059D01*
X19928Y-34093D01*
X19905Y-34141D01*
X19849Y-34185D01*
X19797Y-34196D01*
X19764Y-34191D01*
X19716Y-34169D01*
X19598Y-34018D01*
X19987Y-34439D02*
X19977Y-34387D01*
X19981Y-34354D01*
X20004Y-34305D01*
X20022Y-34291D01*
X20075Y-34280D01*
X20108Y-34284D01*
X20156Y-34307D01*
X20215Y-34382D01*
X20225Y-34434D01*
X20221Y-34468D01*
X20198Y-34516D01*
X20180Y-34530D01*
X20127Y-34541D01*
X20094Y-34537D01*
X20046Y-34515D01*
X19987Y-34439D01*
X19940Y-34416D01*
X19906Y-34412D01*
X19853Y-34423D01*
X19779Y-34481D01*
X19756Y-34530D01*
X19751Y-34563D01*
X19762Y-34615D01*
X19821Y-34690D01*
X19868Y-34713D01*
X19902Y-34717D01*
X19955Y-34707D01*
X20029Y-34648D01*
X20053Y-34600D01*
X20057Y-34566D01*
X20046Y-34515D01*
X48768Y-37381D02*
X48296Y-37218D01*
X48358Y-37037D01*
X48396Y-37001D01*
X48426Y-36986D01*
X48479Y-36979D01*
X48547Y-37002D01*
X48584Y-37040D01*
X48598Y-37070D01*
X48606Y-37123D01*
X48543Y-37303D01*
X49016Y-36660D02*
X48923Y-36931D01*
X48970Y-36795D02*
X48497Y-36633D01*
X48550Y-36701D01*
X48579Y-36761D01*
X48586Y-36814D01*
X48644Y-36205D02*
X48660Y-36160D01*
X48698Y-36122D01*
X48728Y-36108D01*
X48782Y-36101D01*
X48879Y-36110D01*
X48992Y-36148D01*
X49074Y-36202D01*
X49111Y-36240D01*
X49127Y-36270D01*
X49133Y-36323D01*
X49117Y-36368D01*
X49080Y-36405D01*
X49050Y-36420D01*
X48996Y-36427D01*
X48899Y-36419D01*
X48786Y-36380D01*
X48704Y-36326D01*
X48667Y-36288D01*
X48652Y-36258D01*
X48644Y-36205D01*
G54D14*
X41289Y-36691D02*
X41189Y-36549D01*
X41117Y-36691D02*
X41117Y-36391D01*
X41232Y-36391D01*
X41260Y-36406D01*
X41275Y-36420D01*
X41289Y-36449D01*
X41289Y-36491D01*
X41275Y-36520D01*
X41260Y-36534D01*
X41232Y-36549D01*
X41117Y-36549D01*
X41575Y-36691D02*
X41403Y-36691D01*
X41489Y-36691D02*
X41489Y-36391D01*
X41460Y-36434D01*
X41432Y-36463D01*
X41403Y-36477D01*
X40989Y-36092D02*
X40817Y-36092D01*
X40903Y-36092D02*
X40903Y-35792D01*
X40874Y-35835D01*
X40846Y-35864D01*
X40817Y-35878D01*
X41175Y-35792D02*
X41203Y-35792D01*
X41232Y-35807D01*
X41246Y-35821D01*
X41260Y-35850D01*
X41275Y-35907D01*
X41275Y-35978D01*
X41260Y-36035D01*
X41246Y-36064D01*
X41232Y-36078D01*
X41203Y-36092D01*
X41175Y-36092D01*
X41146Y-36078D01*
X41132Y-36064D01*
X41117Y-36035D01*
X41103Y-35978D01*
X41103Y-35907D01*
X41117Y-35850D01*
X41132Y-35821D01*
X41146Y-35807D01*
X41175Y-35792D01*
X41403Y-36092D02*
X41403Y-35792D01*
X41432Y-35978D02*
X41518Y-36092D01*
X41518Y-35892D02*
X41403Y-36007D01*
X41632Y-36092D02*
X41704Y-36092D01*
X41704Y-36035D01*
X41675Y-36021D01*
X41646Y-35992D01*
X41632Y-35950D01*
X41632Y-35878D01*
X41646Y-35835D01*
X41675Y-35807D01*
X41718Y-35792D01*
X41775Y-35792D01*
X41818Y-35807D01*
X41846Y-35835D01*
X41861Y-35878D01*
X41861Y-35950D01*
X41846Y-35992D01*
X41818Y-36021D01*
X41789Y-36035D01*
X41789Y-36092D01*
X41861Y-36092D01*
%LPC*%
G54D24*
X51378Y-25000D03*
X19489Y-25000D03*
X35237Y-42126D03*
G54D25*
X38227Y-35171D03*
X38227Y-37271D03*
X38727Y-35171D03*
X39227Y-35171D03*
X39727Y-35171D03*
X38727Y-37271D03*
X39227Y-37271D03*
X39727Y-37271D03*
G54D26*
X37383Y-37205D03*
X36633Y-37205D03*
G54D27*
X53348Y-15374D03*
X53348Y-16124D03*
X53348Y-21635D03*
X53348Y-20885D03*
X52166Y-15374D03*
X52166Y-16124D03*
X52166Y-21635D03*
X52166Y-20885D03*
X50985Y-15374D03*
X50985Y-16124D03*
X50985Y-21635D03*
X50985Y-20885D03*
X49804Y-15374D03*
X49804Y-16124D03*
X49804Y-21635D03*
X49804Y-20885D03*
X48623Y-15374D03*
X48623Y-16124D03*
X48623Y-21635D03*
X48623Y-20885D03*
X47443Y-15374D03*
X47443Y-16124D03*
X47443Y-21635D03*
X47443Y-20885D03*
X46261Y-15374D03*
X46261Y-16124D03*
X46261Y-21635D03*
X46261Y-20885D03*
X45080Y-15374D03*
X45080Y-16124D03*
X45080Y-21635D03*
X45080Y-20885D03*
G54D28*
X22638Y-23119D03*
G54D29*
X19942Y-17829D03*
X19942Y-18329D03*
X19942Y-18829D03*
X19942Y-19329D03*
X19942Y-19829D03*
X19942Y-20329D03*
X19942Y-20829D03*
X19942Y-21329D03*
X19942Y-21829D03*
X19942Y-22329D03*
X25334Y-22329D03*
X25334Y-21829D03*
X25334Y-21329D03*
X25334Y-20829D03*
X25334Y-20329D03*
X25334Y-19829D03*
X25334Y-19329D03*
X25334Y-18829D03*
X25334Y-18329D03*
X25334Y-17829D03*
G54D30*
X22628Y-20089D03*
G54D28*
X22638Y-17059D03*
X24213Y-34143D03*
G54D29*
X21517Y-28853D03*
X21517Y-29353D03*
X21517Y-29853D03*
X21517Y-30353D03*
X21517Y-30853D03*
X21517Y-31353D03*
X21517Y-31853D03*
X21517Y-32353D03*
X21517Y-32853D03*
X21517Y-33353D03*
X26909Y-33353D03*
X26909Y-32853D03*
X26909Y-32353D03*
X26909Y-31853D03*
X26909Y-31353D03*
X26909Y-30853D03*
X26909Y-30353D03*
X26909Y-29853D03*
X26909Y-29353D03*
X26909Y-28853D03*
G54D30*
X24203Y-31113D03*
G54D28*
X24213Y-28083D03*
G54D31*
X30228Y-26182D03*
G54D32*
X35518Y-23486D03*
X35018Y-23486D03*
X34518Y-23486D03*
X34018Y-23486D03*
X33518Y-23486D03*
X33018Y-23486D03*
X32518Y-23486D03*
X32018Y-23486D03*
X31518Y-23486D03*
X31018Y-23486D03*
X31018Y-28878D03*
X31518Y-28878D03*
X32018Y-28878D03*
X32518Y-28878D03*
X33018Y-28878D03*
X33518Y-28878D03*
X34018Y-28878D03*
X34518Y-28878D03*
X35018Y-28878D03*
X35518Y-28878D03*
G54D33*
X33258Y-26172D03*
G54D31*
X36288Y-26182D03*
G54D28*
X41930Y-30796D03*
G54D29*
X39234Y-25506D03*
X39234Y-26006D03*
X39234Y-26506D03*
X39234Y-27006D03*
X39234Y-27506D03*
X39234Y-28006D03*
X39234Y-28506D03*
X39234Y-29006D03*
X39234Y-29506D03*
X39234Y-30006D03*
X44626Y-30006D03*
X44626Y-29506D03*
X44626Y-29006D03*
X44626Y-28506D03*
X44626Y-28006D03*
X44626Y-27506D03*
X44626Y-27006D03*
X44626Y-26506D03*
X44626Y-26006D03*
X44626Y-25506D03*
G54D30*
X41920Y-27766D03*
G54D28*
X41930Y-24736D03*
G54D34*
X36614Y-39567D03*
G54D35*
X35827Y-39567D03*
X35039Y-39567D03*
X34253Y-39567D03*
X33465Y-39567D03*
X32678Y-39567D03*
G54D34*
X30118Y-42323D03*
G54D35*
X29330Y-42323D03*
X28544Y-42323D03*
X27756Y-42323D03*
G54D10*
G36*
X51001Y-27885D02*
X50320Y-27650D01*
X50555Y-26969D01*
X51236Y-27204D01*
X51001Y-27885D01*
X51001Y-27885D01*
G37*
G54D35*
X50522Y-28172D03*
X50266Y-28916D03*
X50010Y-29661D03*
G54D34*
X14961Y-25984D03*
G54D35*
X14961Y-26772D03*
X14961Y-27558D03*
X14961Y-28346D03*
G54D34*
X41142Y-42323D03*
G54D35*
X40354Y-42323D03*
X39568Y-42323D03*
X38780Y-42323D03*
G54D34*
X33071Y-42323D03*
G54D35*
X32284Y-42323D03*
G54D34*
X24804Y-42126D03*
G54D35*
X25591Y-42126D03*
G54D34*
X44095Y-42323D03*
G54D35*
X43308Y-42323D03*
G54D36*
X42237Y-20973D03*
X42237Y-19973D03*
X41237Y-19973D03*
X41237Y-20973D03*
G54D37*
X28237Y-20973D03*
G54D36*
X28237Y-19973D03*
X29237Y-20973D03*
X29237Y-19973D03*
X30237Y-20973D03*
X30237Y-19973D03*
X31237Y-20973D03*
X31237Y-19973D03*
X32237Y-20973D03*
X32237Y-19973D03*
X33237Y-20973D03*
X33237Y-19973D03*
X34237Y-20973D03*
X34237Y-19973D03*
X35237Y-20973D03*
X35237Y-19973D03*
X36237Y-20973D03*
X36237Y-19973D03*
X37237Y-20973D03*
X37237Y-19973D03*
X38237Y-20973D03*
X38237Y-19973D03*
X39237Y-20973D03*
X39237Y-19973D03*
X40237Y-20973D03*
X40237Y-19973D03*
G54D38*
X47638Y-27146D03*
X47638Y-28760D03*
X49213Y-26201D03*
X49213Y-24587D03*
G54D39*
X16713Y-27756D03*
X18327Y-27756D03*
G54D38*
X16733Y-26201D03*
X16733Y-24587D03*
X46851Y-41556D03*
X46851Y-39942D03*
G54D39*
X43327Y-39961D03*
X41713Y-39961D03*
G54D38*
X29725Y-32894D03*
X29725Y-31280D03*
X31497Y-32894D03*
X31497Y-31280D03*
G54D39*
X24430Y-38583D03*
X22816Y-38583D03*
X24430Y-40355D03*
X22816Y-40355D03*
G54D38*
X29331Y-39981D03*
X29331Y-38367D03*
G54D39*
X16713Y-29528D03*
X18327Y-29528D03*
X17697Y-30906D03*
X19311Y-30906D03*
G54D38*
X47638Y-31516D03*
X47638Y-29902D03*
X45276Y-31674D03*
X45276Y-33288D03*
X31103Y-39981D03*
X31103Y-38367D03*
G54D40*
X25213Y-26969D03*
X23213Y-26969D03*
X41127Y-31890D03*
X43127Y-31890D03*
G54D41*
X28937Y-23607D03*
X28937Y-25607D03*
G54D40*
X19867Y-15945D03*
X21867Y-15945D03*
G54D42*
X35990Y-36024D03*
X37240Y-36024D03*
G54D43*
X44489Y-37418D03*
G54D44*
X44489Y-35418D03*
G54D45*
X45079Y-19077D03*
X45079Y-19903D03*
X45080Y-17107D03*
X45080Y-17933D03*
X46261Y-19076D03*
X46261Y-19902D03*
X46261Y-17107D03*
X46261Y-17933D03*
X47443Y-19076D03*
X47443Y-19902D03*
X47443Y-17107D03*
X47443Y-17933D03*
X48623Y-19076D03*
X48623Y-19902D03*
X48623Y-17107D03*
X48623Y-17933D03*
X49804Y-19076D03*
X49804Y-19902D03*
X49804Y-17107D03*
X49804Y-17933D03*
X50985Y-19076D03*
X50985Y-19902D03*
X50985Y-17107D03*
X50985Y-17933D03*
X52166Y-19076D03*
X52166Y-19902D03*
X52166Y-17107D03*
X52166Y-17933D03*
X53348Y-19076D03*
X53348Y-19902D03*
X53348Y-17107D03*
X53348Y-17933D03*
G54D10*
G36*
X16329Y-31159D02*
X15762Y-31602D01*
X15319Y-31035D01*
X15886Y-30592D01*
X16329Y-31159D01*
X16329Y-31159D01*
G37*
G54D35*
X16308Y-31717D03*
X16793Y-32337D03*
X17278Y-32958D03*
X17762Y-33578D03*
X18247Y-34199D03*
X18732Y-34819D03*
X19216Y-35439D03*
G54D10*
G36*
X49546Y-32105D02*
X48865Y-31870D01*
X49100Y-31189D01*
X49781Y-31424D01*
X49546Y-32105D01*
X49546Y-32105D01*
G37*
G54D35*
X49067Y-32391D03*
X48810Y-33135D03*
X48554Y-33880D03*
X48298Y-34624D03*
X48042Y-35369D03*
X47785Y-36113D03*
X47529Y-36857D03*
G54D46*
X41839Y-35221D03*
X41339Y-37221D03*
X40839Y-35221D03*
M02*
