M48
;DRILL file {PCBnew (2011-07-20 BZR 3052)-testing} date 2011-07-21 16:28:39
;FORMAT={-:-/ absolute / metric / decimal}
FMAT,2
METRIC,TZ
T1C0.300
T2C0.500
T3C0.701
T4C0.813
T5C1.016
T6C1.524
T7C3.002
%
G90
G05
M71
T1
X48.852Y-70.500
X66.126Y-38.466
X92.502Y-57.650
X92.527Y-57.650
X92.550Y-57.650
X93.751Y-62.001
X93.800Y-63.833
X96.276Y-74.252
X96.822Y-63.823
X104.760Y-87.953
X108.262Y-92.212
X108.471Y-88.402
X110.701Y-53.376
X111.826Y-57.226
X112.276Y-97.526
X115.725Y-70.401
X117.081Y-56.507
X117.950Y-64.676
X119.225Y-57.277
X119.250Y-64.450
X121.788Y-56.490
X123.701Y-37.577
X125.255Y-56.462
X126.068Y-36.500
X127.831Y-36.500
X128.651Y-60.170
X130.025Y-67.650
X131.376Y-49.477
X132.776Y-56.434
X134.501Y-65.502
X135.504Y-56.500
X135.639Y-36.703
T2
X38.862Y-74.930
X51.051Y-69.901
X52.014Y-69.096
X52.901Y-71.201
X52.967Y-85.811
X59.817Y-107.442
X64.884Y-57.866
X65.875Y-47.838
X66.375Y-54.701
X67.480Y-72.166
X68.593Y-44.455
X69.875Y-81.935
X69.880Y-83.469
X69.995Y-80.726
X70.810Y-79.202
X71.206Y-56.556
X71.435Y-85.570
X71.537Y-87.630
X72.420Y-88.410
X72.631Y-78.961
X76.299Y-62.255
X77.417Y-49.223
X77.823Y-71.958
X78.016Y-77.660
X78.384Y-47.907
X79.441Y-49.134
X80.452Y-76.076
X81.608Y-74.882
X87.513Y-47.970
X88.273Y-77.925
X90.325Y-55.502
X90.429Y-51.976
X91.199Y-48.308
X93.002Y-49.134
X93.886Y-55.364
X94.176Y-58.476
X95.347Y-48.308
X95.702Y-54.976
X96.827Y-57.650
X96.888Y-47.958
X97.701Y-76.627
X98.255Y-90.635
X99.083Y-56.429
X99.301Y-58.430
X99.576Y-88.087
X100.907Y-88.082
X101.310Y-46.020
X102.202Y-60.477
X102.466Y-78.804
X105.486Y-57.854
X106.502Y-80.500
X107.401Y-79.677
X108.555Y-54.846
X110.178Y-38.163
X110.470Y-44.552
X111.757Y-50.754
X111.857Y-48.811
X112.151Y-77.742
X112.464Y-42.042
X112.619Y-46.294
X112.888Y-49.540
X116.601Y-64.800
X118.768Y-42.832
X119.131Y-45.364
X119.837Y-42.090
X123.200Y-82.601
T3
X39.276Y-62.451
X48.748Y-48.796
X49.728Y-69.108
X50.427Y-80.300
X50.861Y-43.343
X51.026Y-74.463
X51.077Y-77.020
X51.326Y-84.092
X55.052Y-63.076
X55.100Y-98.102
X55.258Y-94.978
X55.557Y-60.947
X55.834Y-69.324
X59.025Y-40.602
X59.276Y-61.120
X62.720Y-40.800
X67.401Y-87.452
X67.627Y-49.096
X68.209Y-92.187
X68.283Y-68.532
X69.149Y-56.208
X69.543Y-48.481
X70.589Y-72.964
X71.468Y-76.939
X72.187Y-102.555
X73.426Y-69.151
X73.665Y-81.808
X74.003Y-56.065
X75.476Y-81.552
X75.776Y-73.894
X76.098Y-85.573
X76.865Y-60.178
X77.201Y-105.301
X77.234Y-75.710
X77.526Y-88.202
X78.059Y-84.003
X78.590Y-95.418
X82.100Y-79.850
X82.154Y-103.078
X83.210Y-83.315
X85.794Y-108.100
X86.502Y-75.209
X87.526Y-56.820
X89.014Y-92.751
X92.786Y-75.197
X95.400Y-86.025
X95.601Y-103.101
X97.025Y-59.502
X97.234Y-71.994
X97.376Y-83.076
X99.113Y-99.634
X99.426Y-78.976
X106.096Y-92.121
X106.380Y-87.683
X108.354Y-46.352
X110.073Y-62.070
X110.119Y-86.126
X112.194Y-80.912
X112.766Y-53.162
X112.845Y-62.878
X113.251Y-58.202
X115.026Y-58.052
X115.301Y-68.425
X116.401Y-77.102
X117.826Y-73.952
X117.975Y-62.126
X118.664Y-65.941
X118.737Y-89.494
X119.027Y-46.876
X119.212Y-71.003
X120.254Y-37.572
X121.001Y-99.850
X121.643Y-84.155
X122.017Y-37.843
X123.129Y-67.046
X123.601Y-72.977
X124.371Y-78.422
T4
X38.001Y-65.999
X38.001Y-68.001
X38.001Y-69.997
X38.001Y-71.999
X40.193Y-78.986
X41.422Y-80.561
X42.654Y-82.136
X43.886Y-83.713
X45.115Y-85.288
X46.347Y-86.865
X47.579Y-88.440
X48.809Y-90.015
X63.002Y-107.000
X65.001Y-107.000
X70.500Y-107.500
X71.722Y-53.271
X72.502Y-107.500
X74.498Y-107.500
X76.500Y-107.500
X82.001Y-107.500
X83.002Y-100.500
X84.000Y-107.500
X85.001Y-100.500
X87.003Y-100.500
X88.999Y-100.500
X91.001Y-100.500
X93.000Y-100.500
X98.501Y-107.500
X100.503Y-107.500
X102.499Y-107.500
X104.501Y-107.500
X110.002Y-107.500
X112.001Y-107.500
X120.724Y-93.617
X121.374Y-91.727
X122.027Y-89.837
X122.677Y-87.945
X123.327Y-86.055
X123.977Y-84.163
X124.630Y-82.273
X125.280Y-80.383
X127.025Y-75.339
X127.676Y-73.447
X128.326Y-71.557
X128.976Y-69.665
T5
X71.722Y-50.731
X74.262Y-50.731
X74.262Y-53.271
X76.802Y-50.731
X76.802Y-53.271
X79.342Y-50.731
X79.342Y-53.271
X81.882Y-50.731
X81.882Y-53.271
X84.422Y-50.731
X84.422Y-53.271
X86.962Y-50.731
X86.962Y-53.271
X89.502Y-50.731
X89.502Y-53.271
X92.042Y-50.731
X92.042Y-53.271
X94.582Y-50.731
X94.582Y-53.271
X97.122Y-50.731
X97.122Y-53.271
X99.662Y-50.731
X99.662Y-53.271
X102.202Y-50.731
X102.202Y-53.271
X104.742Y-50.731
X104.742Y-53.271
X107.282Y-50.731
X107.282Y-53.271
T6
X113.002Y-89.962
X113.002Y-95.042
T7
X49.502Y-63.500
X89.502Y-107.000
X130.500Y-63.500
T0
M30
