G04 (Genere par PCBnew (20080825)) le 18/9/2008-18:55:31*
G01*
G70*
G90*
%MOIN*%
G04 Gerber Fmt 3.4, Leading zero omitted, Abs format*
%FSLAX34Y34*%
G04 APERTURE LIST*
%ADD10C,0.006000*%
%ADD11C,0.007000*%
%ADD12R,0.200000X0.070000*%
%ADD13C,0.057100*%
%ADD14C,0.055000*%
%ADD15R,0.055000X0.055000*%
%ADD16C,0.045000*%
%ADD17C,0.019000*%
%ADD18C,0.017000*%
%ADD19C,0.002500*%
%ADD20C,0.006000*%
%ADD21R,0.025000X0.045000*%
%ADD22R,0.045000X0.025000*%
%ADD23R,0.050000X0.016000*%
%ADD24R,0.045000X0.020000*%
%ADD25R,0.070800X0.062900*%
%ADD26C,0.009000*%
G04 APERTURE END LIST*
G54D10*
X20000Y-15000D02*
X19961Y-15191D01*
X19961Y-15191D02*
X19853Y-15353D01*
X19853Y-15353D02*
X19691Y-15461D01*
X19691Y-15461D02*
X19500Y-15500D01*
X19500Y-15500D02*
X19309Y-15461D01*
X19309Y-15461D02*
X19147Y-15353D01*
X19147Y-15353D02*
X19039Y-15191D01*
X19039Y-15191D02*
X19000Y-15000D01*
X19000Y-15000D02*
X19039Y-14809D01*
X19039Y-14809D02*
X19147Y-14647D01*
X19147Y-14647D02*
X19309Y-14539D01*
X19309Y-14539D02*
X19500Y-14500D01*
X19500Y-14500D02*
X19691Y-14539D01*
X19691Y-14539D02*
X19853Y-14647D01*
X19853Y-14647D02*
X19961Y-14809D01*
X19961Y-14809D02*
X20000Y-15000D01*
X18500Y-15000D02*
X20500Y-15000D01*
X19500Y-14000D02*
X19500Y-16000D01*
X34750Y-11250D02*
X34711Y-11441D01*
X34711Y-11441D02*
X34603Y-11603D01*
X34603Y-11603D02*
X34441Y-11711D01*
X34441Y-11711D02*
X34250Y-11750D01*
X34250Y-11750D02*
X34059Y-11711D01*
X34059Y-11711D02*
X33897Y-11603D01*
X33897Y-11603D02*
X33789Y-11441D01*
X33789Y-11441D02*
X33750Y-11250D01*
X33750Y-11250D02*
X33789Y-11059D01*
X33789Y-11059D02*
X33897Y-10897D01*
X33897Y-10897D02*
X34059Y-10789D01*
X34059Y-10789D02*
X34250Y-10750D01*
X34250Y-10750D02*
X34441Y-10789D01*
X34441Y-10789D02*
X34603Y-10897D01*
X34603Y-10897D02*
X34711Y-11059D01*
X34711Y-11059D02*
X34750Y-11250D01*
X33250Y-11250D02*
X35250Y-11250D01*
X34250Y-10250D02*
X34250Y-12250D01*
X34750Y-18750D02*
X34711Y-18941D01*
X34711Y-18941D02*
X34603Y-19103D01*
X34603Y-19103D02*
X34441Y-19211D01*
X34441Y-19211D02*
X34250Y-19250D01*
X34250Y-19250D02*
X34059Y-19211D01*
X34059Y-19211D02*
X33897Y-19103D01*
X33897Y-19103D02*
X33789Y-18941D01*
X33789Y-18941D02*
X33750Y-18750D01*
X33750Y-18750D02*
X33789Y-18559D01*
X33789Y-18559D02*
X33897Y-18397D01*
X33897Y-18397D02*
X34059Y-18289D01*
X34059Y-18289D02*
X34250Y-18250D01*
X34250Y-18250D02*
X34441Y-18289D01*
X34441Y-18289D02*
X34603Y-18397D01*
X34603Y-18397D02*
X34711Y-18559D01*
X34711Y-18559D02*
X34750Y-18750D01*
X33250Y-18750D02*
X35250Y-18750D01*
X34250Y-17750D02*
X34250Y-19750D01*
G54D11*
X18750Y-10500D02*
X35250Y-10500D01*
X18750Y-19500D02*
X18750Y-10500D01*
X35250Y-19500D02*
X18750Y-19500D01*
X35250Y-10500D02*
X35250Y-19500D01*
M02*
